  0
SECTION
  2
HEADER
  9
$ACADVER
  1
AC1009
  9
$INSUNITS
 70
4
  0
ENDSEC
  0
SECTION
  2
TABLES
  0
TABLE
  2
LTYPE
 70
3
  0
LTYPE
  2
CONTINUOUS
 70
0
  3
Solid line
 72
65
 73
0
 40
-0.0
  0
LTYPE
  2
HIDDEN
 70
0
  3
Hidden __ __
 72
65
 73
2
 40
4.5
 49
3.0
 49
-1.5
  0
LTYPE
  2
CENTER
 70
0
  3
Center ____ _ ____
 72
65
 73
4
 40
17.0
 49
12.0
 49
-1.5
 49
2.0
 49
-1.5
  0
ENDTAB
  0
TABLE
  2
LAYER
 70
8
  0
LAYER
  2
VISIBLE
 70
0
 62
7
  6
CONTINUOUS
  0
LAYER
  2
HIDDEN
 70
0
 62
7
  6
HIDDEN
  0
LAYER
  2
THIN
 70
0
 62
7
  6
CONTINUOUS
  0
LAYER
  2
CENTER
 70
0
 62
7
  6
CENTER
  0
LAYER
  2
CUTTING
 70
0
 62
7
  6
CENTER
  0
LAYER
  2
BORDER
 70
0
 62
7
  6
CONTINUOUS
  0
LAYER
  2
HATCH
 70
0
 62
7
  6
CONTINUOUS
  0
LAYER
  2
TEXT
 70
0
 62
7
  6
CONTINUOUS
  0
ENDTAB
  0
ENDSEC
  0
SECTION
  2
ENTITIES
  0
LINE
  8
BORDER
 10
10.0
 20
10.0
 30
0.0
 11
421.8
 21
10.0
 31
0.0
  0
LINE
  8
BORDER
 10
421.8
 20
10.0
 30
0.0
 11
421.8
 21
269.4
 31
0.0
  0
LINE
  8
BORDER
 10
421.8
 20
269.4
 30
0.0
 11
10.0
 21
269.4
 31
0.0
  0
LINE
  8
BORDER
 10
10.0
 20
269.4
 30
0.0
 11
10.0
 21
10.0
 31
0.0
  0
LINE
  8
THIN
 10
251.8
 20
10.0
 30
0.0
 11
421.8
 21
10.0
 31
0.0
  0
LINE
  8
THIN
 10
421.8
 20
10.0
 30
0.0
 11
421.8
 21
50.0
 31
0.0
  0
LINE
  8
THIN
 10
421.8
 20
50.0
 30
0.0
 11
251.8
 21
50.0
 31
0.0
  0
LINE
  8
THIN
 10
251.8
 20
50.0
 30
0.0
 11
251.8
 21
10.0
 31
0.0
  0
LINE
  8
THIN
 10
251.8
 20
26.0
 30
0.0
 11
421.8
 21
26.0
 31
0.0
  0
LINE
  8
THIN
 10
251.8
 20
38.0
 30
0.0
 11
421.8
 21
38.0
 31
0.0
  0
LINE
  8
THIN
 10
331.8
 20
38.0
 30
0.0
 11
331.8
 21
50.0
 31
0.0
  0
LINE
  8
THIN
 10
291.8
 20
26.0
 30
0.0
 11
291.8
 21
38.0
 31
0.0
  0
LINE
  8
THIN
 10
331.8
 20
26.0
 30
0.0
 11
331.8
 21
38.0
 31
0.0
  0
LINE
  8
THIN
 10
396.8
 20
26.0
 30
0.0
 11
396.8
 21
38.0
 31
0.0
  0
LINE
  8
THIN
 10
271.8
 20
10.0
 30
0.0
 11
271.8
 21
26.0
 31
0.0
  0
LINE
  8
THIN
 10
311.8
 20
10.0
 30
0.0
 11
311.8
 21
26.0
 31
0.0
  0
LINE
  8
THIN
 10
351.8
 20
10.0
 30
0.0
 11
351.8
 21
26.0
 31
0.0
  0
LINE
  8
THIN
 10
376.8
 20
10.0
 30
0.0
 11
376.8
 21
26.0
 31
0.0
  0
LINE
  8
THIN
 10
388.3
 20
14.0
 30
0.0
 11
388.3
 21
22.0
 31
0.0
  0
LINE
  8
THIN
 10
388.3
 20
22.0
 30
0.0
 11
397.3
 21
20.4
 31
0.0
  0
LINE
  8
THIN
 10
397.3
 20
20.4
 30
0.0
 11
397.3
 21
15.6
 31
0.0
  0
LINE
  8
THIN
 10
397.3
 20
15.6
 30
0.0
 11
388.3
 21
14.0
 31
0.0
  0
LINE
  8
THIN
 10
409.8
 20
18.0
 30
0.0
 11
409.784778792367
 21
18.348622970990633
 31
0.0
  0
LINE
  8
THIN
 10
409.784778792367
 20
18.348622970990633
 30
0.0
 11
409.73923101204883
 21
18.69459271066772
 31
0.0
  0
LINE
  8
THIN
 10
409.73923101204883
 20
18.69459271066772
 30
0.0
 11
409.6637033051563
 21
19.035276180410083
 31
0.0
  0
LINE
  8
THIN
 10
409.6637033051563
 20
19.035276180410083
 30
0.0
 11
409.55877048314363
 21
19.368080573302674
 31
0.0
  0
LINE
  8
THIN
 10
409.55877048314363
 20
19.368080573302674
 30
0.0
 11
409.4252311481466
 21
19.690473046962797
 31
0.0
  0
LINE
  8
THIN
 10
409.4252311481466
 20
19.690473046962797
 30
0.0
 11
409.26410161513775
 21
20.0
 31
0.0
  0
LINE
  8
THIN
 10
409.26410161513775
 20
20.0
 30
0.0
 11
409.076608177156
 21
20.294305745404184
 31
0.0
  0
LINE
  8
THIN
 10
409.076608177156
 20
20.294305745404184
 30
0.0
 11
408.8641777724759
 21
20.57115043874616
 31
0.0
  0
LINE
  8
THIN
 10
408.8641777724759
 20
20.57115043874616
 30
0.0
 11
408.6284271247462
 21
20.82842712474619
 31
0.0
  0
LINE
  8
THIN
 10
408.6284271247462
 20
20.82842712474619
 30
0.0
 11
408.37115043874616
 21
21.06417777247591
 31
0.0
  0
LINE
  8
THIN
 10
408.37115043874616
 20
21.06417777247591
 30
0.0
 11
408.0943057454042
 21
21.276608177155968
 31
0.0
  0
LINE
  8
THIN
 10
408.0943057454042
 20
21.276608177155968
 30
0.0
 11
407.8
 21
21.464101615137753
 31
0.0
  0
LINE
  8
THIN
 10
407.8
 20
21.464101615137753
 30
0.0
 11
407.4904730469628
 21
21.6252311481466
 31
0.0
  0
LINE
  8
THIN
 10
407.4904730469628
 20
21.6252311481466
 30
0.0
 11
407.1680805733027
 21
21.758770483143632
 31
0.0
  0
LINE
  8
THIN
 10
407.1680805733027
 20
21.758770483143632
 30
0.0
 11
406.8352761804101
 21
21.863703305156275
 31
0.0
  0
LINE
  8
THIN
 10
406.8352761804101
 20
21.863703305156275
 30
0.0
 11
406.49459271066775
 21
21.939231012048833
 31
0.0
  0
LINE
  8
THIN
 10
406.49459271066775
 20
21.939231012048833
 30
0.0
 11
406.14862297099063
 21
21.98477879236698
 31
0.0
  0
LINE
  8
THIN
 10
406.14862297099063
 20
21.98477879236698
 30
0.0
 11
405.8
 21
22.0
 31
0.0
  0
LINE
  8
THIN
 10
405.8
 20
22.0
 30
0.0
 11
405.4513770290094
 21
21.98477879236698
 31
0.0
  0
LINE
  8
THIN
 10
405.4513770290094
 20
21.98477879236698
 30
0.0
 11
405.1054072893323
 21
21.939231012048833
 31
0.0
  0
LINE
  8
THIN
 10
405.1054072893323
 20
21.939231012048833
 30
0.0
 11
404.7647238195899
 21
21.863703305156275
 31
0.0
  0
LINE
  8
THIN
 10
404.7647238195899
 20
21.863703305156275
 30
0.0
 11
404.43191942669733
 21
21.758770483143635
 31
0.0
  0
LINE
  8
THIN
 10
404.43191942669733
 20
21.758770483143635
 30
0.0
 11
404.10952695303723
 21
21.6252311481466
 31
0.0
  0
LINE
  8
THIN
 10
404.10952695303723
 20
21.6252311481466
 30
0.0
 11
403.8
 21
21.464101615137753
 31
0.0
  0
LINE
  8
THIN
 10
403.8
 20
21.464101615137753
 30
0.0
 11
403.5056942545958
 21
21.276608177155968
 31
0.0
  0
LINE
  8
THIN
 10
403.5056942545958
 20
21.276608177155968
 30
0.0
 11
403.22884956125387
 21
21.06417777247591
 31
0.0
  0
LINE
  8
THIN
 10
403.22884956125387
 20
21.06417777247591
 30
0.0
 11
402.9715728752538
 21
20.82842712474619
 31
0.0
  0
LINE
  8
THIN
 10
402.9715728752538
 20
20.82842712474619
 30
0.0
 11
402.7358222275241
 21
20.57115043874616
 31
0.0
  0
LINE
  8
THIN
 10
402.7358222275241
 20
20.57115043874616
 30
0.0
 11
402.523391822844
 21
20.294305745404184
 31
0.0
  0
LINE
  8
THIN
 10
402.523391822844
 20
20.294305745404184
 30
0.0
 11
402.3358983848623
 21
20.0
 31
0.0
  0
LINE
  8
THIN
 10
402.3358983848623
 20
20.0
 30
0.0
 11
402.1747688518534
 21
19.690473046962797
 31
0.0
  0
LINE
  8
THIN
 10
402.1747688518534
 20
19.690473046962797
 30
0.0
 11
402.0412295168564
 21
19.368080573302677
 31
0.0
  0
LINE
  8
THIN
 10
402.0412295168564
 20
19.368080573302677
 30
0.0
 11
401.93629669484375
 21
19.035276180410083
 31
0.0
  0
LINE
  8
THIN
 10
401.93629669484375
 20
19.035276180410083
 30
0.0
 11
401.8607689879512
 21
18.694592710667724
 31
0.0
  0
LINE
  8
THIN
 10
401.8607689879512
 20
18.694592710667724
 30
0.0
 11
401.81522120763304
 21
18.348622970990633
 31
0.0
  0
LINE
  8
THIN
 10
401.81522120763304
 20
18.348622970990633
 30
0.0
 11
401.8
 21
18.0
 31
0.0
  0
LINE
  8
THIN
 10
401.8
 20
18.0
 30
0.0
 11
401.81522120763304
 21
17.651377029009367
 31
0.0
  0
LINE
  8
THIN
 10
401.81522120763304
 20
17.651377029009367
 30
0.0
 11
401.8607689879512
 21
17.30540728933228
 31
0.0
  0
LINE
  8
THIN
 10
401.8607689879512
 20
17.30540728933228
 30
0.0
 11
401.93629669484375
 21
16.964723819589917
 31
0.0
  0
LINE
  8
THIN
 10
401.93629669484375
 20
16.964723819589917
 30
0.0
 11
402.0412295168564
 21
16.631919426697326
 31
0.0
  0
LINE
  8
THIN
 10
402.0412295168564
 20
16.631919426697326
 30
0.0
 11
402.1747688518534
 21
16.309526953037203
 31
0.0
  0
LINE
  8
THIN
 10
402.1747688518534
 20
16.309526953037203
 30
0.0
 11
402.3358983848623
 21
16.0
 31
0.0
  0
LINE
  8
THIN
 10
402.3358983848623
 20
16.0
 30
0.0
 11
402.523391822844
 21
15.705694254595816
 31
0.0
  0
LINE
  8
THIN
 10
402.523391822844
 20
15.705694254595816
 30
0.0
 11
402.7358222275241
 21
15.428849561253843
 31
0.0
  0
LINE
  8
THIN
 10
402.7358222275241
 20
15.428849561253843
 30
0.0
 11
402.9715728752538
 21
15.17157287525381
 31
0.0
  0
LINE
  8
THIN
 10
402.9715728752538
 20
15.17157287525381
 30
0.0
 11
403.22884956125387
 21
14.935822227524088
 31
0.0
  0
LINE
  8
THIN
 10
403.22884956125387
 20
14.935822227524088
 30
0.0
 11
403.5056942545958
 21
14.723391822844034
 31
0.0
  0
LINE
  8
THIN
 10
403.5056942545958
 20
14.723391822844034
 30
0.0
 11
403.8
 21
14.535898384862247
 31
0.0
  0
LINE
  8
THIN
 10
403.8
 20
14.535898384862247
 30
0.0
 11
404.10952695303723
 21
14.3747688518534
 31
0.0
  0
LINE
  8
THIN
 10
404.10952695303723
 20
14.3747688518534
 30
0.0
 11
404.43191942669733
 21
14.241229516856368
 31
0.0
  0
LINE
  8
THIN
 10
404.43191942669733
 20
14.241229516856368
 30
0.0
 11
404.7647238195899
 21
14.136296694843727
 31
0.0
  0
LINE
  8
THIN
 10
404.7647238195899
 20
14.136296694843727
 30
0.0
 11
405.1054072893323
 21
14.060768987951167
 31
0.0
  0
LINE
  8
THIN
 10
405.1054072893323
 20
14.060768987951167
 30
0.0
 11
405.4513770290094
 21
14.015221207633019
 31
0.0
  0
LINE
  8
THIN
 10
405.4513770290094
 20
14.015221207633019
 30
0.0
 11
405.8
 21
14.0
 31
0.0
  0
LINE
  8
THIN
 10
405.8
 20
14.0
 30
0.0
 11
406.14862297099063
 21
14.015221207633019
 31
0.0
  0
LINE
  8
THIN
 10
406.14862297099063
 20
14.015221207633019
 30
0.0
 11
406.49459271066775
 21
14.060768987951167
 31
0.0
  0
LINE
  8
THIN
 10
406.49459271066775
 20
14.060768987951167
 30
0.0
 11
406.8352761804101
 21
14.136296694843725
 31
0.0
  0
LINE
  8
THIN
 10
406.8352761804101
 20
14.136296694843725
 30
0.0
 11
407.1680805733027
 21
14.241229516856366
 31
0.0
  0
LINE
  8
THIN
 10
407.1680805733027
 20
14.241229516856366
 30
0.0
 11
407.4904730469628
 21
14.3747688518534
 31
0.0
  0
LINE
  8
THIN
 10
407.4904730469628
 20
14.3747688518534
 30
0.0
 11
407.8
 21
14.535898384862247
 31
0.0
  0
LINE
  8
THIN
 10
407.8
 20
14.535898384862247
 30
0.0
 11
408.0943057454042
 21
14.723391822844032
 31
0.0
  0
LINE
  8
THIN
 10
408.0943057454042
 20
14.723391822844032
 30
0.0
 11
408.37115043874616
 21
14.935822227524088
 31
0.0
  0
LINE
  8
THIN
 10
408.37115043874616
 20
14.935822227524088
 30
0.0
 11
408.6284271247462
 21
15.171572875253808
 31
0.0
  0
LINE
  8
THIN
 10
408.6284271247462
 20
15.171572875253808
 30
0.0
 11
408.8641777724759
 21
15.428849561253841
 31
0.0
  0
LINE
  8
THIN
 10
408.8641777724759
 20
15.428849561253841
 30
0.0
 11
409.076608177156
 21
15.705694254595814
 31
0.0
  0
LINE
  8
THIN
 10
409.076608177156
 20
15.705694254595814
 30
0.0
 11
409.26410161513775
 21
15.999999999999998
 31
0.0
  0
LINE
  8
THIN
 10
409.26410161513775
 20
15.999999999999998
 30
0.0
 11
409.4252311481466
 21
16.309526953037203
 31
0.0
  0
LINE
  8
THIN
 10
409.4252311481466
 20
16.309526953037203
 30
0.0
 11
409.55877048314363
 21
16.631919426697323
 31
0.0
  0
LINE
  8
THIN
 10
409.55877048314363
 20
16.631919426697323
 30
0.0
 11
409.6637033051563
 21
16.964723819589917
 31
0.0
  0
LINE
  8
THIN
 10
409.6637033051563
 20
16.964723819589917
 30
0.0
 11
409.73923101204883
 21
17.30540728933228
 31
0.0
  0
LINE
  8
THIN
 10
409.73923101204883
 20
17.30540728933228
 30
0.0
 11
409.784778792367
 21
17.651377029009367
 31
0.0
  0
LINE
  8
THIN
 10
409.784778792367
 20
17.651377029009367
 30
0.0
 11
409.8
 21
18.0
 31
0.0
  0
LINE
  8
THIN
 10
408.2
 20
18.0
 30
0.0
 11
408.1908672754202
 21
18.20917378259438
 31
0.0
  0
LINE
  8
THIN
 10
408.1908672754202
 20
18.20917378259438
 30
0.0
 11
408.1635386072293
 21
18.416755626400633
 31
0.0
  0
LINE
  8
THIN
 10
408.1635386072293
 20
18.416755626400633
 30
0.0
 11
408.1182219830938
 21
18.62116570824605
 31
0.0
  0
LINE
  8
THIN
 10
408.1182219830938
 20
18.62116570824605
 30
0.0
 11
408.0552622898862
 21
18.820848343981606
 31
0.0
  0
LINE
  8
THIN
 10
408.0552622898862
 20
18.820848343981606
 30
0.0
 11
407.97513868888797
 21
19.01428382817768
 31
0.0
  0
LINE
  8
THIN
 10
407.97513868888797
 20
19.01428382817768
 30
0.0
 11
407.87846096908265
 21
19.2
 31
0.0
  0
LINE
  8
THIN
 10
407.87846096908265
 20
19.2
 30
0.0
 11
407.7659649062936
 21
19.37658344724251
 31
0.0
  0
LINE
  8
THIN
 10
407.7659649062936
 20
19.37658344724251
 30
0.0
 11
407.63850666348554
 21
19.542690263247692
 31
0.0
  0
LINE
  8
THIN
 10
407.63850666348554
 20
19.542690263247692
 30
0.0
 11
407.49705627484775
 21
19.697056274847714
 31
0.0
  0
LINE
  8
THIN
 10
407.49705627484775
 20
19.697056274847714
 30
0.0
 11
407.34269026324773
 21
19.838506663485546
 31
0.0
  0
LINE
  8
THIN
 10
407.34269026324773
 20
19.838506663485546
 30
0.0
 11
407.17658344724254
 21
19.96596490629358
 31
0.0
  0
LINE
  8
THIN
 10
407.17658344724254
 20
19.96596490629358
 30
0.0
 11
407.0
 21
20.078460969082652
 31
0.0
  0
LINE
  8
THIN
 10
407.0
 20
20.078460969082652
 30
0.0
 11
406.8142838281777
 21
20.17513868888796
 31
0.0
  0
LINE
  8
THIN
 10
406.8142838281777
 20
20.17513868888796
 30
0.0
 11
406.6208483439816
 21
20.25526228988618
 31
0.0
  0
LINE
  8
THIN
 10
406.6208483439816
 20
20.25526228988618
 30
0.0
 11
406.42116570824606
 21
20.318221983093764
 31
0.0
  0
LINE
  8
THIN
 10
406.42116570824606
 20
20.318221983093764
 30
0.0
 11
406.21675562640064
 21
20.363538607229298
 31
0.0
  0
LINE
  8
THIN
 10
406.21675562640064
 20
20.363538607229298
 30
0.0
 11
406.0091737825944
 21
20.390867275420188
 31
0.0
  0
LINE
  8
THIN
 10
406.0091737825944
 20
20.390867275420188
 30
0.0
 11
405.8
 21
20.4
 31
0.0
  0
LINE
  8
THIN
 10
405.8
 20
20.4
 30
0.0
 11
405.5908262174056
 21
20.390867275420188
 31
0.0
  0
LINE
  8
THIN
 10
405.5908262174056
 20
20.390867275420188
 30
0.0
 11
405.3832443735994
 21
20.363538607229298
 31
0.0
  0
LINE
  8
THIN
 10
405.3832443735994
 20
20.363538607229298
 30
0.0
 11
405.17883429175396
 21
20.318221983093764
 31
0.0
  0
LINE
  8
THIN
 10
405.17883429175396
 20
20.318221983093764
 30
0.0
 11
404.9791516560184
 21
20.25526228988618
 31
0.0
  0
LINE
  8
THIN
 10
404.9791516560184
 20
20.25526228988618
 30
0.0
 11
404.78571617182234
 21
20.17513868888796
 31
0.0
  0
LINE
  8
THIN
 10
404.78571617182234
 20
20.17513868888796
 30
0.0
 11
404.6
 21
20.078460969082652
 31
0.0
  0
LINE
  8
THIN
 10
404.6
 20
20.078460969082652
 30
0.0
 11
404.4234165527575
 21
19.965964906293582
 31
0.0
  0
LINE
  8
THIN
 10
404.4234165527575
 20
19.965964906293582
 30
0.0
 11
404.2573097367523
 21
19.838506663485546
 31
0.0
  0
LINE
  8
THIN
 10
404.2573097367523
 20
19.838506663485546
 30
0.0
 11
404.1029437251523
 21
19.697056274847714
 31
0.0
  0
LINE
  8
THIN
 10
404.1029437251523
 20
19.697056274847714
 30
0.0
 11
403.9614933365145
 21
19.542690263247696
 31
0.0
  0
LINE
  8
THIN
 10
403.9614933365145
 20
19.542690263247696
 30
0.0
 11
403.8340350937064
 21
19.37658344724251
 31
0.0
  0
LINE
  8
THIN
 10
403.8340350937064
 20
19.37658344724251
 30
0.0
 11
403.72153903091737
 21
19.2
 31
0.0
  0
LINE
  8
THIN
 10
403.72153903091737
 20
19.2
 30
0.0
 11
403.62486131111206
 21
19.01428382817768
 31
0.0
  0
LINE
  8
THIN
 10
403.62486131111206
 20
19.01428382817768
 30
0.0
 11
403.54473771011385
 21
18.820848343981606
 31
0.0
  0
LINE
  8
THIN
 10
403.54473771011385
 20
18.820848343981606
 30
0.0
 11
403.4817780169063
 21
18.62116570824605
 31
0.0
  0
LINE
  8
THIN
 10
403.4817780169063
 20
18.62116570824605
 30
0.0
 11
403.4364613927707
 21
18.416755626400633
 31
0.0
  0
LINE
  8
THIN
 10
403.4364613927707
 20
18.416755626400633
 30
0.0
 11
403.4091327245798
 21
18.20917378259438
 31
0.0
  0
LINE
  8
THIN
 10
403.4091327245798
 20
18.20917378259438
 30
0.0
 11
403.40000000000003
 21
18.0
 31
0.0
  0
LINE
  8
THIN
 10
403.40000000000003
 20
18.0
 30
0.0
 11
403.4091327245798
 21
17.79082621740562
 31
0.0
  0
LINE
  8
THIN
 10
403.4091327245798
 20
17.79082621740562
 30
0.0
 11
403.4364613927707
 21
17.583244373599367
 31
0.0
  0
LINE
  8
THIN
 10
403.4364613927707
 20
17.583244373599367
 30
0.0
 11
403.4817780169062
 21
17.37883429175395
 31
0.0
  0
LINE
  8
THIN
 10
403.4817780169062
 20
17.37883429175395
 30
0.0
 11
403.54473771011385
 21
17.179151656018394
 31
0.0
  0
LINE
  8
THIN
 10
403.54473771011385
 20
17.179151656018394
 30
0.0
 11
403.62486131111206
 21
16.98571617182232
 31
0.0
  0
LINE
  8
THIN
 10
403.62486131111206
 20
16.98571617182232
 30
0.0
 11
403.72153903091737
 21
16.8
 31
0.0
  0
LINE
  8
THIN
 10
403.72153903091737
 20
16.8
 30
0.0
 11
403.8340350937064
 21
16.62341655275749
 31
0.0
  0
LINE
  8
THIN
 10
403.8340350937064
 20
16.62341655275749
 30
0.0
 11
403.9614933365145
 21
16.457309736752308
 31
0.0
  0
LINE
  8
THIN
 10
403.9614933365145
 20
16.457309736752308
 30
0.0
 11
404.1029437251523
 21
16.302943725152286
 31
0.0
  0
LINE
  8
THIN
 10
404.1029437251523
 20
16.302943725152286
 30
0.0
 11
404.2573097367523
 21
16.161493336514454
 31
0.0
  0
LINE
  8
THIN
 10
404.2573097367523
 20
16.161493336514454
 30
0.0
 11
404.4234165527575
 21
16.03403509370642
 31
0.0
  0
LINE
  8
THIN
 10
404.4234165527575
 20
16.03403509370642
 30
0.0
 11
404.6
 21
15.921539030917348
 31
0.0
  0
LINE
  8
THIN
 10
404.6
 20
15.921539030917348
 30
0.0
 11
404.78571617182234
 21
15.82486131111204
 31
0.0
  0
LINE
  8
THIN
 10
404.78571617182234
 20
15.82486131111204
 30
0.0
 11
404.9791516560184
 21
15.74473771011382
 31
0.0
  0
LINE
  8
THIN
 10
404.9791516560184
 20
15.74473771011382
 30
0.0
 11
405.17883429175396
 21
15.681778016906236
 31
0.0
  0
LINE
  8
THIN
 10
405.17883429175396
 20
15.681778016906236
 30
0.0
 11
405.3832443735994
 21
15.636461392770702
 31
0.0
  0
LINE
  8
THIN
 10
405.3832443735994
 20
15.636461392770702
 30
0.0
 11
405.5908262174056
 21
15.60913272457981
 31
0.0
  0
LINE
  8
THIN
 10
405.5908262174056
 20
15.60913272457981
 30
0.0
 11
405.8
 21
15.6
 31
0.0
  0
LINE
  8
THIN
 10
405.8
 20
15.6
 30
0.0
 11
406.0091737825944
 21
15.60913272457981
 31
0.0
  0
LINE
  8
THIN
 10
406.0091737825944
 20
15.60913272457981
 30
0.0
 11
406.21675562640064
 21
15.6364613927707
 31
0.0
  0
LINE
  8
THIN
 10
406.21675562640064
 20
15.6364613927707
 30
0.0
 11
406.42116570824606
 21
15.681778016906236
 31
0.0
  0
LINE
  8
THIN
 10
406.42116570824606
 20
15.681778016906236
 30
0.0
 11
406.6208483439816
 21
15.74473771011382
 31
0.0
  0
LINE
  8
THIN
 10
406.6208483439816
 20
15.74473771011382
 30
0.0
 11
406.8142838281777
 21
15.82486131111204
 31
0.0
  0
LINE
  8
THIN
 10
406.8142838281777
 20
15.82486131111204
 30
0.0
 11
407.0
 21
15.921539030917348
 31
0.0
  0
LINE
  8
THIN
 10
407.0
 20
15.921539030917348
 30
0.0
 11
407.17658344724254
 21
16.03403509370642
 31
0.0
  0
LINE
  8
THIN
 10
407.17658344724254
 20
16.03403509370642
 30
0.0
 11
407.34269026324773
 21
16.161493336514454
 31
0.0
  0
LINE
  8
THIN
 10
407.34269026324773
 20
16.161493336514454
 30
0.0
 11
407.49705627484775
 21
16.302943725152286
 31
0.0
  0
LINE
  8
THIN
 10
407.49705627484775
 20
16.302943725152286
 30
0.0
 11
407.63850666348554
 21
16.457309736752304
 31
0.0
  0
LINE
  8
THIN
 10
407.63850666348554
 20
16.457309736752304
 30
0.0
 11
407.7659649062936
 21
16.62341655275749
 31
0.0
  0
LINE
  8
THIN
 10
407.7659649062936
 20
16.62341655275749
 30
0.0
 11
407.87846096908265
 21
16.799999999999997
 31
0.0
  0
LINE
  8
THIN
 10
407.87846096908265
 20
16.799999999999997
 30
0.0
 11
407.97513868888797
 21
16.98571617182232
 31
0.0
  0
LINE
  8
THIN
 10
407.97513868888797
 20
16.98571617182232
 30
0.0
 11
408.0552622898862
 21
17.179151656018394
 31
0.0
  0
LINE
  8
THIN
 10
408.0552622898862
 20
17.179151656018394
 30
0.0
 11
408.1182219830938
 21
17.37883429175395
 31
0.0
  0
LINE
  8
THIN
 10
408.1182219830938
 20
17.37883429175395
 30
0.0
 11
408.1635386072293
 21
17.583244373599367
 31
0.0
  0
LINE
  8
THIN
 10
408.1635386072293
 20
17.583244373599367
 30
0.0
 11
408.1908672754202
 21
17.79082621740562
 31
0.0
  0
LINE
  8
THIN
 10
408.1908672754202
 20
17.79082621740562
 30
0.0
 11
408.2
 21
18.0
 31
0.0
  0
LINE
  8
VISIBLE
 10
40.0
 20
64.0
 30
0.0
 11
40.0
 21
76.0
 31
0.0
  0
LINE
  8
VISIBLE
 10
160.0
 20
64.0
 30
0.0
 11
160.0
 21
76.0
 31
0.0
  0
LINE
  8
VISIBLE
 10
40.0
 20
64.0
 30
0.0
 11
160.0
 21
64.0
 31
0.0
  0
LINE
  8
VISIBLE
 10
40.0
 20
76.0
 30
0.0
 11
160.0
 21
76.0
 31
0.0
  0
LINE
  8
HIDDEN
 10
59.0
 20
76.0
 30
0.0
 11
59.0
 21
64.0
 31
0.0
  0
LINE
  8
HIDDEN
 10
149.0
 20
76.0
 30
0.0
 11
149.0
 21
64.0
 31
0.0
  0
LINE
  8
HIDDEN
 10
105.0
 20
71.0
 30
0.0
 11
105.0
 21
64.0
 31
0.0
  0
LINE
  8
HIDDEN
 10
105.0
 20
71.0
 30
0.0
 11
95.0
 21
71.0
 31
0.0
  0
LINE
  8
HIDDEN
 10
95.0
 20
71.0
 30
0.0
 11
105.0
 21
71.0
 31
0.0
  0
LINE
  8
HIDDEN
 10
59.0
 20
76.0
 30
0.0
 11
59.0
 21
64.0
 31
0.0
  0
LINE
  8
HIDDEN
 10
149.0
 20
76.0
 30
0.0
 11
149.0
 21
64.0
 31
0.0
  0
LINE
  8
HIDDEN
 10
109.0
 20
71.0
 30
0.0
 11
91.0
 21
71.0
 31
0.0
  0
LINE
  8
HIDDEN
 10
91.0
 20
71.0
 30
0.0
 11
109.0
 21
71.0
 31
0.0
  0
LINE
  8
HIDDEN
 10
109.0
 20
76.0
 30
0.0
 11
109.0
 21
71.0
 31
0.0
  0
LINE
  8
HIDDEN
 10
51.0
 20
76.0
 30
0.0
 11
51.0
 21
64.0
 31
0.0
  0
LINE
  8
HIDDEN
 10
141.0
 20
76.0
 30
0.0
 11
141.0
 21
64.0
 31
0.0
  0
LINE
  8
HIDDEN
 10
95.0
 20
71.0
 30
0.0
 11
95.0
 21
64.0
 31
0.0
  0
LINE
  8
HIDDEN
 10
51.0
 20
76.0
 30
0.0
 11
51.0
 21
64.0
 31
0.0
  0
LINE
  8
HIDDEN
 10
141.0
 20
76.0
 30
0.0
 11
141.0
 21
64.0
 31
0.0
  0
LINE
  8
HIDDEN
 10
91.0
 20
76.0
 30
0.0
 11
91.0
 21
71.0
 31
0.0
  0
LINE
  8
CENTER
 10
55.0
 20
78.0
 30
0.0
 11
55.0
 21
62.0
 31
0.0
  0
LINE
  8
CENTER
 10
145.0
 20
78.0
 30
0.0
 11
145.0
 21
62.0
 31
0.0
  0
LINE
  8
CENTER
 10
100.0
 20
73.0
 30
0.0
 11
100.0
 21
62.0
 31
0.0
  0
LINE
  8
CENTER
 10
100.0
 20
78.0
 30
0.0
 11
100.0
 21
69.0
 31
0.0
  0
LINE
  8
THIN
 10
110.0
 20
73.0
 30
0.0
 11
109.96194698091746
 21
73.87155742747659
 31
0.0
  0
LINE
  8
THIN
 10
109.96194698091746
 20
73.87155742747659
 30
0.0
 11
109.84807753012208
 21
74.73648177666931
 31
0.0
  0
LINE
  8
THIN
 10
109.84807753012208
 20
74.73648177666931
 30
0.0
 11
109.65925826289069
 21
75.58819045102521
 31
0.0
  0
LINE
  8
THIN
 10
109.65925826289069
 20
75.58819045102521
 30
0.0
 11
109.39692620785908
 21
76.4202014332567
 31
0.0
  0
LINE
  8
THIN
 10
109.39692620785908
 20
76.4202014332567
 30
0.0
 11
109.0630778703665
 21
77.22618261740699
 31
0.0
  0
LINE
  8
THIN
 10
109.0630778703665
 20
77.22618261740699
 30
0.0
 11
108.66025403784438
 21
78.0
 31
0.0
  0
LINE
  8
THIN
 10
108.66025403784438
 20
78.0
 30
0.0
 11
108.19152044288992
 21
78.73576436351046
 31
0.0
  0
LINE
  8
THIN
 10
108.19152044288992
 20
78.73576436351046
 30
0.0
 11
107.66044443118977
 21
79.42787609686539
 31
0.0
  0
LINE
  8
THIN
 10
107.66044443118977
 20
79.42787609686539
 30
0.0
 11
107.07106781186548
 21
80.07106781186548
 31
0.0
  0
LINE
  8
THIN
 10
107.07106781186548
 20
80.07106781186548
 30
0.0
 11
106.42787609686539
 21
80.66044443118977
 31
0.0
  0
LINE
  8
THIN
 10
106.42787609686539
 20
80.66044443118977
 30
0.0
 11
105.73576436351046
 21
81.19152044288992
 31
0.0
  0
LINE
  8
THIN
 10
105.73576436351046
 20
81.19152044288992
 30
0.0
 11
105.0
 21
81.66025403784438
 31
0.0
  0
LINE
  8
THIN
 10
105.0
 20
81.66025403784438
 30
0.0
 11
104.22618261740699
 21
82.0630778703665
 31
0.0
  0
LINE
  8
THIN
 10
104.22618261740699
 20
82.0630778703665
 30
0.0
 11
103.4202014332567
 21
82.39692620785908
 31
0.0
  0
LINE
  8
THIN
 10
103.4202014332567
 20
82.39692620785908
 30
0.0
 11
102.58819045102521
 21
82.65925826289069
 31
0.0
  0
LINE
  8
THIN
 10
102.58819045102521
 20
82.65925826289069
 30
0.0
 11
101.73648177666931
 21
82.84807753012208
 31
0.0
  0
LINE
  8
THIN
 10
101.73648177666931
 20
82.84807753012208
 30
0.0
 11
100.87155742747659
 21
82.96194698091746
 31
0.0
  0
LINE
  8
THIN
 10
100.87155742747659
 20
82.96194698091746
 30
0.0
 11
100.0
 21
83.0
 31
0.0
  0
LINE
  8
THIN
 10
100.0
 20
83.0
 30
0.0
 11
99.12844257252341
 21
82.96194698091746
 31
0.0
  0
LINE
  8
THIN
 10
99.12844257252341
 20
82.96194698091746
 30
0.0
 11
98.26351822333069
 21
82.84807753012208
 31
0.0
  0
LINE
  8
THIN
 10
98.26351822333069
 20
82.84807753012208
 30
0.0
 11
97.41180954897479
 21
82.65925826289069
 31
0.0
  0
LINE
  8
THIN
 10
97.41180954897479
 20
82.65925826289069
 30
0.0
 11
96.5797985667433
 21
82.39692620785908
 31
0.0
  0
LINE
  8
THIN
 10
96.5797985667433
 20
82.39692620785908
 30
0.0
 11
95.77381738259301
 21
82.0630778703665
 31
0.0
  0
LINE
  8
THIN
 10
95.77381738259301
 20
82.0630778703665
 30
0.0
 11
95.0
 21
81.66025403784438
 31
0.0
  0
LINE
  8
THIN
 10
95.0
 20
81.66025403784438
 30
0.0
 11
94.26423563648954
 21
81.19152044288992
 31
0.0
  0
LINE
  8
THIN
 10
94.26423563648954
 20
81.19152044288992
 30
0.0
 11
93.57212390313461
 21
80.66044443118977
 31
0.0
  0
LINE
  8
THIN
 10
93.57212390313461
 20
80.66044443118977
 30
0.0
 11
92.92893218813452
 21
80.07106781186548
 31
0.0
  0
LINE
  8
THIN
 10
92.92893218813452
 20
80.07106781186548
 30
0.0
 11
92.33955556881023
 21
79.42787609686539
 31
0.0
  0
LINE
  8
THIN
 10
92.33955556881023
 20
79.42787609686539
 30
0.0
 11
91.80847955711008
 21
78.73576436351046
 31
0.0
  0
LINE
  8
THIN
 10
91.80847955711008
 20
78.73576436351046
 30
0.0
 11
91.33974596215562
 21
78.0
 31
0.0
  0
LINE
  8
THIN
 10
91.33974596215562
 20
78.0
 30
0.0
 11
90.9369221296335
 21
77.22618261740699
 31
0.0
  0
LINE
  8
THIN
 10
90.9369221296335
 20
77.22618261740699
 30
0.0
 11
90.60307379214092
 21
76.4202014332567
 31
0.0
  0
LINE
  8
THIN
 10
90.60307379214092
 20
76.4202014332567
 30
0.0
 11
90.34074173710931
 21
75.58819045102521
 31
0.0
  0
LINE
  8
THIN
 10
90.34074173710931
 20
75.58819045102521
 30
0.0
 11
90.15192246987792
 21
74.73648177666931
 31
0.0
  0
LINE
  8
THIN
 10
90.15192246987792
 20
74.73648177666931
 30
0.0
 11
90.03805301908254
 21
73.87155742747659
 31
0.0
  0
LINE
  8
THIN
 10
90.03805301908254
 20
73.87155742747659
 30
0.0
 11
90.0
 21
73.0
 31
0.0
  0
LINE
  8
THIN
 10
90.0
 20
73.0
 30
0.0
 11
90.03805301908254
 21
72.12844257252343
 31
0.0
  0
LINE
  8
THIN
 10
90.03805301908254
 20
72.12844257252343
 30
0.0
 11
90.15192246987792
 21
71.26351822333069
 31
0.0
  0
LINE
  8
THIN
 10
90.15192246987792
 20
71.26351822333069
 30
0.0
 11
90.34074173710931
 21
70.4118095489748
 31
0.0
  0
LINE
  8
THIN
 10
90.34074173710931
 20
70.4118095489748
 30
0.0
 11
90.60307379214092
 21
69.5797985667433
 31
0.0
  0
LINE
  8
THIN
 10
90.60307379214092
 20
69.5797985667433
 30
0.0
 11
90.9369221296335
 21
68.77381738259301
 31
0.0
  0
LINE
  8
THIN
 10
90.9369221296335
 20
68.77381738259301
 30
0.0
 11
91.33974596215562
 21
68.0
 31
0.0
  0
LINE
  8
THIN
 10
91.33974596215562
 20
68.0
 30
0.0
 11
91.80847955711008
 21
67.26423563648954
 31
0.0
  0
LINE
  8
THIN
 10
91.80847955711008
 20
67.26423563648954
 30
0.0
 11
92.33955556881023
 21
66.57212390313461
 31
0.0
  0
LINE
  8
THIN
 10
92.33955556881023
 20
66.57212390313461
 30
0.0
 11
92.92893218813452
 21
65.92893218813452
 31
0.0
  0
LINE
  8
THIN
 10
92.92893218813452
 20
65.92893218813452
 30
0.0
 11
93.57212390313461
 21
65.33955556881023
 31
0.0
  0
LINE
  8
THIN
 10
93.57212390313461
 20
65.33955556881023
 30
0.0
 11
94.26423563648953
 21
64.80847955711009
 31
0.0
  0
LINE
  8
THIN
 10
94.26423563648953
 20
64.80847955711009
 30
0.0
 11
95.0
 21
64.33974596215562
 31
0.0
  0
LINE
  8
THIN
 10
95.0
 20
64.33974596215562
 30
0.0
 11
95.77381738259301
 21
63.9369221296335
 31
0.0
  0
LINE
  8
THIN
 10
95.77381738259301
 20
63.9369221296335
 30
0.0
 11
96.5797985667433
 21
63.60307379214092
 31
0.0
  0
LINE
  8
THIN
 10
96.5797985667433
 20
63.60307379214092
 30
0.0
 11
97.41180954897479
 21
63.34074173710932
 31
0.0
  0
LINE
  8
THIN
 10
97.41180954897479
 20
63.34074173710932
 30
0.0
 11
98.26351822333069
 21
63.15192246987792
 31
0.0
  0
LINE
  8
THIN
 10
98.26351822333069
 20
63.15192246987792
 30
0.0
 11
99.12844257252341
 21
63.03805301908255
 31
0.0
  0
LINE
  8
THIN
 10
99.12844257252341
 20
63.03805301908255
 30
0.0
 11
100.0
 21
63.0
 31
0.0
  0
LINE
  8
THIN
 10
100.0
 20
63.0
 30
0.0
 11
100.87155742747657
 21
63.03805301908255
 31
0.0
  0
LINE
  8
THIN
 10
100.87155742747657
 20
63.03805301908255
 30
0.0
 11
101.7364817766693
 21
63.15192246987792
 31
0.0
  0
LINE
  8
THIN
 10
101.7364817766693
 20
63.15192246987792
 30
0.0
 11
102.5881904510252
 21
63.34074173710931
 31
0.0
  0
LINE
  8
THIN
 10
102.5881904510252
 20
63.34074173710931
 30
0.0
 11
103.4202014332567
 21
63.60307379214092
 31
0.0
  0
LINE
  8
THIN
 10
103.4202014332567
 20
63.60307379214092
 30
0.0
 11
104.22618261740699
 21
63.9369221296335
 31
0.0
  0
LINE
  8
THIN
 10
104.22618261740699
 20
63.9369221296335
 30
0.0
 11
105.0
 21
64.33974596215562
 31
0.0
  0
LINE
  8
THIN
 10
105.0
 20
64.33974596215562
 30
0.0
 11
105.73576436351046
 21
64.80847955711008
 31
0.0
  0
LINE
  8
THIN
 10
105.73576436351046
 20
64.80847955711008
 30
0.0
 11
106.42787609686539
 21
65.33955556881023
 31
0.0
  0
LINE
  8
THIN
 10
106.42787609686539
 20
65.33955556881023
 30
0.0
 11
107.07106781186548
 21
65.92893218813452
 31
0.0
  0
LINE
  8
THIN
 10
107.07106781186548
 20
65.92893218813452
 30
0.0
 11
107.66044443118977
 21
66.57212390313461
 31
0.0
  0
LINE
  8
THIN
 10
107.66044443118977
 20
66.57212390313461
 30
0.0
 11
108.19152044288991
 21
67.26423563648953
 31
0.0
  0
LINE
  8
THIN
 10
108.19152044288991
 20
67.26423563648953
 30
0.0
 11
108.66025403784438
 21
68.0
 31
0.0
  0
LINE
  8
THIN
 10
108.66025403784438
 20
68.0
 30
0.0
 11
109.0630778703665
 21
68.77381738259301
 31
0.0
  0
LINE
  8
THIN
 10
109.0630778703665
 20
68.77381738259301
 30
0.0
 11
109.39692620785908
 21
69.5797985667433
 31
0.0
  0
LINE
  8
THIN
 10
109.39692620785908
 20
69.5797985667433
 30
0.0
 11
109.65925826289069
 21
70.41180954897479
 31
0.0
  0
LINE
  8
THIN
 10
109.65925826289069
 20
70.41180954897479
 30
0.0
 11
109.84807753012208
 21
71.26351822333069
 31
0.0
  0
LINE
  8
THIN
 10
109.84807753012208
 20
71.26351822333069
 30
0.0
 11
109.96194698091746
 21
72.12844257252341
 31
0.0
  0
LINE
  8
THIN
 10
109.96194698091746
 20
72.12844257252341
 30
0.0
 11
110.0
 21
73.0
 31
0.0
  0
LINE
  8
VISIBLE
 10
40.0
 20
96.0
 30
0.0
 11
160.0
 21
96.0
 31
0.0
  0
LINE
  8
VISIBLE
 10
40.0
 20
176.0
 30
0.0
 11
40.0
 21
96.0
 31
0.0
  0
LINE
  8
VISIBLE
 10
160.0
 20
96.0
 30
0.0
 11
160.0
 21
176.0
 31
0.0
  0
LINE
  8
VISIBLE
 10
160.0
 20
176.0
 30
0.0
 11
40.0
 21
176.0
 31
0.0
  0
LINE
  8
VISIBLE
 10
59.0
 20
111.0
 30
0.0
 11
58.9801231014616
 21
110.60172861361673
 31
0.0
  0
LINE
  8
VISIBLE
 10
58.9801231014616
 20
110.60172861361673
 30
0.0
 11
58.92068995139417
 21
110.2074154272024
 31
0.0
  0
LINE
  8
VISIBLE
 10
58.92068995139417
 20
110.2074154272024
 30
0.0
 11
58.82229122314456
 21
109.82097930235639
 31
0.0
  0
LINE
  8
VISIBLE
 10
58.82229122314456
 20
109.82097930235639
 30
0.0
 11
58.68590484748163
 21
109.44626081490122
 31
0.0
  0
LINE
  8
VISIBLE
 10
58.68590484748163
 20
109.44626081490122
 30
0.0
 11
58.51288629348092
 21
109.08698408551473
 31
0.0
  0
LINE
  8
VISIBLE
 10
58.51288629348092
 20
109.08698408551473
 30
0.0
 11
58.30495509726398
 21
108.7467197677455
 31
0.0
  0
LINE
  8
VISIBLE
 10
58.30495509726398
 20
108.7467197677455
 30
0.0
 11
58.064177772475915
 21
108.42884956125384
 31
0.0
  0
LINE
  8
VISIBLE
 10
58.064177772475915
 20
108.42884956125384
 30
0.0
 11
57.79294727234429
 21
108.13653260296113
 31
0.0
  0
LINE
  8
VISIBLE
 10
57.79294727234429
 20
108.13653260296113
 30
0.0
 11
57.49395920743493
 21
107.87267407012789
 31
0.0
  0
LINE
  8
VISIBLE
 10
57.49395920743493
 20
107.87267407012789
 30
0.0
 11
57.17018505546304
 21
107.63989630739691
 31
0.0
  0
LINE
  8
VISIBLE
 10
57.17018505546304
 20
107.63989630739691
 30
0.0
 11
56.82484262941266
 21
107.44051276475412
 31
0.0
  0
LINE
  8
VISIBLE
 10
56.82484262941266
 20
107.44051276475412
 30
0.0
 11
56.46136409746558
 21
107.27650500542319
 31
0.0
  0
LINE
  8
VISIBLE
 10
56.46136409746558
 20
107.27650500542319
 30
0.0
 11
56.08336187257202
 21
107.14950301219994
 31
0.0
  0
LINE
  8
VISIBLE
 10
56.08336187257202
 20
107.14950301219994
 30
0.0
 11
55.69459271066772
 21
107.06076898795116
 31
0.0
  0
LINE
  8
VISIBLE
 10
55.69459271066772
 20
107.06076898795116
 30
0.0
 11
55.2989203743457
 21
107.01118481127529
 31
0.0
  0
LINE
  8
VISIBLE
 10
55.2989203743457
 20
107.01118481127529
 30
0.0
 11
54.90027723304771
 21
107.00124327199674
 31
0.0
  0
LINE
  8
VISIBLE
 10
54.90027723304771
 20
107.00124327199674
 30
0.0
 11
54.50262518141006
 21
107.03104317359931
 31
0.0
  0
LINE
  8
VISIBLE
 10
54.50262518141006
 20
107.03104317359931
 30
0.0
 11
54.10991626417474
 21
107.10028835127271
 31
0.0
  0
LINE
  8
VISIBLE
 10
54.10991626417474
 20
107.10028835127271
 30
0.0
 11
53.726053398993265
 21
107.20829061533146
 31
0.0
  0
LINE
  8
VISIBLE
 10
53.726053398993265
 20
107.20829061533146
 30
0.0
 11
53.354851587477555
 21
107.3539765907533
 31
0.0
  0
LINE
  8
VISIBLE
 10
53.354851587477555
 20
107.3539765907533
 30
0.0
 11
53.0
 21
107.53589838486224
 31
0.0
  0
LINE
  8
VISIBLE
 10
53.0
 20
107.53589838486224
 30
0.0
 11
52.665025311060845
 21
107.75224797713658
 31
0.0
  0
LINE
  8
VISIBLE
 10
52.665025311060845
 20
107.75224797713658
 30
0.0
 11
52.35325664961256
 21
108.00087518812906
 31
0.0
  0
LINE
  8
VISIBLE
 10
52.35325664961256
 20
108.00087518812906
 30
0.0
 11
52.0677925126807
 21
108.27930904891632
 31
0.0
  0
LINE
  8
VISIBLE
 10
52.0677925126807
 20
108.27930904891632
 30
0.0
 11
51.81146997110831
 21
108.58478235869809
 31
0.0
  0
LINE
  8
VISIBLE
 10
51.81146997110831
 20
108.58478235869809
 30
0.0
 11
51.58683647347138
 21
108.91425918648201
 31
0.0
  0
LINE
  8
VISIBLE
 10
51.58683647347138
 20
108.91425918648201
 30
0.0
 11
51.396124528390324
 21
109.26446504352977
 31
0.0
  0
LINE
  8
VISIBLE
 10
51.396124528390324
 20
109.26446504352977
 30
0.0
 11
51.241229516856365
 21
109.63191942669732
 31
0.0
  0
LINE
  8
VISIBLE
 10
51.241229516856365
 20
109.63191942669732
 30
0.0
 11
51.12369085508369
 21
110.01297040923882
 31
0.0
  0
LINE
  8
VISIBLE
 10
51.12369085508369
 20
110.01297040923882
 30
0.0
 11
51.04467669509948
 21
110.4038309352953
 31
0.0
  0
LINE
  8
VISIBLE
 10
51.04467669509948
 20
110.4038309352953
 30
0.0
 11
51.00497231512431
 21
110.80061645735721
 31
0.0
  0
LINE
  8
VISIBLE
 10
51.00497231512431
 20
110.80061645735721
 30
0.0
 11
51.004972315124306
 21
111.19938354264278
 31
0.0
  0
LINE
  8
VISIBLE
 10
51.004972315124306
 20
111.19938354264278
 30
0.0
 11
51.04467669509948
 21
111.5961690647047
 31
0.0
  0
LINE
  8
VISIBLE
 10
51.04467669509948
 20
111.5961690647047
 30
0.0
 11
51.12369085508369
 21
111.98702959076117
 31
0.0
  0
LINE
  8
VISIBLE
 10
51.12369085508369
 20
111.98702959076117
 30
0.0
 11
51.241229516856365
 21
112.36808057330268
 31
0.0
  0
LINE
  8
VISIBLE
 10
51.241229516856365
 20
112.36808057330268
 30
0.0
 11
51.39612452839032
 21
112.73553495647023
 31
0.0
  0
LINE
  8
VISIBLE
 10
51.39612452839032
 20
112.73553495647023
 30
0.0
 11
51.58683647347137
 21
113.08574081351799
 31
0.0
  0
LINE
  8
VISIBLE
 10
51.58683647347137
 20
113.08574081351799
 30
0.0
 11
51.81146997110831
 21
113.41521764130191
 31
0.0
  0
LINE
  8
VISIBLE
 10
51.81146997110831
 20
113.41521764130191
 30
0.0
 11
52.06779251268069
 21
113.72069095108367
 31
0.0
  0
LINE
  8
VISIBLE
 10
52.06779251268069
 20
113.72069095108367
 30
0.0
 11
52.35325664961256
 21
113.99912481187093
 31
0.0
  0
LINE
  8
VISIBLE
 10
52.35325664961256
 20
113.99912481187093
 30
0.0
 11
52.66502531106083
 21
114.24775202286342
 31
0.0
  0
LINE
  8
VISIBLE
 10
52.66502531106083
 20
114.24775202286342
 30
0.0
 11
53.0
 21
114.46410161513775
 31
0.0
  0
LINE
  8
VISIBLE
 10
53.0
 20
114.46410161513775
 30
0.0
 11
53.354851587477555
 21
114.6460234092467
 31
0.0
  0
LINE
  8
VISIBLE
 10
53.354851587477555
 20
114.6460234092467
 30
0.0
 11
53.72605339899326
 21
114.79170938466852
 31
0.0
  0
LINE
  8
VISIBLE
 10
53.72605339899326
 20
114.79170938466852
 30
0.0
 11
54.10991626417474
 21
114.89971164872729
 31
0.0
  0
LINE
  8
VISIBLE
 10
54.10991626417474
 20
114.89971164872729
 30
0.0
 11
54.50262518141006
 21
114.96895682640069
 31
0.0
  0
LINE
  8
VISIBLE
 10
54.50262518141006
 20
114.96895682640069
 30
0.0
 11
54.90027723304771
 21
114.99875672800326
 31
0.0
  0
LINE
  8
VISIBLE
 10
54.90027723304771
 20
114.99875672800326
 30
0.0
 11
55.2989203743457
 21
114.98881518872471
 31
0.0
  0
LINE
  8
VISIBLE
 10
55.2989203743457
 20
114.98881518872471
 30
0.0
 11
55.69459271066773
 21
114.93923101204884
 31
0.0
  0
LINE
  8
VISIBLE
 10
55.69459271066773
 20
114.93923101204884
 30
0.0
 11
56.08336187257203
 21
114.85049698780004
 31
0.0
  0
LINE
  8
VISIBLE
 10
56.08336187257203
 20
114.85049698780004
 30
0.0
 11
56.46136409746559
 21
114.72349499457681
 31
0.0
  0
LINE
  8
VISIBLE
 10
56.46136409746559
 20
114.72349499457681
 30
0.0
 11
56.82484262941266
 21
114.55948723524587
 31
0.0
  0
LINE
  8
VISIBLE
 10
56.82484262941266
 20
114.55948723524587
 30
0.0
 11
57.17018505546305
 21
114.36010369260308
 31
0.0
  0
LINE
  8
VISIBLE
 10
57.17018505546305
 20
114.36010369260308
 30
0.0
 11
57.49395920743494
 21
114.12732592987211
 31
0.0
  0
LINE
  8
VISIBLE
 10
57.49395920743494
 20
114.12732592987211
 30
0.0
 11
57.79294727234431
 21
113.86346739703886
 31
0.0
  0
LINE
  8
VISIBLE
 10
57.79294727234431
 20
113.86346739703886
 30
0.0
 11
58.06417777247592
 21
113.57115043874614
 31
0.0
  0
LINE
  8
VISIBLE
 10
58.06417777247592
 20
113.57115043874614
 30
0.0
 11
58.304955097263985
 21
113.25328023225447
 31
0.0
  0
LINE
  8
VISIBLE
 10
58.304955097263985
 20
113.25328023225447
 30
0.0
 11
58.512886293480925
 21
112.91301591448526
 31
0.0
  0
LINE
  8
VISIBLE
 10
58.512886293480925
 20
112.91301591448526
 30
0.0
 11
58.68590484748164
 21
112.55373918509876
 31
0.0
  0
LINE
  8
VISIBLE
 10
58.68590484748164
 20
112.55373918509876
 30
0.0
 11
58.822291223144575
 21
112.1790206976436
 31
0.0
  0
LINE
  8
VISIBLE
 10
58.822291223144575
 20
112.1790206976436
 30
0.0
 11
58.92068995139418
 21
111.79258457279757
 31
0.0
  0
LINE
  8
VISIBLE
 10
58.92068995139418
 20
111.79258457279757
 30
0.0
 11
58.98012310146161
 21
111.39827138638324
 31
0.0
  0
LINE
  8
VISIBLE
 10
58.98012310146161
 20
111.39827138638324
 30
0.0
 11
59.0
 21
111.0
 31
0.0
  0
LINE
  8
VISIBLE
 10
149.0
 20
111.0
 30
0.0
 11
148.9801231014616
 21
110.60172861361673
 31
0.0
  0
LINE
  8
VISIBLE
 10
148.9801231014616
 20
110.60172861361673
 30
0.0
 11
148.9206899513942
 21
110.2074154272024
 31
0.0
  0
LINE
  8
VISIBLE
 10
148.9206899513942
 20
110.2074154272024
 30
0.0
 11
148.82229122314456
 21
109.82097930235639
 31
0.0
  0
LINE
  8
VISIBLE
 10
148.82229122314456
 20
109.82097930235639
 30
0.0
 11
148.68590484748162
 21
109.44626081490122
 31
0.0
  0
LINE
  8
VISIBLE
 10
148.68590484748162
 20
109.44626081490122
 30
0.0
 11
148.5128862934809
 21
109.08698408551473
 31
0.0
  0
LINE
  8
VISIBLE
 10
148.5128862934809
 20
109.08698408551473
 30
0.0
 11
148.30495509726398
 21
108.7467197677455
 31
0.0
  0
LINE
  8
VISIBLE
 10
148.30495509726398
 20
108.7467197677455
 30
0.0
 11
148.06417777247592
 21
108.42884956125384
 31
0.0
  0
LINE
  8
VISIBLE
 10
148.06417777247592
 20
108.42884956125384
 30
0.0
 11
147.7929472723443
 21
108.13653260296113
 31
0.0
  0
LINE
  8
VISIBLE
 10
147.7929472723443
 20
108.13653260296113
 30
0.0
 11
147.49395920743495
 21
107.87267407012789
 31
0.0
  0
LINE
  8
VISIBLE
 10
147.49395920743495
 20
107.87267407012789
 30
0.0
 11
147.17018505546304
 21
107.63989630739691
 31
0.0
  0
LINE
  8
VISIBLE
 10
147.17018505546304
 20
107.63989630739691
 30
0.0
 11
146.82484262941267
 21
107.44051276475412
 31
0.0
  0
LINE
  8
VISIBLE
 10
146.82484262941267
 20
107.44051276475412
 30
0.0
 11
146.46136409746558
 21
107.27650500542319
 31
0.0
  0
LINE
  8
VISIBLE
 10
146.46136409746558
 20
107.27650500542319
 30
0.0
 11
146.08336187257203
 21
107.14950301219994
 31
0.0
  0
LINE
  8
VISIBLE
 10
146.08336187257203
 20
107.14950301219994
 30
0.0
 11
145.69459271066773
 21
107.06076898795116
 31
0.0
  0
LINE
  8
VISIBLE
 10
145.69459271066773
 20
107.06076898795116
 30
0.0
 11
145.2989203743457
 21
107.01118481127529
 31
0.0
  0
LINE
  8
VISIBLE
 10
145.2989203743457
 20
107.01118481127529
 30
0.0
 11
144.90027723304772
 21
107.00124327199674
 31
0.0
  0
LINE
  8
VISIBLE
 10
144.90027723304772
 20
107.00124327199674
 30
0.0
 11
144.50262518141005
 21
107.03104317359931
 31
0.0
  0
LINE
  8
VISIBLE
 10
144.50262518141005
 20
107.03104317359931
 30
0.0
 11
144.10991626417473
 21
107.10028835127271
 31
0.0
  0
LINE
  8
VISIBLE
 10
144.10991626417473
 20
107.10028835127271
 30
0.0
 11
143.72605339899326
 21
107.20829061533146
 31
0.0
  0
LINE
  8
VISIBLE
 10
143.72605339899326
 20
107.20829061533146
 30
0.0
 11
143.35485158747755
 21
107.3539765907533
 31
0.0
  0
LINE
  8
VISIBLE
 10
143.35485158747755
 20
107.3539765907533
 30
0.0
 11
143.0
 21
107.53589838486224
 31
0.0
  0
LINE
  8
VISIBLE
 10
143.0
 20
107.53589838486224
 30
0.0
 11
142.66502531106084
 21
107.75224797713658
 31
0.0
  0
LINE
  8
VISIBLE
 10
142.66502531106084
 20
107.75224797713658
 30
0.0
 11
142.35325664961255
 21
108.00087518812906
 31
0.0
  0
LINE
  8
VISIBLE
 10
142.35325664961255
 20
108.00087518812906
 30
0.0
 11
142.06779251268068
 21
108.27930904891632
 31
0.0
  0
LINE
  8
VISIBLE
 10
142.06779251268068
 20
108.27930904891632
 30
0.0
 11
141.8114699711083
 21
108.58478235869809
 31
0.0
  0
LINE
  8
VISIBLE
 10
141.8114699711083
 20
108.58478235869809
 30
0.0
 11
141.58683647347138
 21
108.91425918648201
 31
0.0
  0
LINE
  8
VISIBLE
 10
141.58683647347138
 20
108.91425918648201
 30
0.0
 11
141.39612452839032
 21
109.26446504352977
 31
0.0
  0
LINE
  8
VISIBLE
 10
141.39612452839032
 20
109.26446504352977
 30
0.0
 11
141.24122951685638
 21
109.63191942669732
 31
0.0
  0
LINE
  8
VISIBLE
 10
141.24122951685638
 20
109.63191942669732
 30
0.0
 11
141.12369085508368
 21
110.01297040923882
 31
0.0
  0
LINE
  8
VISIBLE
 10
141.12369085508368
 20
110.01297040923882
 30
0.0
 11
141.0446766950995
 21
110.4038309352953
 31
0.0
  0
LINE
  8
VISIBLE
 10
141.0446766950995
 20
110.4038309352953
 30
0.0
 11
141.0049723151243
 21
110.80061645735721
 31
0.0
  0
LINE
  8
VISIBLE
 10
141.0049723151243
 20
110.80061645735721
 30
0.0
 11
141.0049723151243
 21
111.19938354264278
 31
0.0
  0
LINE
  8
VISIBLE
 10
141.0049723151243
 20
111.19938354264278
 30
0.0
 11
141.0446766950995
 21
111.5961690647047
 31
0.0
  0
LINE
  8
VISIBLE
 10
141.0446766950995
 20
111.5961690647047
 30
0.0
 11
141.12369085508368
 21
111.98702959076117
 31
0.0
  0
LINE
  8
VISIBLE
 10
141.12369085508368
 20
111.98702959076117
 30
0.0
 11
141.24122951685638
 21
112.36808057330268
 31
0.0
  0
LINE
  8
VISIBLE
 10
141.24122951685638
 20
112.36808057330268
 30
0.0
 11
141.39612452839032
 21
112.73553495647023
 31
0.0
  0
LINE
  8
VISIBLE
 10
141.39612452839032
 20
112.73553495647023
 30
0.0
 11
141.58683647347138
 21
113.08574081351799
 31
0.0
  0
LINE
  8
VISIBLE
 10
141.58683647347138
 20
113.08574081351799
 30
0.0
 11
141.8114699711083
 21
113.41521764130191
 31
0.0
  0
LINE
  8
VISIBLE
 10
141.8114699711083
 20
113.41521764130191
 30
0.0
 11
142.06779251268068
 21
113.72069095108367
 31
0.0
  0
LINE
  8
VISIBLE
 10
142.06779251268068
 20
113.72069095108367
 30
0.0
 11
142.35325664961255
 21
113.99912481187093
 31
0.0
  0
LINE
  8
VISIBLE
 10
142.35325664961255
 20
113.99912481187093
 30
0.0
 11
142.66502531106084
 21
114.24775202286342
 31
0.0
  0
LINE
  8
VISIBLE
 10
142.66502531106084
 20
114.24775202286342
 30
0.0
 11
143.0
 21
114.46410161513775
 31
0.0
  0
LINE
  8
VISIBLE
 10
143.0
 20
114.46410161513775
 30
0.0
 11
143.35485158747755
 21
114.6460234092467
 31
0.0
  0
LINE
  8
VISIBLE
 10
143.35485158747755
 20
114.6460234092467
 30
0.0
 11
143.72605339899326
 21
114.79170938466852
 31
0.0
  0
LINE
  8
VISIBLE
 10
143.72605339899326
 20
114.79170938466852
 30
0.0
 11
144.10991626417473
 21
114.89971164872729
 31
0.0
  0
LINE
  8
VISIBLE
 10
144.10991626417473
 20
114.89971164872729
 30
0.0
 11
144.50262518141005
 21
114.96895682640069
 31
0.0
  0
LINE
  8
VISIBLE
 10
144.50262518141005
 20
114.96895682640069
 30
0.0
 11
144.90027723304772
 21
114.99875672800326
 31
0.0
  0
LINE
  8
VISIBLE
 10
144.90027723304772
 20
114.99875672800326
 30
0.0
 11
145.2989203743457
 21
114.98881518872471
 31
0.0
  0
LINE
  8
VISIBLE
 10
145.2989203743457
 20
114.98881518872471
 30
0.0
 11
145.69459271066773
 21
114.93923101204884
 31
0.0
  0
LINE
  8
VISIBLE
 10
145.69459271066773
 20
114.93923101204884
 30
0.0
 11
146.08336187257203
 21
114.85049698780004
 31
0.0
  0
LINE
  8
VISIBLE
 10
146.08336187257203
 20
114.85049698780004
 30
0.0
 11
146.4613640974656
 21
114.72349499457681
 31
0.0
  0
LINE
  8
VISIBLE
 10
146.4613640974656
 20
114.72349499457681
 30
0.0
 11
146.82484262941267
 21
114.55948723524587
 31
0.0
  0
LINE
  8
VISIBLE
 10
146.82484262941267
 20
114.55948723524587
 30
0.0
 11
147.17018505546304
 21
114.36010369260308
 31
0.0
  0
LINE
  8
VISIBLE
 10
147.17018505546304
 20
114.36010369260308
 30
0.0
 11
147.49395920743495
 21
114.12732592987211
 31
0.0
  0
LINE
  8
VISIBLE
 10
147.49395920743495
 20
114.12732592987211
 30
0.0
 11
147.7929472723443
 21
113.86346739703886
 31
0.0
  0
LINE
  8
VISIBLE
 10
147.7929472723443
 20
113.86346739703886
 30
0.0
 11
148.06417777247594
 21
113.57115043874614
 31
0.0
  0
LINE
  8
VISIBLE
 10
148.06417777247594
 20
113.57115043874614
 30
0.0
 11
148.30495509726398
 21
113.25328023225447
 31
0.0
  0
LINE
  8
VISIBLE
 10
148.30495509726398
 20
113.25328023225447
 30
0.0
 11
148.5128862934809
 21
112.91301591448526
 31
0.0
  0
LINE
  8
VISIBLE
 10
148.5128862934809
 20
112.91301591448526
 30
0.0
 11
148.68590484748165
 21
112.55373918509876
 31
0.0
  0
LINE
  8
VISIBLE
 10
148.68590484748165
 20
112.55373918509876
 30
0.0
 11
148.8222912231446
 21
112.1790206976436
 31
0.0
  0
LINE
  8
VISIBLE
 10
148.8222912231446
 20
112.1790206976436
 30
0.0
 11
148.9206899513942
 21
111.79258457279757
 31
0.0
  0
LINE
  8
VISIBLE
 10
148.9206899513942
 20
111.79258457279757
 30
0.0
 11
148.98012310146163
 21
111.39827138638324
 31
0.0
  0
LINE
  8
VISIBLE
 10
148.98012310146163
 20
111.39827138638324
 30
0.0
 11
149.0
 21
111.0
 31
0.0
  0
LINE
  8
VISIBLE
 10
109.0
 20
136.0
 30
0.0
 11
108.95527697828861
 21
135.10388938063767
 31
0.0
  0
LINE
  8
VISIBLE
 10
108.95527697828861
 20
135.10388938063767
 30
0.0
 11
108.8215523906369
 21
134.21668471120543
 31
0.0
  0
LINE
  8
VISIBLE
 10
108.8215523906369
 20
134.21668471120543
 30
0.0
 11
108.60015525207527
 21
133.34720343030187
 31
0.0
  0
LINE
  8
VISIBLE
 10
108.60015525207527
 20
133.34720343030187
 30
0.0
 11
108.29328590683367
 21
132.50408683352777
 31
0.0
  0
LINE
  8
VISIBLE
 10
108.29328590683367
 20
132.50408683352777
 30
0.0
 11
107.90399416033206
 21
131.69571419240813
 31
0.0
  0
LINE
  8
VISIBLE
 10
107.90399416033206
 20
131.69571419240813
 30
0.0
 11
107.43614896884395
 21
130.9301194774274
 31
0.0
  0
LINE
  8
VISIBLE
 10
107.43614896884395
 20
130.9301194774274
 30
0.0
 11
106.8943999880708
 21
130.21491151282115
 31
0.0
  0
LINE
  8
VISIBLE
 10
106.8943999880708
 20
130.21491151282115
 30
0.0
 11
106.28413136277466
 21
129.55719835666252
 31
0.0
  0
LINE
  8
VISIBLE
 10
106.28413136277466
 20
129.55719835666252
 30
0.0
 11
105.6114082167286
 21
128.96351665778775
 31
0.0
  0
LINE
  8
VISIBLE
 10
105.6114082167286
 20
128.96351665778775
 30
0.0
 11
104.88291637479183
 21
128.43976669164306
 31
0.0
  0
LINE
  8
VISIBLE
 10
104.88291637479183
 20
128.43976669164306
 30
0.0
 11
104.10589591617847
 21
127.99115372069679
 31
0.0
  0
LINE
  8
VISIBLE
 10
104.10589591617847
 20
127.99115372069679
 30
0.0
 11
103.28806921929755
 21
127.62213626220216
 31
0.0
  0
LINE
  8
VISIBLE
 10
103.28806921929755
 20
127.62213626220216
 30
0.0
 11
102.43756421328705
 21
127.3363817774499
 31
0.0
  0
LINE
  8
VISIBLE
 10
102.43756421328705
 20
127.3363817774499
 30
0.0
 11
101.56283359900237
 21
127.13673022289012
 31
0.0
  0
LINE
  8
VISIBLE
 10
101.56283359900237
 20
127.13673022289012
 30
0.0
 11
100.67257084227782
 21
127.02516582536938
 31
0.0
  0
LINE
  8
VISIBLE
 10
100.67257084227782
 20
127.02516582536938
 30
0.0
 11
99.77562377435734
 21
127.00279736199266
 31
0.0
  0
LINE
  8
VISIBLE
 10
99.77562377435734
 20
127.00279736199266
 30
0.0
 11
98.88090665817263
 21
127.06984714059845
 31
0.0
  0
LINE
  8
VISIBLE
 10
98.88090665817263
 20
127.06984714059845
 30
0.0
 11
97.99731159439318
 21
127.22564879036358
 31
0.0
  0
LINE
  8
VISIBLE
 10
97.99731159439318
 20
127.22564879036358
 30
0.0
 11
97.13362014773485
 21
127.46865388449581
 31
0.0
  0
LINE
  8
VISIBLE
 10
97.13362014773485
 20
127.46865388449581
 30
0.0
 11
96.2984160718245
 21
127.79644732919493
 31
0.0
  0
LINE
  8
VISIBLE
 10
96.2984160718245
 20
127.79644732919493
 30
0.0
 11
95.5
 21
128.20577136594005
 31
0.0
  0
LINE
  8
VISIBLE
 10
95.5
 20
128.20577136594005
 30
0.0
 11
94.7463069498869
 21
128.6925579485573
 31
0.0
  0
LINE
  8
VISIBLE
 10
94.7463069498869
 20
128.6925579485573
 30
0.0
 11
94.04482746162827
 21
129.25196917329038
 31
0.0
  0
LINE
  8
VISIBLE
 10
94.04482746162827
 20
129.25196917329038
 30
0.0
 11
93.40253315353156
 21
129.87844536006173
 31
0.0
  0
LINE
  8
VISIBLE
 10
93.40253315353156
 20
129.87844536006173
 30
0.0
 11
92.8258074349937
 21
130.5657603070707
 31
0.0
  0
LINE
  8
VISIBLE
 10
92.8258074349937
 20
130.5657603070707
 30
0.0
 11
92.32038206531061
 21
131.3070831695845
 31
0.0
  0
LINE
  8
VISIBLE
 10
92.32038206531061
 20
131.3070831695845
 30
0.0
 11
91.89128018887823
 21
132.09504634794197
 31
0.0
  0
LINE
  8
VISIBLE
 10
91.89128018887823
 20
132.09504634794197
 30
0.0
 11
91.54276641292682
 21
132.92181871006898
 31
0.0
  0
LINE
  8
VISIBLE
 10
91.54276641292682
 20
132.92181871006898
 30
0.0
 11
91.2783044239383
 21
133.77918342078735
 31
0.0
  0
LINE
  8
VISIBLE
 10
91.2783044239383
 20
133.77918342078735
 30
0.0
 11
91.10052256397384
 21
134.6586196044144
 31
0.0
  0
LINE
  8
VISIBLE
 10
91.10052256397384
 20
134.6586196044144
 30
0.0
 11
91.0111877090297
 21
135.55138702905373
 31
0.0
  0
LINE
  8
VISIBLE
 10
91.0111877090297
 20
135.55138702905373
 30
0.0
 11
91.0111877090297
 21
136.44861297094627
 31
0.0
  0
LINE
  8
VISIBLE
 10
91.0111877090297
 20
136.44861297094627
 30
0.0
 11
91.10052256397384
 21
137.34138039558556
 31
0.0
  0
LINE
  8
VISIBLE
 10
91.10052256397384
 20
137.34138039558556
 30
0.0
 11
91.2783044239383
 21
138.22081657921262
 31
0.0
  0
LINE
  8
VISIBLE
 10
91.2783044239383
 20
138.22081657921262
 30
0.0
 11
91.54276641292682
 21
139.07818128993102
 31
0.0
  0
LINE
  8
VISIBLE
 10
91.54276641292682
 20
139.07818128993102
 30
0.0
 11
91.89128018887823
 21
139.904953652058
 31
0.0
  0
LINE
  8
VISIBLE
 10
91.89128018887823
 20
139.904953652058
 30
0.0
 11
92.32038206531058
 21
140.69291683041547
 31
0.0
  0
LINE
  8
VISIBLE
 10
92.32038206531058
 20
140.69291683041547
 30
0.0
 11
92.82580743499369
 21
141.43423969292928
 31
0.0
  0
LINE
  8
VISIBLE
 10
92.82580743499369
 20
141.43423969292928
 30
0.0
 11
93.40253315353155
 21
142.12155463993827
 31
0.0
  0
LINE
  8
VISIBLE
 10
93.40253315353155
 20
142.12155463993827
 30
0.0
 11
94.04482746162824
 21
142.7480308267096
 31
0.0
  0
LINE
  8
VISIBLE
 10
94.04482746162824
 20
142.7480308267096
 30
0.0
 11
94.74630694988687
 21
143.3074420514427
 31
0.0
  0
LINE
  8
VISIBLE
 10
94.74630694988687
 20
143.3074420514427
 30
0.0
 11
95.5
 21
143.79422863405995
 31
0.0
  0
LINE
  8
VISIBLE
 10
95.5
 20
143.79422863405995
 30
0.0
 11
96.29841607182449
 21
144.20355267080504
 31
0.0
  0
LINE
  8
VISIBLE
 10
96.29841607182449
 20
144.20355267080504
 30
0.0
 11
97.13362014773483
 21
144.5313461155042
 31
0.0
  0
LINE
  8
VISIBLE
 10
97.13362014773483
 20
144.5313461155042
 30
0.0
 11
97.99731159439317
 21
144.77435120963642
 31
0.0
  0
LINE
  8
VISIBLE
 10
97.99731159439317
 20
144.77435120963642
 30
0.0
 11
98.88090665817263
 21
144.93015285940155
 31
0.0
  0
LINE
  8
VISIBLE
 10
98.88090665817263
 20
144.93015285940155
 30
0.0
 11
99.77562377435734
 21
144.99720263800734
 31
0.0
  0
LINE
  8
VISIBLE
 10
99.77562377435734
 20
144.99720263800734
 30
0.0
 11
100.67257084227782
 21
144.97483417463062
 31
0.0
  0
LINE
  8
VISIBLE
 10
100.67257084227782
 20
144.97483417463062
 30
0.0
 11
101.56283359900239
 21
144.86326977710988
 31
0.0
  0
LINE
  8
VISIBLE
 10
101.56283359900239
 20
144.86326977710988
 30
0.0
 11
102.43756421328706
 21
144.6636182225501
 31
0.0
  0
LINE
  8
VISIBLE
 10
102.43756421328706
 20
144.6636182225501
 30
0.0
 11
103.28806921929757
 21
144.37786373779784
 31
0.0
  0
LINE
  8
VISIBLE
 10
103.28806921929757
 20
144.37786373779784
 30
0.0
 11
104.10589591617848
 21
144.0088462793032
 31
0.0
  0
LINE
  8
VISIBLE
 10
104.10589591617848
 20
144.0088462793032
 30
0.0
 11
104.88291637479186
 21
143.56023330835694
 31
0.0
  0
LINE
  8
VISIBLE
 10
104.88291637479186
 20
143.56023330835694
 30
0.0
 11
105.61140821672862
 21
143.03648334221225
 31
0.0
  0
LINE
  8
VISIBLE
 10
105.61140821672862
 20
143.03648334221225
 30
0.0
 11
106.28413136277467
 21
142.44280164333745
 31
0.0
  0
LINE
  8
VISIBLE
 10
106.28413136277467
 20
142.44280164333745
 30
0.0
 11
106.89439998807083
 21
141.78508848717883
 31
0.0
  0
LINE
  8
VISIBLE
 10
106.89439998807083
 20
141.78508848717883
 30
0.0
 11
107.43614896884398
 21
141.06988052257256
 31
0.0
  0
LINE
  8
VISIBLE
 10
107.43614896884398
 20
141.06988052257256
 30
0.0
 11
107.90399416033208
 21
140.30428580759184
 31
0.0
  0
LINE
  8
VISIBLE
 10
107.90399416033208
 20
140.30428580759184
 30
0.0
 11
108.29328590683369
 21
139.4959131664722
 31
0.0
  0
LINE
  8
VISIBLE
 10
108.29328590683369
 20
139.4959131664722
 30
0.0
 11
108.60015525207528
 21
138.6527965696981
 31
0.0
  0
LINE
  8
VISIBLE
 10
108.60015525207528
 20
138.6527965696981
 30
0.0
 11
108.82155239063691
 21
137.78331528879454
 31
0.0
  0
LINE
  8
VISIBLE
 10
108.82155239063691
 20
137.78331528879454
 30
0.0
 11
108.95527697828862
 21
136.89611061936228
 31
0.0
  0
LINE
  8
VISIBLE
 10
108.95527697828862
 20
136.89611061936228
 30
0.0
 11
109.0
 21
136.0
 31
0.0
  0
LINE
  8
VISIBLE
 10
59.0
 20
161.0
 30
0.0
 11
58.9801231014616
 21
160.60172861361673
 31
0.0
  0
LINE
  8
VISIBLE
 10
58.9801231014616
 20
160.60172861361673
 30
0.0
 11
58.92068995139417
 21
160.20741542720242
 31
0.0
  0
LINE
  8
VISIBLE
 10
58.92068995139417
 20
160.20741542720242
 30
0.0
 11
58.82229122314456
 21
159.8209793023564
 31
0.0
  0
LINE
  8
VISIBLE
 10
58.82229122314456
 20
159.8209793023564
 30
0.0
 11
58.68590484748163
 21
159.44626081490122
 31
0.0
  0
LINE
  8
VISIBLE
 10
58.68590484748163
 20
159.44626081490122
 30
0.0
 11
58.51288629348092
 21
159.08698408551473
 31
0.0
  0
LINE
  8
VISIBLE
 10
58.51288629348092
 20
159.08698408551473
 30
0.0
 11
58.30495509726398
 21
158.7467197677455
 31
0.0
  0
LINE
  8
VISIBLE
 10
58.30495509726398
 20
158.7467197677455
 30
0.0
 11
58.064177772475915
 21
158.42884956125386
 31
0.0
  0
LINE
  8
VISIBLE
 10
58.064177772475915
 20
158.42884956125386
 30
0.0
 11
57.79294727234429
 21
158.13653260296113
 31
0.0
  0
LINE
  8
VISIBLE
 10
57.79294727234429
 20
158.13653260296113
 30
0.0
 11
57.49395920743493
 21
157.87267407012789
 31
0.0
  0
LINE
  8
VISIBLE
 10
57.49395920743493
 20
157.87267407012789
 30
0.0
 11
57.17018505546304
 21
157.63989630739692
 31
0.0
  0
LINE
  8
VISIBLE
 10
57.17018505546304
 20
157.63989630739692
 30
0.0
 11
56.82484262941266
 21
157.44051276475412
 31
0.0
  0
LINE
  8
VISIBLE
 10
56.82484262941266
 20
157.44051276475412
 30
0.0
 11
56.46136409746558
 21
157.2765050054232
 31
0.0
  0
LINE
  8
VISIBLE
 10
56.46136409746558
 20
157.2765050054232
 30
0.0
 11
56.08336187257202
 21
157.14950301219994
 31
0.0
  0
LINE
  8
VISIBLE
 10
56.08336187257202
 20
157.14950301219994
 30
0.0
 11
55.69459271066772
 21
157.06076898795118
 31
0.0
  0
LINE
  8
VISIBLE
 10
55.69459271066772
 20
157.06076898795118
 30
0.0
 11
55.2989203743457
 21
157.01118481127529
 31
0.0
  0
LINE
  8
VISIBLE
 10
55.2989203743457
 20
157.01118481127529
 30
0.0
 11
54.90027723304771
 21
157.00124327199674
 31
0.0
  0
LINE
  8
VISIBLE
 10
54.90027723304771
 20
157.00124327199674
 30
0.0
 11
54.50262518141006
 21
157.0310431735993
 31
0.0
  0
LINE
  8
VISIBLE
 10
54.50262518141006
 20
157.0310431735993
 30
0.0
 11
54.10991626417474
 21
157.1002883512727
 31
0.0
  0
LINE
  8
VISIBLE
 10
54.10991626417474
 20
157.1002883512727
 30
0.0
 11
53.726053398993265
 21
157.20829061533146
 31
0.0
  0
LINE
  8
VISIBLE
 10
53.726053398993265
 20
157.20829061533146
 30
0.0
 11
53.354851587477555
 21
157.3539765907533
 31
0.0
  0
LINE
  8
VISIBLE
 10
53.354851587477555
 20
157.3539765907533
 30
0.0
 11
53.0
 21
157.53589838486224
 31
0.0
  0
LINE
  8
VISIBLE
 10
53.0
 20
157.53589838486224
 30
0.0
 11
52.665025311060845
 21
157.75224797713656
 31
0.0
  0
LINE
  8
VISIBLE
 10
52.665025311060845
 20
157.75224797713656
 30
0.0
 11
52.35325664961256
 21
158.00087518812904
 31
0.0
  0
LINE
  8
VISIBLE
 10
52.35325664961256
 20
158.00087518812904
 30
0.0
 11
52.0677925126807
 21
158.27930904891633
 31
0.0
  0
LINE
  8
VISIBLE
 10
52.0677925126807
 20
158.27930904891633
 30
0.0
 11
51.81146997110831
 21
158.58478235869808
 31
0.0
  0
LINE
  8
VISIBLE
 10
51.81146997110831
 20
158.58478235869808
 30
0.0
 11
51.58683647347138
 21
158.914259186482
 31
0.0
  0
LINE
  8
VISIBLE
 10
51.58683647347138
 20
158.914259186482
 30
0.0
 11
51.396124528390324
 21
159.26446504352975
 31
0.0
  0
LINE
  8
VISIBLE
 10
51.396124528390324
 20
159.26446504352975
 30
0.0
 11
51.241229516856365
 21
159.63191942669732
 31
0.0
  0
LINE
  8
VISIBLE
 10
51.241229516856365
 20
159.63191942669732
 30
0.0
 11
51.12369085508369
 21
160.01297040923882
 31
0.0
  0
LINE
  8
VISIBLE
 10
51.12369085508369
 20
160.01297040923882
 30
0.0
 11
51.04467669509948
 21
160.4038309352953
 31
0.0
  0
LINE
  8
VISIBLE
 10
51.04467669509948
 20
160.4038309352953
 30
0.0
 11
51.00497231512431
 21
160.8006164573572
 31
0.0
  0
LINE
  8
VISIBLE
 10
51.00497231512431
 20
160.8006164573572
 30
0.0
 11
51.004972315124306
 21
161.19938354264278
 31
0.0
  0
LINE
  8
VISIBLE
 10
51.004972315124306
 20
161.19938354264278
 30
0.0
 11
51.04467669509948
 21
161.5961690647047
 31
0.0
  0
LINE
  8
VISIBLE
 10
51.04467669509948
 20
161.5961690647047
 30
0.0
 11
51.12369085508369
 21
161.98702959076115
 31
0.0
  0
LINE
  8
VISIBLE
 10
51.12369085508369
 20
161.98702959076115
 30
0.0
 11
51.241229516856365
 21
162.36808057330268
 31
0.0
  0
LINE
  8
VISIBLE
 10
51.241229516856365
 20
162.36808057330268
 30
0.0
 11
51.39612452839032
 21
162.73553495647025
 31
0.0
  0
LINE
  8
VISIBLE
 10
51.39612452839032
 20
162.73553495647025
 30
0.0
 11
51.58683647347137
 21
163.085740813518
 31
0.0
  0
LINE
  8
VISIBLE
 10
51.58683647347137
 20
163.085740813518
 30
0.0
 11
51.81146997110831
 21
163.41521764130192
 31
0.0
  0
LINE
  8
VISIBLE
 10
51.81146997110831
 20
163.41521764130192
 30
0.0
 11
52.06779251268069
 21
163.72069095108367
 31
0.0
  0
LINE
  8
VISIBLE
 10
52.06779251268069
 20
163.72069095108367
 30
0.0
 11
52.35325664961256
 21
163.99912481187093
 31
0.0
  0
LINE
  8
VISIBLE
 10
52.35325664961256
 20
163.99912481187093
 30
0.0
 11
52.66502531106083
 21
164.24775202286344
 31
0.0
  0
LINE
  8
VISIBLE
 10
52.66502531106083
 20
164.24775202286344
 30
0.0
 11
53.0
 21
164.46410161513774
 31
0.0
  0
LINE
  8
VISIBLE
 10
53.0
 20
164.46410161513774
 30
0.0
 11
53.354851587477555
 21
164.6460234092467
 31
0.0
  0
LINE
  8
VISIBLE
 10
53.354851587477555
 20
164.6460234092467
 30
0.0
 11
53.72605339899326
 21
164.79170938466854
 31
0.0
  0
LINE
  8
VISIBLE
 10
53.72605339899326
 20
164.79170938466854
 30
0.0
 11
54.10991626417474
 21
164.8997116487273
 31
0.0
  0
LINE
  8
VISIBLE
 10
54.10991626417474
 20
164.8997116487273
 30
0.0
 11
54.50262518141006
 21
164.9689568264007
 31
0.0
  0
LINE
  8
VISIBLE
 10
54.50262518141006
 20
164.9689568264007
 30
0.0
 11
54.90027723304771
 21
164.99875672800326
 31
0.0
  0
LINE
  8
VISIBLE
 10
54.90027723304771
 20
164.99875672800326
 30
0.0
 11
55.2989203743457
 21
164.98881518872471
 31
0.0
  0
LINE
  8
VISIBLE
 10
55.2989203743457
 20
164.98881518872471
 30
0.0
 11
55.69459271066773
 21
164.93923101204882
 31
0.0
  0
LINE
  8
VISIBLE
 10
55.69459271066773
 20
164.93923101204882
 30
0.0
 11
56.08336187257203
 21
164.85049698780006
 31
0.0
  0
LINE
  8
VISIBLE
 10
56.08336187257203
 20
164.85049698780006
 30
0.0
 11
56.46136409746559
 21
164.7234949945768
 31
0.0
  0
LINE
  8
VISIBLE
 10
56.46136409746559
 20
164.7234949945768
 30
0.0
 11
56.82484262941266
 21
164.55948723524585
 31
0.0
  0
LINE
  8
VISIBLE
 10
56.82484262941266
 20
164.55948723524585
 30
0.0
 11
57.17018505546305
 21
164.36010369260308
 31
0.0
  0
LINE
  8
VISIBLE
 10
57.17018505546305
 20
164.36010369260308
 30
0.0
 11
57.49395920743494
 21
164.12732592987211
 31
0.0
  0
LINE
  8
VISIBLE
 10
57.49395920743494
 20
164.12732592987211
 30
0.0
 11
57.79294727234431
 21
163.86346739703885
 31
0.0
  0
LINE
  8
VISIBLE
 10
57.79294727234431
 20
163.86346739703885
 30
0.0
 11
58.06417777247592
 21
163.57115043874614
 31
0.0
  0
LINE
  8
VISIBLE
 10
58.06417777247592
 20
163.57115043874614
 30
0.0
 11
58.304955097263985
 21
163.25328023225447
 31
0.0
  0
LINE
  8
VISIBLE
 10
58.304955097263985
 20
163.25328023225447
 30
0.0
 11
58.512886293480925
 21
162.91301591448524
 31
0.0
  0
LINE
  8
VISIBLE
 10
58.512886293480925
 20
162.91301591448524
 30
0.0
 11
58.68590484748164
 21
162.55373918509878
 31
0.0
  0
LINE
  8
VISIBLE
 10
58.68590484748164
 20
162.55373918509878
 30
0.0
 11
58.822291223144575
 21
162.17902069764358
 31
0.0
  0
LINE
  8
VISIBLE
 10
58.822291223144575
 20
162.17902069764358
 30
0.0
 11
58.92068995139418
 21
161.79258457279758
 31
0.0
  0
LINE
  8
VISIBLE
 10
58.92068995139418
 20
161.79258457279758
 30
0.0
 11
58.98012310146161
 21
161.39827138638324
 31
0.0
  0
LINE
  8
VISIBLE
 10
58.98012310146161
 20
161.39827138638324
 30
0.0
 11
59.0
 21
161.0
 31
0.0
  0
LINE
  8
VISIBLE
 10
149.0
 20
161.0
 30
0.0
 11
148.9801231014616
 21
160.60172861361673
 31
0.0
  0
LINE
  8
VISIBLE
 10
148.9801231014616
 20
160.60172861361673
 30
0.0
 11
148.9206899513942
 21
160.20741542720242
 31
0.0
  0
LINE
  8
VISIBLE
 10
148.9206899513942
 20
160.20741542720242
 30
0.0
 11
148.82229122314456
 21
159.8209793023564
 31
0.0
  0
LINE
  8
VISIBLE
 10
148.82229122314456
 20
159.8209793023564
 30
0.0
 11
148.68590484748162
 21
159.44626081490122
 31
0.0
  0
LINE
  8
VISIBLE
 10
148.68590484748162
 20
159.44626081490122
 30
0.0
 11
148.5128862934809
 21
159.08698408551473
 31
0.0
  0
LINE
  8
VISIBLE
 10
148.5128862934809
 20
159.08698408551473
 30
0.0
 11
148.30495509726398
 21
158.7467197677455
 31
0.0
  0
LINE
  8
VISIBLE
 10
148.30495509726398
 20
158.7467197677455
 30
0.0
 11
148.06417777247592
 21
158.42884956125386
 31
0.0
  0
LINE
  8
VISIBLE
 10
148.06417777247592
 20
158.42884956125386
 30
0.0
 11
147.7929472723443
 21
158.13653260296113
 31
0.0
  0
LINE
  8
VISIBLE
 10
147.7929472723443
 20
158.13653260296113
 30
0.0
 11
147.49395920743495
 21
157.87267407012789
 31
0.0
  0
LINE
  8
VISIBLE
 10
147.49395920743495
 20
157.87267407012789
 30
0.0
 11
147.17018505546304
 21
157.63989630739692
 31
0.0
  0
LINE
  8
VISIBLE
 10
147.17018505546304
 20
157.63989630739692
 30
0.0
 11
146.82484262941267
 21
157.44051276475412
 31
0.0
  0
LINE
  8
VISIBLE
 10
146.82484262941267
 20
157.44051276475412
 30
0.0
 11
146.46136409746558
 21
157.2765050054232
 31
0.0
  0
LINE
  8
VISIBLE
 10
146.46136409746558
 20
157.2765050054232
 30
0.0
 11
146.08336187257203
 21
157.14950301219994
 31
0.0
  0
LINE
  8
VISIBLE
 10
146.08336187257203
 20
157.14950301219994
 30
0.0
 11
145.69459271066773
 21
157.06076898795118
 31
0.0
  0
LINE
  8
VISIBLE
 10
145.69459271066773
 20
157.06076898795118
 30
0.0
 11
145.2989203743457
 21
157.01118481127529
 31
0.0
  0
LINE
  8
VISIBLE
 10
145.2989203743457
 20
157.01118481127529
 30
0.0
 11
144.90027723304772
 21
157.00124327199674
 31
0.0
  0
LINE
  8
VISIBLE
 10
144.90027723304772
 20
157.00124327199674
 30
0.0
 11
144.50262518141005
 21
157.0310431735993
 31
0.0
  0
LINE
  8
VISIBLE
 10
144.50262518141005
 20
157.0310431735993
 30
0.0
 11
144.10991626417473
 21
157.1002883512727
 31
0.0
  0
LINE
  8
VISIBLE
 10
144.10991626417473
 20
157.1002883512727
 30
0.0
 11
143.72605339899326
 21
157.20829061533146
 31
0.0
  0
LINE
  8
VISIBLE
 10
143.72605339899326
 20
157.20829061533146
 30
0.0
 11
143.35485158747755
 21
157.3539765907533
 31
0.0
  0
LINE
  8
VISIBLE
 10
143.35485158747755
 20
157.3539765907533
 30
0.0
 11
143.0
 21
157.53589838486224
 31
0.0
  0
LINE
  8
VISIBLE
 10
143.0
 20
157.53589838486224
 30
0.0
 11
142.66502531106084
 21
157.75224797713656
 31
0.0
  0
LINE
  8
VISIBLE
 10
142.66502531106084
 20
157.75224797713656
 30
0.0
 11
142.35325664961255
 21
158.00087518812904
 31
0.0
  0
LINE
  8
VISIBLE
 10
142.35325664961255
 20
158.00087518812904
 30
0.0
 11
142.06779251268068
 21
158.27930904891633
 31
0.0
  0
LINE
  8
VISIBLE
 10
142.06779251268068
 20
158.27930904891633
 30
0.0
 11
141.8114699711083
 21
158.58478235869808
 31
0.0
  0
LINE
  8
VISIBLE
 10
141.8114699711083
 20
158.58478235869808
 30
0.0
 11
141.58683647347138
 21
158.914259186482
 31
0.0
  0
LINE
  8
VISIBLE
 10
141.58683647347138
 20
158.914259186482
 30
0.0
 11
141.39612452839032
 21
159.26446504352975
 31
0.0
  0
LINE
  8
VISIBLE
 10
141.39612452839032
 20
159.26446504352975
 30
0.0
 11
141.24122951685638
 21
159.63191942669732
 31
0.0
  0
LINE
  8
VISIBLE
 10
141.24122951685638
 20
159.63191942669732
 30
0.0
 11
141.12369085508368
 21
160.01297040923882
 31
0.0
  0
LINE
  8
VISIBLE
 10
141.12369085508368
 20
160.01297040923882
 30
0.0
 11
141.0446766950995
 21
160.4038309352953
 31
0.0
  0
LINE
  8
VISIBLE
 10
141.0446766950995
 20
160.4038309352953
 30
0.0
 11
141.0049723151243
 21
160.8006164573572
 31
0.0
  0
LINE
  8
VISIBLE
 10
141.0049723151243
 20
160.8006164573572
 30
0.0
 11
141.0049723151243
 21
161.19938354264278
 31
0.0
  0
LINE
  8
VISIBLE
 10
141.0049723151243
 20
161.19938354264278
 30
0.0
 11
141.0446766950995
 21
161.5961690647047
 31
0.0
  0
LINE
  8
VISIBLE
 10
141.0446766950995
 20
161.5961690647047
 30
0.0
 11
141.12369085508368
 21
161.98702959076115
 31
0.0
  0
LINE
  8
VISIBLE
 10
141.12369085508368
 20
161.98702959076115
 30
0.0
 11
141.24122951685638
 21
162.36808057330268
 31
0.0
  0
LINE
  8
VISIBLE
 10
141.24122951685638
 20
162.36808057330268
 30
0.0
 11
141.39612452839032
 21
162.73553495647025
 31
0.0
  0
LINE
  8
VISIBLE
 10
141.39612452839032
 20
162.73553495647025
 30
0.0
 11
141.58683647347138
 21
163.085740813518
 31
0.0
  0
LINE
  8
VISIBLE
 10
141.58683647347138
 20
163.085740813518
 30
0.0
 11
141.8114699711083
 21
163.41521764130192
 31
0.0
  0
LINE
  8
VISIBLE
 10
141.8114699711083
 20
163.41521764130192
 30
0.0
 11
142.06779251268068
 21
163.72069095108367
 31
0.0
  0
LINE
  8
VISIBLE
 10
142.06779251268068
 20
163.72069095108367
 30
0.0
 11
142.35325664961255
 21
163.99912481187093
 31
0.0
  0
LINE
  8
VISIBLE
 10
142.35325664961255
 20
163.99912481187093
 30
0.0
 11
142.66502531106084
 21
164.24775202286344
 31
0.0
  0
LINE
  8
VISIBLE
 10
142.66502531106084
 20
164.24775202286344
 30
0.0
 11
143.0
 21
164.46410161513774
 31
0.0
  0
LINE
  8
VISIBLE
 10
143.0
 20
164.46410161513774
 30
0.0
 11
143.35485158747755
 21
164.6460234092467
 31
0.0
  0
LINE
  8
VISIBLE
 10
143.35485158747755
 20
164.6460234092467
 30
0.0
 11
143.72605339899326
 21
164.79170938466854
 31
0.0
  0
LINE
  8
VISIBLE
 10
143.72605339899326
 20
164.79170938466854
 30
0.0
 11
144.10991626417473
 21
164.8997116487273
 31
0.0
  0
LINE
  8
VISIBLE
 10
144.10991626417473
 20
164.8997116487273
 30
0.0
 11
144.50262518141005
 21
164.9689568264007
 31
0.0
  0
LINE
  8
VISIBLE
 10
144.50262518141005
 20
164.9689568264007
 30
0.0
 11
144.90027723304772
 21
164.99875672800326
 31
0.0
  0
LINE
  8
VISIBLE
 10
144.90027723304772
 20
164.99875672800326
 30
0.0
 11
145.2989203743457
 21
164.98881518872471
 31
0.0
  0
LINE
  8
VISIBLE
 10
145.2989203743457
 20
164.98881518872471
 30
0.0
 11
145.69459271066773
 21
164.93923101204882
 31
0.0
  0
LINE
  8
VISIBLE
 10
145.69459271066773
 20
164.93923101204882
 30
0.0
 11
146.08336187257203
 21
164.85049698780006
 31
0.0
  0
LINE
  8
VISIBLE
 10
146.08336187257203
 20
164.85049698780006
 30
0.0
 11
146.4613640974656
 21
164.7234949945768
 31
0.0
  0
LINE
  8
VISIBLE
 10
146.4613640974656
 20
164.7234949945768
 30
0.0
 11
146.82484262941267
 21
164.55948723524585
 31
0.0
  0
LINE
  8
VISIBLE
 10
146.82484262941267
 20
164.55948723524585
 30
0.0
 11
147.17018505546304
 21
164.36010369260308
 31
0.0
  0
LINE
  8
VISIBLE
 10
147.17018505546304
 20
164.36010369260308
 30
0.0
 11
147.49395920743495
 21
164.12732592987211
 31
0.0
  0
LINE
  8
VISIBLE
 10
147.49395920743495
 20
164.12732592987211
 30
0.0
 11
147.7929472723443
 21
163.86346739703885
 31
0.0
  0
LINE
  8
VISIBLE
 10
147.7929472723443
 20
163.86346739703885
 30
0.0
 11
148.06417777247594
 21
163.57115043874614
 31
0.0
  0
LINE
  8
VISIBLE
 10
148.06417777247594
 20
163.57115043874614
 30
0.0
 11
148.30495509726398
 21
163.25328023225447
 31
0.0
  0
LINE
  8
VISIBLE
 10
148.30495509726398
 20
163.25328023225447
 30
0.0
 11
148.5128862934809
 21
162.91301591448524
 31
0.0
  0
LINE
  8
VISIBLE
 10
148.5128862934809
 20
162.91301591448524
 30
0.0
 11
148.68590484748165
 21
162.55373918509878
 31
0.0
  0
LINE
  8
VISIBLE
 10
148.68590484748165
 20
162.55373918509878
 30
0.0
 11
148.8222912231446
 21
162.17902069764358
 31
0.0
  0
LINE
  8
VISIBLE
 10
148.8222912231446
 20
162.17902069764358
 30
0.0
 11
148.9206899513942
 21
161.79258457279758
 31
0.0
  0
LINE
  8
VISIBLE
 10
148.9206899513942
 20
161.79258457279758
 30
0.0
 11
148.98012310146163
 21
161.39827138638324
 31
0.0
  0
LINE
  8
VISIBLE
 10
148.98012310146163
 20
161.39827138638324
 30
0.0
 11
149.0
 21
161.0
 31
0.0
  0
LINE
  8
VISIBLE
 10
105.0
 20
136.0
 30
0.0
 11
104.97515387682701
 21
135.5021607670209
 31
0.0
  0
LINE
  8
VISIBLE
 10
104.97515387682701
 20
135.5021607670209
 30
0.0
 11
104.90086243924272
 21
135.009269284003
 31
0.0
  0
LINE
  8
VISIBLE
 10
104.90086243924272
 20
135.009269284003
 30
0.0
 11
104.77786402893071
 21
134.52622412794548
 31
0.0
  0
LINE
  8
VISIBLE
 10
104.77786402893071
 20
134.52622412794548
 30
0.0
 11
104.60738105935204
 21
134.05782601862654
 31
0.0
  0
LINE
  8
VISIBLE
 10
104.60738105935204
 20
134.05782601862654
 30
0.0
 11
104.39110786685114
 21
133.6087301068934
 31
0.0
  0
LINE
  8
VISIBLE
 10
104.39110786685114
 20
133.6087301068934
 30
0.0
 11
104.13119387157997
 21
133.1833997096819
 31
0.0
  0
LINE
  8
VISIBLE
 10
104.13119387157997
 20
133.1833997096819
 30
0.0
 11
103.83022221559489
 21
132.78606195156732
 31
0.0
  0
LINE
  8
VISIBLE
 10
103.83022221559489
 20
132.78606195156732
 30
0.0
 11
103.49118409043037
 21
132.4206657537014
 31
0.0
  0
LINE
  8
VISIBLE
 10
103.49118409043037
 20
132.4206657537014
 30
0.0
 11
103.11744900929367
 21
132.09084258765984
 31
0.0
  0
LINE
  8
VISIBLE
 10
103.11744900929367
 20
132.09084258765984
 30
0.0
 11
102.7127313193288
 21
131.79987038424613
 31
0.0
  0
LINE
  8
VISIBLE
 10
102.7127313193288
 20
131.79987038424613
 30
0.0
 11
102.28105328676583
 21
131.55064095594264
 31
0.0
  0
LINE
  8
VISIBLE
 10
102.28105328676583
 20
131.55064095594264
 30
0.0
 11
101.82670512183198
 21
131.34563125677897
 31
0.0
  0
LINE
  8
VISIBLE
 10
101.82670512183198
 20
131.34563125677897
 30
0.0
 11
101.35420234071503
 21
131.18687876524996
 31
0.0
  0
LINE
  8
VISIBLE
 10
101.35420234071503
 20
131.18687876524996
 30
0.0
 11
100.86824088833465
 21
131.07596123493897
 31
0.0
  0
LINE
  8
VISIBLE
 10
100.86824088833465
 20
131.07596123493897
 30
0.0
 11
100.37365046793212
 21
131.0139810140941
 31
0.0
  0
LINE
  8
VISIBLE
 10
100.37365046793212
 20
131.0139810140941
 30
0.0
 11
99.87534654130964
 21
131.00155408999592
 31
0.0
  0
LINE
  8
VISIBLE
 10
99.87534654130964
 20
131.00155408999592
 30
0.0
 11
99.37828147676257
 21
131.03880396699913
 31
0.0
  0
LINE
  8
VISIBLE
 10
99.37828147676257
 20
131.03880396699913
 30
0.0
 11
98.88739533021842
 21
131.12536043909088
 31
0.0
  0
LINE
  8
VISIBLE
 10
98.88739533021842
 20
131.12536043909088
 30
0.0
 11
98.40756674874157
 21
131.26036326916434
 31
0.0
  0
LINE
  8
VISIBLE
 10
98.40756674874157
 20
131.26036326916434
 30
0.0
 11
97.94356448434695
 21
131.44247073844164
 31
0.0
  0
LINE
  8
VISIBLE
 10
97.94356448434695
 20
131.44247073844164
 30
0.0
 11
97.5
 21
131.6698729810778
 31
0.0
  0
LINE
  8
VISIBLE
 10
97.5
 20
131.6698729810778
 30
0.0
 11
97.08128163882606
 21
131.94030997142073
 31
0.0
  0
LINE
  8
VISIBLE
 10
97.08128163882606
 20
131.94030997142073
 30
0.0
 11
96.6915708120157
 21
132.25109398516133
 31
0.0
  0
LINE
  8
VISIBLE
 10
96.6915708120157
 20
132.25109398516133
 30
0.0
 11
96.33474064085087
 21
132.5991363111454
 31
0.0
  0
LINE
  8
VISIBLE
 10
96.33474064085087
 20
132.5991363111454
 30
0.0
 11
96.0143374638854
 21
132.9809779483726
 31
0.0
  0
LINE
  8
VISIBLE
 10
96.0143374638854
 20
132.9809779483726
 30
0.0
 11
95.73354559183923
 21
133.39282398310252
 31
0.0
  0
LINE
  8
VISIBLE
 10
95.73354559183923
 20
133.39282398310252
 30
0.0
 11
95.49515566048791
 21
133.8305813044122
 31
0.0
  0
LINE
  8
VISIBLE
 10
95.49515566048791
 20
133.8305813044122
 30
0.0
 11
95.30153689607046
 21
134.28989928337165
 31
0.0
  0
LINE
  8
VISIBLE
 10
95.30153689607046
 20
134.28989928337165
 30
0.0
 11
95.15461356885461
 21
134.76621301154853
 31
0.0
  0
LINE
  8
VISIBLE
 10
95.15461356885461
 20
134.76621301154853
 30
0.0
 11
95.05584586887436
 21
135.25478866911914
 31
0.0
  0
LINE
  8
VISIBLE
 10
95.05584586887436
 20
135.25478866911914
 30
0.0
 11
95.00621539390539
 21
135.7507705716965
 31
0.0
  0
LINE
  8
VISIBLE
 10
95.00621539390539
 20
135.7507705716965
 30
0.0
 11
95.00621539390539
 21
136.24922942830347
 31
0.0
  0
LINE
  8
VISIBLE
 10
95.00621539390539
 20
136.24922942830347
 30
0.0
 11
95.05584586887436
 21
136.74521133088086
 31
0.0
  0
LINE
  8
VISIBLE
 10
95.05584586887436
 20
136.74521133088086
 30
0.0
 11
95.15461356885461
 21
137.23378698845147
 31
0.0
  0
LINE
  8
VISIBLE
 10
95.15461356885461
 20
137.23378698845147
 30
0.0
 11
95.30153689607046
 21
137.71010071662835
 31
0.0
  0
LINE
  8
VISIBLE
 10
95.30153689607046
 20
137.71010071662835
 30
0.0
 11
95.49515566048791
 21
138.16941869558778
 31
0.0
  0
LINE
  8
VISIBLE
 10
95.49515566048791
 20
138.16941869558778
 30
0.0
 11
95.73354559183922
 21
138.60717601689748
 31
0.0
  0
LINE
  8
VISIBLE
 10
95.73354559183922
 20
138.60717601689748
 30
0.0
 11
96.01433746388538
 21
139.0190220516274
 31
0.0
  0
LINE
  8
VISIBLE
 10
96.01433746388538
 20
139.0190220516274
 30
0.0
 11
96.33474064085087
 21
139.4008636888546
 31
0.0
  0
LINE
  8
VISIBLE
 10
96.33474064085087
 20
139.4008636888546
 30
0.0
 11
96.6915708120157
 21
139.74890601483867
 31
0.0
  0
LINE
  8
VISIBLE
 10
96.6915708120157
 20
139.74890601483867
 30
0.0
 11
97.08128163882604
 21
140.05969002857927
 31
0.0
  0
LINE
  8
VISIBLE
 10
97.08128163882604
 20
140.05969002857927
 30
0.0
 11
97.5
 21
140.33012701892218
 31
0.0
  0
LINE
  8
VISIBLE
 10
97.5
 20
140.33012701892218
 30
0.0
 11
97.94356448434694
 21
140.55752926155836
 31
0.0
  0
LINE
  8
VISIBLE
 10
97.94356448434694
 20
140.55752926155836
 30
0.0
 11
98.40756674874157
 21
140.73963673083566
 31
0.0
  0
LINE
  8
VISIBLE
 10
98.40756674874157
 20
140.73963673083566
 30
0.0
 11
98.88739533021842
 21
140.87463956090912
 31
0.0
  0
LINE
  8
VISIBLE
 10
98.88739533021842
 20
140.87463956090912
 30
0.0
 11
99.37828147676257
 21
140.96119603300087
 31
0.0
  0
LINE
  8
VISIBLE
 10
99.37828147676257
 20
140.96119603300087
 30
0.0
 11
99.87534654130964
 21
140.99844591000408
 31
0.0
  0
LINE
  8
VISIBLE
 10
99.87534654130964
 20
140.99844591000408
 30
0.0
 11
100.37365046793212
 21
140.9860189859059
 31
0.0
  0
LINE
  8
VISIBLE
 10
100.37365046793212
 20
140.9860189859059
 30
0.0
 11
100.86824088833467
 21
140.92403876506103
 31
0.0
  0
LINE
  8
VISIBLE
 10
100.86824088833467
 20
140.92403876506103
 30
0.0
 11
101.35420234071503
 21
140.81312123475004
 31
0.0
  0
LINE
  8
VISIBLE
 10
101.35420234071503
 20
140.81312123475004
 30
0.0
 11
101.82670512183199
 21
140.65436874322103
 31
0.0
  0
LINE
  8
VISIBLE
 10
101.82670512183199
 20
140.65436874322103
 30
0.0
 11
102.28105328676583
 21
140.44935904405733
 31
0.0
  0
LINE
  8
VISIBLE
 10
102.28105328676583
 20
140.44935904405733
 30
0.0
 11
102.71273131932881
 21
140.20012961575384
 31
0.0
  0
LINE
  8
VISIBLE
 10
102.71273131932881
 20
140.20012961575384
 30
0.0
 11
103.11744900929368
 21
139.90915741234014
 31
0.0
  0
LINE
  8
VISIBLE
 10
103.11744900929368
 20
139.90915741234014
 30
0.0
 11
103.49118409043038
 21
139.57933424629857
 31
0.0
  0
LINE
  8
VISIBLE
 10
103.49118409043038
 20
139.57933424629857
 30
0.0
 11
103.8302222155949
 21
139.21393804843268
 31
0.0
  0
LINE
  8
VISIBLE
 10
103.8302222155949
 20
139.21393804843268
 30
0.0
 11
104.13119387157998
 21
138.8166002903181
 31
0.0
  0
LINE
  8
VISIBLE
 10
104.13119387157998
 20
138.8166002903181
 30
0.0
 11
104.39110786685116
 21
138.39126989310657
 31
0.0
  0
LINE
  8
VISIBLE
 10
104.39110786685116
 20
138.39126989310657
 30
0.0
 11
104.60738105935205
 21
137.94217398137346
 31
0.0
  0
LINE
  8
VISIBLE
 10
104.60738105935205
 20
137.94217398137346
 30
0.0
 11
104.77786402893071
 21
137.4737758720545
 31
0.0
  0
LINE
  8
VISIBLE
 10
104.77786402893071
 20
137.4737758720545
 30
0.0
 11
104.90086243924273
 21
136.99073071599696
 31
0.0
  0
LINE
  8
VISIBLE
 10
104.90086243924273
 20
136.99073071599696
 30
0.0
 11
104.97515387682701
 21
136.49783923297906
 31
0.0
  0
LINE
  8
VISIBLE
 10
104.97515387682701
 20
136.49783923297906
 30
0.0
 11
105.0
 21
136.0
 31
0.0
  0
LINE
  8
CENTER
 10
49.0
 20
111.0
 30
0.0
 11
61.0
 21
111.0
 31
0.0
  0
LINE
  8
CENTER
 10
55.0
 20
105.0
 30
0.0
 11
55.0
 21
117.0
 31
0.0
  0
LINE
  8
CENTER
 10
139.0
 20
111.0
 30
0.0
 11
151.0
 21
111.0
 31
0.0
  0
LINE
  8
CENTER
 10
145.0
 20
105.0
 30
0.0
 11
145.0
 21
117.0
 31
0.0
  0
LINE
  8
CENTER
 10
89.0
 20
136.0
 30
0.0
 11
111.0
 21
136.0
 31
0.0
  0
LINE
  8
CENTER
 10
100.0
 20
125.0
 30
0.0
 11
100.0
 21
147.0
 31
0.0
  0
LINE
  8
CENTER
 10
49.0
 20
161.0
 30
0.0
 11
61.0
 21
161.0
 31
0.0
  0
LINE
  8
CENTER
 10
55.0
 20
155.0
 30
0.0
 11
55.0
 21
167.0
 31
0.0
  0
LINE
  8
CENTER
 10
139.0
 20
161.0
 30
0.0
 11
151.0
 21
161.0
 31
0.0
  0
LINE
  8
CENTER
 10
145.0
 20
155.0
 30
0.0
 11
145.0
 21
167.0
 31
0.0
  0
LINE
  8
CUTTING
 10
29.0
 20
136.0
 30
0.0
 11
171.0
 21
136.0
 31
0.0
  0
LINE
  8
THIN
 10
29.0
 20
136.0
 30
0.0
 11
29.0
 21
144.0
 31
0.0
  0
LINE
  8
THIN
 10
171.0
 20
136.0
 30
0.0
 11
171.0
 21
144.0
 31
0.0
  0
LINE
  8
VISIBLE
 10
180.0
 20
64.0
 30
0.0
 11
180.0
 21
76.0
 31
0.0
  0
LINE
  8
VISIBLE
 10
260.0
 20
64.0
 30
0.0
 11
260.0
 21
76.0
 31
0.0
  0
LINE
  8
VISIBLE
 10
180.0
 20
64.0
 30
0.0
 11
260.0
 21
64.0
 31
0.0
  0
LINE
  8
VISIBLE
 10
180.0
 20
76.0
 30
0.0
 11
260.0
 21
76.0
 31
0.0
  0
LINE
  8
HIDDEN
 10
220.0
 20
71.0
 30
0.0
 11
215.0
 21
71.0
 31
0.0
  0
LINE
  8
HIDDEN
 10
215.0
 20
71.0
 30
0.0
 11
225.0
 21
71.0
 31
0.0
  0
LINE
  8
HIDDEN
 10
225.0
 20
71.0
 30
0.0
 11
220.0
 21
71.0
 31
0.0
  0
LINE
  8
HIDDEN
 10
220.0
 20
71.0
 30
0.0
 11
211.0
 21
71.0
 31
0.0
  0
LINE
  8
HIDDEN
 10
211.0
 20
71.0
 30
0.0
 11
229.0
 21
71.0
 31
0.0
  0
LINE
  8
HIDDEN
 10
229.0
 20
71.0
 30
0.0
 11
220.0
 21
71.0
 31
0.0
  0
LINE
  8
HIDDEN
 10
191.0
 20
76.0
 30
0.0
 11
191.0
 21
64.0
 31
0.0
  0
LINE
  8
HIDDEN
 10
199.0
 20
76.0
 30
0.0
 11
199.0
 21
64.0
 31
0.0
  0
LINE
  8
HIDDEN
 10
191.0
 20
76.0
 30
0.0
 11
191.0
 21
64.0
 31
0.0
  0
LINE
  8
HIDDEN
 10
199.0
 20
76.0
 30
0.0
 11
199.0
 21
64.0
 31
0.0
  0
LINE
  8
HIDDEN
 10
215.0
 20
71.0
 30
0.0
 11
215.0
 21
64.0
 31
0.0
  0
LINE
  8
HIDDEN
 10
225.0
 20
71.0
 30
0.0
 11
225.0
 21
64.0
 31
0.0
  0
LINE
  8
HIDDEN
 10
241.0
 20
76.0
 30
0.0
 11
241.0
 21
64.0
 31
0.0
  0
LINE
  8
HIDDEN
 10
249.0
 20
76.0
 30
0.0
 11
249.0
 21
64.0
 31
0.0
  0
LINE
  8
HIDDEN
 10
241.0
 20
76.0
 30
0.0
 11
241.0
 21
64.0
 31
0.0
  0
LINE
  8
HIDDEN
 10
249.0
 20
76.0
 30
0.0
 11
249.0
 21
64.0
 31
0.0
  0
LINE
  8
HIDDEN
 10
211.0
 20
76.0
 30
0.0
 11
211.0
 21
71.0
 31
0.0
  0
LINE
  8
HIDDEN
 10
229.0
 20
76.0
 30
0.0
 11
229.0
 21
71.0
 31
0.0
  0
LINE
  8
CENTER
 10
195.0
 20
78.0
 30
0.0
 11
195.0
 21
62.0
 31
0.0
  0
LINE
  8
CENTER
 10
220.0
 20
73.0
 30
0.0
 11
220.0
 21
62.0
 31
0.0
  0
LINE
  8
CENTER
 10
245.0
 20
78.0
 30
0.0
 11
245.0
 21
62.0
 31
0.0
  0
LINE
  8
CENTER
 10
220.0
 20
78.0
 30
0.0
 11
220.0
 21
69.0
 31
0.0
  0
LINE
  8
VISIBLE
 10
309.6446609406726
 20
176.63299316185544
 30
0.0
 11
309.6446609406726
 21
181.5319726474218
 31
0.0
  0
LINE
  8
VISIBLE
 10
352.0710678118655
 20
152.13809573402366
 30
0.0
 11
352.0710678118655
 21
157.03707521959004
 31
0.0
  0
LINE
  8
VISIBLE
 10
309.6446609406726
 20
176.63299316185544
 30
0.0
 11
352.0710678118655
 21
152.13809573402366
 31
0.0
  0
LINE
  8
VISIBLE
 10
309.6446609406726
 20
181.5319726474218
 30
0.0
 11
352.0710678118655
 21
157.03707521959
 31
0.0
  0
LINE
  8
VISIBLE
 10
337.9289321881345
 20
197.86190426597634
 30
0.0
 11
309.6446609406726
 21
181.5319726474218
 31
0.0
  0
LINE
  8
VISIBLE
 10
380.3553390593274
 20
168.4680273525782
 30
0.0
 11
380.3553390593274
 21
173.36700683814453
 31
0.0
  0
LINE
  8
VISIBLE
 10
352.0710678118655
 20
152.13809573402366
 30
0.0
 11
380.3553390593274
 21
168.4680273525782
 31
0.0
  0
LINE
  8
VISIBLE
 10
352.0710678118655
 20
157.03707521959004
 30
0.0
 11
380.3553390593274
 21
173.36700683814456
 31
0.0
  0
LINE
  8
VISIBLE
 10
380.3553390593274
 20
173.36700683814453
 30
0.0
 11
337.9289321881345
 21
197.86190426597634
 31
0.0
  0
LINE
  8
VISIBLE
 10
321.6654762208439
 20
180.7154760664941
 30
0.0
 11
321.501144316619
 21
180.6305301292646
 31
0.0
  0
LINE
  8
VISIBLE
 10
321.501144316619
 20
180.6305301292646
 30
0.0
 11
321.32160997320386
 21
180.5565485301197
 31
0.0
  0
LINE
  8
VISIBLE
 10
321.32160997320386
 20
180.5565485301197
 30
0.0
 11
321.1290568852873
 21
180.4944311148607
 31
0.0
  0
LINE
  8
VISIBLE
 10
321.1290568852873
 20
180.4944311148607
 30
0.0
 11
320.9258270958865
 21
180.44493342399974
 31
0.0
  0
LINE
  8
VISIBLE
 10
320.9258270958865
 20
180.44493342399974
 30
0.0
 11
320.71439250983735
 21
180.40865750304286
 31
0.0
  0
LINE
  8
VISIBLE
 10
320.71439250983735
 20
180.40865750304286
 30
0.0
 11
320.49732482776136
 21
180.38604457974856
 31
0.0
  0
LINE
  8
VISIBLE
 10
320.49732482776136
 20
180.38604457974856
 30
0.0
 11
320.27726426620654
 21
180.37736969742917
 31
0.0
  0
LINE
  8
VISIBLE
 10
320.27726426620654
 20
180.37736969742917
 30
0.0
 11
320.0568874444219
 21
180.38273836957077
 31
0.0
  0
LINE
  8
VISIBLE
 10
320.0568874444219
 20
180.38273836957077
 30
0.0
 11
319.8388748283622
 21
180.4020852964618
 31
0.0
  0
LINE
  8
VISIBLE
 10
319.8388748283622
 20
180.4020852964618
 30
0.0
 11
319.6258781279046
 21
180.43517515944018
 31
0.0
  0
LINE
  8
VISIBLE
 10
319.6258781279046
 20
180.43517515944018
 30
0.0
 11
319.420488043829
 21
180.48160548309835
 31
0.0
  0
LINE
  8
VISIBLE
 10
319.420488043829
 20
180.48160548309835
 30
0.0
 11
319.2252027568576
 21
180.54081153063314
 31
0.0
  0
LINE
  8
VISIBLE
 10
319.2252027568576
 20
180.54081153063314
 30
0.0
 11
319.04239754202575
 21
180.6120731727975
 31
0.0
  0
LINE
  8
VISIBLE
 10
319.04239754202575
 20
180.6120731727975
 30
0.0
 11
318.87429587796777
 21
180.69452364690676
 31
0.0
  0
LINE
  8
VISIBLE
 10
318.87429587796777
 20
180.69452364690676
 30
0.0
 11
318.72294240251705
 21
180.78716009936218
 31
0.0
  0
LINE
  8
VISIBLE
 10
318.72294240251705
 20
180.78716009936218
 30
0.0
 11
318.60257008070886
 21
180.8783130050919
 31
0.0
  0
LINE
  8
VISIBLE
 10
318.60257008070886
 20
180.8783130050919
 30
0.0
 11
318.5080949788581
 21
180.96588477416256
 31
0.0
  0
LINE
  8
VISIBLE
 10
318.5080949788581
 20
180.96588477416256
 30
0.0
 11
318.4349460891584
 21
181.04858387357578
 31
0.0
  0
LINE
  8
VISIBLE
 10
318.4349460891584
 20
181.04858387357578
 30
0.0
 11
318.3791431665025
 21
181.12570155246505
 31
0.0
  0
LINE
  8
VISIBLE
 10
318.3791431665025
 20
181.12570155246505
 30
0.0
 11
318.33729887896385
 21
181.1969389920301
 31
0.0
  0
LINE
  8
VISIBLE
 10
318.33729887896385
 20
181.1969389920301
 30
0.0
 11
318.3065794140628
 21
181.2622770913351
 31
0.0
  0
LINE
  8
VISIBLE
 10
318.3065794140628
 20
181.2622770913351
 30
0.0
 11
318.28254522913846
 21
181.32854232893172
 31
0.0
  0
LINE
  8
VISIBLE
 10
318.28254522913846
 20
181.32854232893172
 30
0.0
 11
318.2652789470322
 21
181.39550690336827
 31
0.0
  0
LINE
  8
VISIBLE
 10
318.2652789470322
 20
181.39550690336827
 30
0.0
 11
318.25483992441826
 21
181.46294060906763
 31
0.0
  0
LINE
  8
VISIBLE
 10
318.25483992441826
 20
181.46294060906763
 30
0.0
 11
318.25215717499765
 21
181.49744118376225
 31
0.0
  0
LINE
  8
VISIBLE
 10
318.25215717499765
 20
181.49744118376225
 30
0.0
 11
318.25126265847086
 21
181.5319726474218
 31
0.0
  0
LINE
  8
VISIBLE
 10
318.25126265847086
 20
181.5319726474218
 30
0.0
 11
318.2545422617622
 21
181.59807271642768
 31
0.0
  0
LINE
  8
VISIBLE
 10
318.2545422617622
 20
181.59807271642768
 30
0.0
 11
318.26437031583856
 21
181.66395600342966
 31
0.0
  0
LINE
  8
VISIBLE
 10
318.26437031583856
 20
181.66395600342966
 30
0.0
 11
318.2807145885815
 21
181.7294064373829
 31
0.0
  0
LINE
  8
VISIBLE
 10
318.2807145885815
 20
181.7294064373829
 30
0.0
 11
318.3035214772601
 21
181.79420936682874
 31
0.0
  0
LINE
  8
VISIBLE
 10
318.3035214772601
 20
181.79420936682874
 30
0.0
 11
318.33271618432747
 21
181.8581522638665
 31
0.0
  0
LINE
  8
VISIBLE
 10
318.33271618432747
 20
181.8581522638665
 30
0.0
 11
318.36820296272606
 21
181.92102542116058
 31
0.0
  0
LINE
  8
VISIBLE
 10
318.36820296272606
 20
181.92102542116058
 30
0.0
 11
318.40986542990066
 21
181.9826226396974
 31
0.0
  0
LINE
  8
VISIBLE
 10
318.40986542990066
 20
181.9826226396974
 30
0.0
 11
318.45756694948676
 21
182.04274190503628
 31
0.0
  0
LINE
  8
VISIBLE
 10
318.45756694948676
 20
182.04274190503628
 30
0.0
 11
318.5111510794238
 21
182.10118604983677
 31
0.0
  0
LINE
  8
VISIBLE
 10
318.5111510794238
 20
182.10118604983677
 30
0.0
 11
318.5704420850229
 21
182.15776340048922
 31
0.0
  0
LINE
  8
VISIBLE
 10
318.5704420850229
 20
182.15776340048922
 30
0.0
 11
318.6352455153068
 21
182.21228840572817
 31
0.0
  0
LINE
  8
VISIBLE
 10
318.6352455153068
 20
182.21228840572817
 30
0.0
 11
318.70534884073237
 21
182.26458224516702
 31
0.0
  0
LINE
  8
VISIBLE
 10
318.70534884073237
 20
182.26458224516702
 30
0.0
 11
318.80666443526883
 21
182.33054136154345
 31
0.0
  0
LINE
  8
VISIBLE
 10
318.80666443526883
 20
182.33054136154345
 30
0.0
 11
318.9306786216952
 21
182.39916309205964
 31
0.0
  0
LINE
  8
VISIBLE
 10
318.9306786216952
 20
182.39916309205964
 30
0.0
 11
319.06443420988273
 21
182.46138791765395
 31
0.0
  0
LINE
  8
VISIBLE
 10
319.06443420988273
 20
182.46138791765395
 30
0.0
 11
319.2069445402277
 21
182.51675683154696
 31
0.0
  0
LINE
  8
VISIBLE
 10
319.2069445402277
 20
182.51675683154696
 30
0.0
 11
319.3571583730178
 21
182.56486140018183
 31
0.0
  0
LINE
  8
VISIBLE
 10
319.3571583730178
 20
182.56486140018183
 30
0.0
 11
319.51396764299193
 21
182.6053467760694
 31
0.0
  0
LINE
  8
VISIBLE
 10
319.51396764299193
 20
182.6053467760694
 30
0.0
 11
319.73130102783927
 21
182.64696740117193
 31
0.0
  0
LINE
  8
VISIBLE
 10
319.73130102783927
 20
182.64696740117193
 30
0.0
 11
319.98380209634615
 21
182.67630139501549
 31
0.0
  0
LINE
  8
VISIBLE
 10
319.98380209634615
 20
182.67630139501549
 30
0.0
 11
320.2407388805385
 21
182.686657200319
 31
0.0
  0
LINE
  8
VISIBLE
 10
320.2407388805385
 20
182.686657200319
 30
0.0
 11
320.49785019695526
 21
182.67786307061013
 31
0.0
  0
LINE
  8
VISIBLE
 10
320.49785019695526
 20
182.67786307061013
 30
0.0
 11
320.7508719675952
 21
182.65006485265897
 31
0.0
  0
LINE
  8
VISIBLE
 10
320.7508719675952
 20
182.65006485265897
 30
0.0
 11
320.9956079377736
 21
182.60372356767328
 31
0.0
  0
LINE
  8
VISIBLE
 10
320.9956079377736
 20
182.60372356767328
 30
0.0
 11
321.22799926915906
 21
182.53960776546492
 31
0.0
  0
LINE
  8
VISIBLE
 10
321.22799926915906
 20
182.53960776546492
 30
0.0
 11
321.44419185382014
 21
182.45878077838944
 31
0.0
  0
LINE
  8
VISIBLE
 10
321.44419185382014
 20
182.45878077838944
 30
0.0
 11
321.6219453452618
 21
182.37285095255513
 31
0.0
  0
LINE
  8
VISIBLE
 10
321.6219453452618
 20
182.37285095255513
 30
0.0
 11
321.7662392771135
 21
182.2858174247613
 31
0.0
  0
LINE
  8
VISIBLE
 10
321.7662392771135
 20
182.2858174247613
 30
0.0
 11
321.88204385365685
 21
182.2004417176182
 31
0.0
  0
LINE
  8
VISIBLE
 10
321.88204385365685
 20
182.2004417176182
 30
0.0
 11
321.9739974030107
 21
182.11854034739494
 31
0.0
  0
LINE
  8
VISIBLE
 10
321.9739974030107
 20
182.11854034739494
 30
0.0
 11
322.04624876390994
 21
182.04122860182346
 31
0.0
  0
LINE
  8
VISIBLE
 10
322.04624876390994
 20
182.04122860182346
 30
0.0
 11
322.10240291715377
 21
181.96911478398738
 31
0.0
  0
LINE
  8
VISIBLE
 10
322.10240291715377
 20
181.96911478398738
 30
0.0
 11
322.14987776924653
 21
181.8949513709187
 31
0.0
  0
LINE
  8
VISIBLE
 10
322.14987776924653
 20
181.8949513709187
 30
0.0
 11
322.18499950333546
 21
181.82673911702844
 31
0.0
  0
LINE
  8
VISIBLE
 10
322.18499950333546
 20
181.82673911702844
 30
0.0
 11
322.2103327750695
 21
181.76438340323298
 31
0.0
  0
LINE
  8
VISIBLE
 10
322.2103327750695
 20
181.76438340323298
 30
0.0
 11
322.2296387326064
 21
181.70131264987043
 31
0.0
  0
LINE
  8
VISIBLE
 10
322.2296387326064
 20
181.70131264987043
 30
0.0
 11
322.2428579788522
 21
181.63772090167862
 31
0.0
  0
LINE
  8
VISIBLE
 10
322.2428579788522
 20
181.63772090167862
 30
0.0
 11
322.2491603836763
 21
181.58490241100412
 31
0.0
  0
LINE
  8
VISIBLE
 10
322.2491603836763
 20
181.58490241100412
 30
0.0
 11
322.25126265847086
 21
181.5319726474218
 31
0.0
  0
LINE
  8
VISIBLE
 10
322.25126265847086
 20
181.5319726474218
 30
0.0
 11
322.24845279259716
 21
181.47078558956267
 31
0.0
  0
LINE
  8
VISIBLE
 10
322.24845279259716
 20
181.47078558956267
 30
0.0
 11
322.2400310903225
 21
181.40977045912933
 31
0.0
  0
LINE
  8
VISIBLE
 10
322.2400310903225
 20
181.40977045912933
 30
0.0
 11
322.2260212155005
 21
181.34909870045453
 31
0.0
  0
LINE
  8
VISIBLE
 10
322.2260212155005
 20
181.34909870045453
 30
0.0
 11
322.2064625340004
 21
181.2889407930425
 31
0.0
  0
LINE
  8
VISIBLE
 10
322.2064625340004
 20
181.2889407930425
 30
0.0
 11
322.18141000309396
 21
181.22946577254433
 31
0.0
  0
LINE
  8
VISIBLE
 10
322.18141000309396
 20
181.22946577254433
 30
0.0
 11
322.1509340170327
 21
181.1708407557904
 31
0.0
  0
LINE
  8
VISIBLE
 10
322.1509340170327
 20
181.1708407557904
 30
0.0
 11
322.1151202092498
 21
181.11323047121465
 31
0.0
  0
LINE
  8
VISIBLE
 10
322.1151202092498
 20
181.11323047121465
 30
0.0
 11
322.07406921174174
 21
181.0567967959897
 31
0.0
  0
LINE
  8
VISIBLE
 10
322.07406921174174
 20
181.0567967959897
 30
0.0
 11
322.02789637230535
 21
181.00169830117366
 31
0.0
  0
LINE
  8
VISIBLE
 10
322.02789637230535
 20
181.00169830117366
 30
0.0
 11
321.9767314304264
 21
180.9480898061468
 31
0.0
  0
LINE
  8
VISIBLE
 10
321.9767314304264
 20
180.9480898061468
 30
0.0
 11
321.92071815272914
 21
180.89612194358986
 31
0.0
  0
LINE
  8
VISIBLE
 10
321.92071815272914
 20
180.89612194358986
 30
0.0
 11
321.860013929011
 21
180.84594073622637
 31
0.0
  0
LINE
  8
VISIBLE
 10
321.860013929011
 20
180.84594073622637
 30
0.0
 11
321.76696212333644
 21
180.7786123679171
 31
0.0
  0
LINE
  8
VISIBLE
 10
321.76696212333644
 20
180.7786123679171
 30
0.0
 11
321.6654762208439
 21
180.7154760664941
 31
0.0
  0
LINE
  8
VISIBLE
 10
353.4852813742386
 20
162.34430299562024
 30
0.0
 11
353.3209494700136
 21
162.25935705839075
 31
0.0
  0
LINE
  8
VISIBLE
 10
353.3209494700136
 20
162.25935705839075
 30
0.0
 11
353.14141512659853
 21
162.18537545924588
 31
0.0
  0
LINE
  8
VISIBLE
 10
353.14141512659853
 20
162.18537545924588
 30
0.0
 11
352.94886203868197
 21
162.12325804398688
 31
0.0
  0
LINE
  8
VISIBLE
 10
352.94886203868197
 20
162.12325804398688
 30
0.0
 11
352.74563224928113
 21
162.07376035312592
 31
0.0
  0
LINE
  8
VISIBLE
 10
352.74563224928113
 20
162.07376035312592
 30
0.0
 11
352.534197663232
 21
162.03748443216904
 31
0.0
  0
LINE
  8
VISIBLE
 10
352.534197663232
 20
162.03748443216904
 30
0.0
 11
352.317129981156
 21
162.0148715088747
 31
0.0
  0
LINE
  8
VISIBLE
 10
352.317129981156
 20
162.0148715088747
 30
0.0
 11
352.09706941960116
 21
162.00619662655532
 31
0.0
  0
LINE
  8
VISIBLE
 10
352.09706941960116
 20
162.00619662655532
 30
0.0
 11
351.87669259781654
 21
162.01156529869692
 31
0.0
  0
LINE
  8
VISIBLE
 10
351.87669259781654
 20
162.01156529869692
 30
0.0
 11
351.6586799817568
 21
162.03091222558797
 31
0.0
  0
LINE
  8
VISIBLE
 10
351.6586799817568
 20
162.03091222558797
 30
0.0
 11
351.44568328129924
 21
162.06400208856633
 31
0.0
  0
LINE
  8
VISIBLE
 10
351.44568328129924
 20
162.06400208856633
 30
0.0
 11
351.24029319722365
 21
162.1104324122245
 31
0.0
  0
LINE
  8
VISIBLE
 10
351.24029319722365
 20
162.1104324122245
 30
0.0
 11
351.0450079102522
 21
162.16963845975928
 31
0.0
  0
LINE
  8
VISIBLE
 10
351.0450079102522
 20
162.16963845975928
 30
0.0
 11
350.8622026954204
 21
162.24090010192367
 31
0.0
  0
LINE
  8
VISIBLE
 10
350.8622026954204
 20
162.24090010192367
 30
0.0
 11
350.6941010313624
 21
162.3233505760329
 31
0.0
  0
LINE
  8
VISIBLE
 10
350.6941010313624
 20
162.3233505760329
 30
0.0
 11
350.54274755591166
 21
162.41598702848833
 31
0.0
  0
LINE
  8
VISIBLE
 10
350.54274755591166
 20
162.41598702848833
 30
0.0
 11
350.42237523410347
 21
162.5071399342181
 31
0.0
  0
LINE
  8
VISIBLE
 10
350.42237523410347
 20
162.5071399342181
 30
0.0
 11
350.32790013225275
 21
162.59471170328874
 31
0.0
  0
LINE
  8
VISIBLE
 10
350.32790013225275
 20
162.59471170328874
 30
0.0
 11
350.254751242553
 21
162.67741080270193
 31
0.0
  0
LINE
  8
VISIBLE
 10
350.254751242553
 20
162.67741080270193
 30
0.0
 11
350.1989483198971
 21
162.7545284815912
 31
0.0
  0
LINE
  8
VISIBLE
 10
350.1989483198971
 20
162.7545284815912
 30
0.0
 11
350.1571040323585
 21
162.82576592115626
 31
0.0
  0
LINE
  8
VISIBLE
 10
350.1571040323585
 20
162.82576592115626
 30
0.0
 11
350.1263845674575
 21
162.89110402046128
 31
0.0
  0
LINE
  8
VISIBLE
 10
350.1263845674575
 20
162.89110402046128
 30
0.0
 11
350.10235038253313
 21
162.95736925805787
 31
0.0
  0
LINE
  8
VISIBLE
 10
350.10235038253313
 20
162.95736925805787
 30
0.0
 11
350.0850841004268
 21
163.02433383249442
 31
0.0
  0
LINE
  8
VISIBLE
 10
350.0850841004268
 20
163.02433383249442
 30
0.0
 11
350.0746450778129
 21
163.09176753819378
 31
0.0
  0
LINE
  8
VISIBLE
 10
350.0746450778129
 20
163.09176753819378
 30
0.0
 11
350.07196232839226
 21
163.1262681128884
 31
0.0
  0
LINE
  8
VISIBLE
 10
350.07196232839226
 20
163.1262681128884
 30
0.0
 11
350.0710678118655
 21
163.16079957654796
 31
0.0
  0
LINE
  8
VISIBLE
 10
350.0710678118655
 20
163.16079957654796
 30
0.0
 11
350.07434741515686
 21
163.22689964555383
 31
0.0
  0
LINE
  8
VISIBLE
 10
350.07434741515686
 20
163.22689964555383
 30
0.0
 11
350.08417546923323
 21
163.29278293255584
 31
0.0
  0
LINE
  8
VISIBLE
 10
350.08417546923323
 20
163.29278293255584
 30
0.0
 11
350.1005197419761
 21
163.35823336650907
 31
0.0
  0
LINE
  8
VISIBLE
 10
350.1005197419761
 20
163.35823336650907
 30
0.0
 11
350.1233266306548
 21
163.4230362959549
 31
0.0
  0
LINE
  8
VISIBLE
 10
350.1233266306548
 20
163.4230362959549
 30
0.0
 11
350.1525213377221
 21
163.48697919299266
 31
0.0
  0
LINE
  8
VISIBLE
 10
350.1525213377221
 20
163.48697919299266
 30
0.0
 11
350.18800811612067
 21
163.54985235028676
 31
0.0
  0
LINE
  8
VISIBLE
 10
350.18800811612067
 20
163.54985235028676
 30
0.0
 11
350.2296705832953
 21
163.61144956882356
 31
0.0
  0
LINE
  8
VISIBLE
 10
350.2296705832953
 20
163.61144956882356
 30
0.0
 11
350.27737210288143
 21
163.67156883416246
 31
0.0
  0
LINE
  8
VISIBLE
 10
350.27737210288143
 20
163.67156883416246
 30
0.0
 11
350.33095623281844
 21
163.73001297896295
 31
0.0
  0
LINE
  8
VISIBLE
 10
350.33095623281844
 20
163.73001297896295
 30
0.0
 11
350.3902472384175
 21
163.78659032961536
 31
0.0
  0
LINE
  8
VISIBLE
 10
350.3902472384175
 20
163.78659032961536
 30
0.0
 11
350.4550506687014
 21
163.84111533485432
 31
0.0
  0
LINE
  8
VISIBLE
 10
350.4550506687014
 20
163.84111533485432
 30
0.0
 11
350.525153994127
 21
163.89340917429317
 31
0.0
  0
LINE
  8
VISIBLE
 10
350.525153994127
 20
163.89340917429317
 30
0.0
 11
350.6264695886635
 21
163.9593682906696
 31
0.0
  0
LINE
  8
VISIBLE
 10
350.6264695886635
 20
163.9593682906696
 30
0.0
 11
350.7504837750899
 21
164.0279900211858
 31
0.0
  0
LINE
  8
VISIBLE
 10
350.7504837750899
 20
164.0279900211858
 30
0.0
 11
350.8842393632774
 21
164.0902148467801
 31
0.0
  0
LINE
  8
VISIBLE
 10
350.8842393632774
 20
164.0902148467801
 30
0.0
 11
351.0267496936224
 21
164.14558376067313
 31
0.0
  0
LINE
  8
VISIBLE
 10
351.0267496936224
 20
164.14558376067313
 30
0.0
 11
351.1769635264124
 21
164.193688329308
 31
0.0
  0
LINE
  8
VISIBLE
 10
351.1769635264124
 20
164.193688329308
 30
0.0
 11
351.3337727963866
 21
164.23417370519556
 31
0.0
  0
LINE
  8
VISIBLE
 10
351.3337727963866
 20
164.23417370519556
 30
0.0
 11
351.5511061812339
 21
164.2757943302981
 31
0.0
  0
LINE
  8
VISIBLE
 10
351.5511061812339
 20
164.2757943302981
 30
0.0
 11
351.80360724974076
 21
164.30512832414163
 31
0.0
  0
LINE
  8
VISIBLE
 10
351.80360724974076
 20
164.30512832414163
 30
0.0
 11
352.0605440339331
 21
164.31548412944514
 31
0.0
  0
LINE
  8
VISIBLE
 10
352.0605440339331
 20
164.31548412944514
 30
0.0
 11
352.31765535034987
 21
164.3066899997363
 31
0.0
  0
LINE
  8
VISIBLE
 10
352.31765535034987
 20
164.3066899997363
 30
0.0
 11
352.57067712098984
 21
164.27889178178512
 31
0.0
  0
LINE
  8
VISIBLE
 10
352.57067712098984
 20
164.27889178178512
 30
0.0
 11
352.81541309116824
 21
164.23255049679943
 31
0.0
  0
LINE
  8
VISIBLE
 10
352.81541309116824
 20
164.23255049679943
 30
0.0
 11
353.04780442255367
 21
164.1684346945911
 31
0.0
  0
LINE
  8
VISIBLE
 10
353.04780442255367
 20
164.1684346945911
 30
0.0
 11
353.2639970072148
 21
164.08760770751562
 31
0.0
  0
LINE
  8
VISIBLE
 10
353.2639970072148
 20
164.08760770751562
 30
0.0
 11
353.4417504986564
 21
164.00167788168127
 31
0.0
  0
LINE
  8
VISIBLE
 10
353.4417504986564
 20
164.00167788168127
 30
0.0
 11
353.5860444305082
 21
163.91464435388744
 31
0.0
  0
LINE
  8
VISIBLE
 10
353.5860444305082
 20
163.91464435388744
 30
0.0
 11
353.70184900705146
 21
163.82926864674437
 31
0.0
  0
LINE
  8
VISIBLE
 10
353.70184900705146
 20
163.82926864674437
 30
0.0
 11
353.7938025564053
 21
163.7473672765211
 31
0.0
  0
LINE
  8
VISIBLE
 10
353.7938025564053
 20
163.7473672765211
 30
0.0
 11
353.8660539173046
 21
163.6700555309496
 31
0.0
  0
LINE
  8
VISIBLE
 10
353.8660539173046
 20
163.6700555309496
 30
0.0
 11
353.9222080705484
 21
163.59794171311353
 31
0.0
  0
LINE
  8
VISIBLE
 10
353.9222080705484
 20
163.59794171311353
 30
0.0
 11
353.96968292264114
 21
163.52377830004485
 31
0.0
  0
LINE
  8
VISIBLE
 10
353.96968292264114
 20
163.52377830004485
 30
0.0
 11
354.0048046567301
 21
163.4555660461546
 31
0.0
  0
LINE
  8
VISIBLE
 10
354.0048046567301
 20
163.4555660461546
 30
0.0
 11
354.0301379284641
 21
163.39321033235913
 31
0.0
  0
LINE
  8
VISIBLE
 10
354.0301379284641
 20
163.39321033235913
 30
0.0
 11
354.0494438860011
 21
163.33013957899658
 31
0.0
  0
LINE
  8
VISIBLE
 10
354.0494438860011
 20
163.33013957899658
 30
0.0
 11
354.0626631322468
 21
163.26654783080477
 31
0.0
  0
LINE
  8
VISIBLE
 10
354.0626631322468
 20
163.26654783080477
 30
0.0
 11
354.068965537071
 21
163.2137293401303
 31
0.0
  0
LINE
  8
VISIBLE
 10
354.068965537071
 20
163.2137293401303
 30
0.0
 11
354.0710678118655
 21
163.16079957654796
 31
0.0
  0
LINE
  8
VISIBLE
 10
354.0710678118655
 20
163.16079957654796
 30
0.0
 11
354.06825794599183
 21
163.09961251868884
 31
0.0
  0
LINE
  8
VISIBLE
 10
354.06825794599183
 20
163.09961251868884
 30
0.0
 11
354.0598362437171
 21
163.03859738825548
 31
0.0
  0
LINE
  8
VISIBLE
 10
354.0598362437171
 20
163.03859738825548
 30
0.0
 11
354.0458263688951
 21
162.9779256295807
 31
0.0
  0
LINE
  8
VISIBLE
 10
354.0458263688951
 20
162.9779256295807
 30
0.0
 11
354.02626768739503
 21
162.9177677221687
 31
0.0
  0
LINE
  8
VISIBLE
 10
354.02626768739503
 20
162.9177677221687
 30
0.0
 11
354.00121515648857
 21
162.85829270167048
 31
0.0
  0
LINE
  8
VISIBLE
 10
354.00121515648857
 20
162.85829270167048
 30
0.0
 11
353.9707391704273
 21
162.79966768491656
 31
0.0
  0
LINE
  8
VISIBLE
 10
353.9707391704273
 20
162.79966768491656
 30
0.0
 11
353.9349253626445
 21
162.74205740034083
 31
0.0
  0
LINE
  8
VISIBLE
 10
353.9349253626445
 20
162.74205740034083
 30
0.0
 11
353.89387436513636
 21
162.68562372511585
 31
0.0
  0
LINE
  8
VISIBLE
 10
353.89387436513636
 20
162.68562372511585
 30
0.0
 11
353.84770152569996
 21
162.6305252302998
 31
0.0
  0
LINE
  8
VISIBLE
 10
353.84770152569996
 20
162.6305252302998
 30
0.0
 11
353.7965365838211
 21
162.57691673527296
 31
0.0
  0
LINE
  8
VISIBLE
 10
353.7965365838211
 20
162.57691673527296
 30
0.0
 11
353.7405233061238
 21
162.52494887271604
 31
0.0
  0
LINE
  8
VISIBLE
 10
353.7405233061238
 20
162.52494887271604
 30
0.0
 11
353.67981908240563
 21
162.47476766535254
 31
0.0
  0
LINE
  8
VISIBLE
 10
353.67981908240563
 20
162.47476766535254
 30
0.0
 11
353.58676727673105
 21
162.40743929704328
 31
0.0
  0
LINE
  8
VISIBLE
 10
353.58676727673105
 20
162.40743929704328
 30
0.0
 11
353.4852813742386
 21
162.34430299562024
 31
0.0
  0
LINE
  8
VISIBLE
 10
348.1819805153395
 20
175.6123724356958
 30
0.0
 11
347.80598631718414
 21
175.41836191258838
 31
0.0
  0
LINE
  8
VISIBLE
 10
347.80598631718414
 20
175.41836191258838
 30
0.0
 11
347.3947555978702
 21
175.24985752909612
 31
0.0
  0
LINE
  8
VISIBLE
 10
347.3947555978702
 20
175.24985752909612
 30
0.0
 11
346.9534524381537
 21
175.1089752999116
 31
0.0
  0
LINE
  8
VISIBLE
 10
346.9534524381537
 20
175.1089752999116
 30
0.0
 11
346.48761855719044
 21
174.9974843710991
 31
0.0
  0
LINE
  8
VISIBLE
 10
346.48761855719044
 20
174.9974843710991
 30
0.0
 11
346.00310372171026
 21
174.9167848038236
 31
0.0
  0
LINE
  8
VISIBLE
 10
346.00310372171026
 20
174.9167848038236
 30
0.0
 11
345.5059922868462
 21
174.86788999290894
 31
0.0
  0
LINE
  8
VISIBLE
 10
345.5059922868462
 20
174.86788999290894
 30
0.0
 11
345.00252679109013
 21
174.85141394100688
 31
0.0
  0
LINE
  8
VISIBLE
 10
345.00252679109013
 20
174.85141394100688
 30
0.0
 11
344.49902956484163
 21
174.86756354818237
 31
0.0
  0
LINE
  8
VISIBLE
 10
344.49902956484163
 20
174.86756354818237
 30
0.0
 11
344.0018233369597
 21
174.9161360137406
 31
0.0
  0
LINE
  8
VISIBLE
 10
344.0018233369597
 20
174.9161360137406
 30
0.0
 11
343.5171518363115
 21
174.99652138292163
 31
0.0
  0
LINE
  8
VISIBLE
 10
343.5171518363115
 20
174.99652138292163
 30
0.0
 11
343.05110138537214
 21
175.1077102064831
 31
0.0
  0
LINE
  8
VISIBLE
 10
343.05110138537214
 20
175.1077102064831
 30
0.0
 11
342.6095244704759
 21
175.2483062169842
 31
0.0
  0
LINE
  8
VISIBLE
 10
342.6095244704759
 20
175.2483062169842
 30
0.0
 11
342.1979662484932
 21
175.41654386258728
 31
0.0
  0
LINE
  8
VISIBLE
 10
342.1979662484932
 20
175.41654386258728
 30
0.0
 11
341.8215949128354
 21
175.61031047819384
 31
0.0
  0
LINE
  8
VISIBLE
 10
341.8215949128354
 20
175.61031047819384
 30
0.0
 11
341.5168619146062
 21
175.80452276458584
 31
0.0
  0
LINE
  8
VISIBLE
 10
341.5168619146062
 20
175.80452276458584
 30
0.0
 11
341.27281930053937
 21
175.99368251727012
 31
0.0
  0
LINE
  8
VISIBLE
 10
341.27281930053937
 20
175.99368251727012
 30
0.0
 11
341.079393975987
 21
176.1742318075046
 31
0.0
  0
LINE
  8
VISIBLE
 10
341.079393975987
 20
176.1742318075046
 30
0.0
 11
340.92765975463396
 21
176.34404188090818
 31
0.0
  0
LINE
  8
VISIBLE
 10
340.92765975463396
 20
176.34404188090818
 30
0.0
 11
340.797952300211
 21
176.51983118024566
 31
0.0
  0
LINE
  8
VISIBLE
 10
340.797952300211
 20
176.51983118024566
 30
0.0
 11
340.7006308502333
 21
176.68236851941302
 31
0.0
  0
LINE
  8
VISIBLE
 10
340.7006308502333
 20
176.68236851941302
 30
0.0
 11
340.62913753861926
 21
176.8315465566965
 31
0.0
  0
LINE
  8
VISIBLE
 10
340.62913753861926
 20
176.8315465566965
 30
0.0
 11
340.5731577785741
 21
176.98291786671933
 31
0.0
  0
LINE
  8
VISIBLE
 10
340.5731577785741
 20
176.98291786671933
 30
0.0
 11
340.5328902596934
 21
177.13594518557883
 31
0.0
  0
LINE
  8
VISIBLE
 10
340.5328902596934
 20
177.13594518557883
 30
0.0
 11
340.51020274495966
 21
177.2746368440064
 31
0.0
  0
LINE
  8
VISIBLE
 10
340.51020274495966
 20
177.2746368440064
 30
0.0
 11
340.50255140953885
 21
177.3620136962349
 31
0.0
  0
LINE
  8
VISIBLE
 10
340.50255140953885
 20
177.3620136962349
 30
0.0
 11
340.5
 21
177.4494897427832
 31
0.0
  0
LINE
  8
VISIBLE
 10
340.5
 20
177.4494897427832
 30
0.0
 11
340.5049990741427
 21
177.57191887404102
 31
0.0
  0
LINE
  8
VISIBLE
 10
340.5049990741427
 20
177.57191887404102
 30
0.0
 11
340.5199851895741
 21
177.69407599094134
 31
0.0
  0
LINE
  8
VISIBLE
 10
340.5199851895741
 20
177.69407599094134
 30
0.0
 11
340.54492504998217
 21
177.8156896834911
 31
0.0
  0
LINE
  8
VISIBLE
 10
340.54492504998217
 20
177.8156896834911
 30
0.0
 11
340.5797632437175
 21
177.93648974908322
 31
0.0
  0
LINE
  8
VISIBLE
 10
340.5797632437175
 20
177.93648974908322
 30
0.0
 11
340.6244223669073
 21
178.0562077928358
 31
0.0
  0
LINE
  8
VISIBLE
 10
340.6244223669073
 20
178.0562077928358
 30
0.0
 11
340.67880319543264
 21
178.17457782391466
 31
0.0
  0
LINE
  8
VISIBLE
 10
340.67880319543264
 20
178.17457782391466
 30
0.0
 11
340.7427849053851
 21
178.2913368465146
 31
0.0
  0
LINE
  8
VISIBLE
 10
340.7427849053851
 20
178.2913368465146
 30
0.0
 11
340.816225341515
 21
178.4062254441864
 31
0.0
  0
LINE
  8
VISIBLE
 10
340.816225341515
 20
178.4062254441864
 30
0.0
 11
340.8989613330733
 21
178.51898835621097
 31
0.0
  0
LINE
  8
VISIBLE
 10
340.8989613330733
 20
178.51898835621097
 30
0.0
 11
340.9908090563462
 21
178.62937504474044
 31
0.0
  0
LINE
  8
VISIBLE
 10
340.9908090563462
 20
178.62937504474044
 30
0.0
 11
341.09156444307666
 21
178.7371402514458
 31
0.0
  0
LINE
  8
VISIBLE
 10
341.09156444307666
 20
178.7371402514458
 30
0.0
 11
341.2393716175271
 21
178.8763364022552
 31
0.0
  0
LINE
  8
VISIBLE
 10
341.2393716175271
 20
178.8763364022552
 30
0.0
 11
341.423375994135
 21
179.02616987528415
 31
0.0
  0
LINE
  8
VISIBLE
 10
341.423375994135
 20
179.02616987528415
 30
0.0
 11
341.6252560407139
 21
179.1681232318535
 31
0.0
  0
LINE
  8
VISIBLE
 10
341.6252560407139
 20
179.1681232318535
 30
0.0
 11
341.8440027775444
 21
179.30148700086724
 31
0.0
  0
LINE
  8
VISIBLE
 10
341.8440027775444
 20
179.30148700086724
 30
0.0
 11
342.0785229265887
 21
179.42559464127515
 31
0.0
  0
LINE
  8
VISIBLE
 10
342.0785229265887
 20
179.42559464127515
 30
0.0
 11
342.32764437560377
 21
179.53982587338976
 31
0.0
  0
LINE
  8
VISIBLE
 10
342.32764437560377
 20
179.53982587338976
 30
0.0
 11
342.6803576974896
 21
179.6757915782946
 31
0.0
  0
LINE
  8
VISIBLE
 10
342.6803576974896
 20
179.6757915782946
 30
0.0
 11
343.1016247812638
 21
179.80506267584272
 31
0.0
  0
LINE
  8
VISIBLE
 10
343.1016247812638
 20
179.80506267584272
 30
0.0
 11
343.5442285718293
 21
179.9078584125126
 31
0.0
  0
LINE
  8
VISIBLE
 10
343.5442285718293
 20
179.9078584125126
 30
0.0
 11
344.003194442879
 21
179.98302342003404
 31
0.0
  0
LINE
  8
VISIBLE
 10
344.003194442879
 20
179.98302342003404
 30
0.0
 11
344.4733638672044
 21
180.02971288453108
 31
0.0
  0
LINE
  8
VISIBLE
 10
344.4733638672044
 20
180.02971288453108
 30
0.0
 11
344.9494523957407
 21
180.04740204177145
 31
0.0
  0
LINE
  8
VISIBLE
 10
344.9494523957407
 20
180.04740204177145
 30
0.0
 11
345.42610905190554
 21
180.03589207523163
 31
0.0
  0
LINE
  8
VISIBLE
 10
345.42610905190554
 20
180.03589207523163
 30
0.0
 11
345.8979764736704
 21
179.99531235068648
 31
0.0
  0
LINE
  8
VISIBLE
 10
345.8979764736704
 20
179.99531235068648
 30
0.0
 11
346.35975112740124
 21
179.9261189622083
 31
0.0
  0
LINE
  8
VISIBLE
 10
346.35975112740124
 20
179.9261189622083
 30
0.0
 11
346.8062429166971
 21
179.82908960591715
 31
0.0
  0
LINE
  8
VISIBLE
 10
346.8062429166971
 20
179.82908960591715
 30
0.0
 11
347.23243351625604
 21
179.7053148390984
 31
0.0
  0
LINE
  8
VISIBLE
 10
347.23243351625604
 20
179.7053148390984
 30
0.0
 11
347.63353277512664
 21
179.55618582293124
 31
0.0
  0
LINE
  8
VISIBLE
 10
347.63353277512664
 20
179.55618582293124
 30
0.0
 11
348.00503255540434
 21
179.38337868659218
 31
0.0
  0
LINE
  8
VISIBLE
 10
348.00503255540434
 20
179.38337868659218
 30
0.0
 11
348.3427574012537
 21
179.1888356884731
 31
0.0
  0
LINE
  8
VISIBLE
 10
348.3427574012537
 20
179.1888356884731
 30
0.0
 11
348.61468638364016
 21
178.99696535895364
 31
0.0
  0
LINE
  8
VISIBLE
 10
348.61468638364016
 20
178.99696535895364
 30
0.0
 11
348.8313456180711
 21
178.81218202339133
 31
0.0
  0
LINE
  8
VISIBLE
 10
348.8313456180711
 20
178.81218202339133
 30
0.0
 11
349.00221599509706
 21
178.6372421199771
 31
0.0
  0
LINE
  8
VISIBLE
 10
349.00221599509706
 20
178.6372421199771
 30
0.0
 11
349.13557717804645
 21
178.4736969816467
 31
0.0
  0
LINE
  8
VISIBLE
 10
349.13557717804645
 20
178.4736969816467
 30
0.0
 11
349.2489188504287
 21
178.3051938587936
 31
0.0
  0
LINE
  8
VISIBLE
 10
349.2489188504287
 20
178.3051938587936
 30
0.0
 11
349.33335415611134
 21
178.14997570688536
 31
0.0
  0
LINE
  8
VISIBLE
 10
349.33335415611134
 20
178.14997570688536
 30
0.0
 11
349.39482532298183
 21
178.0079132321643
 31
0.0
  0
LINE
  8
VISIBLE
 10
349.39482532298183
 20
178.0079132321643
 30
0.0
 11
349.44233636638137
 21
177.864076930206
 31
0.0
  0
LINE
  8
VISIBLE
 10
349.44233636638137
 20
177.864076930206
 30
0.0
 11
349.4757363679041
 21
177.71892369574178
 31
0.0
  0
LINE
  8
VISIBLE
 10
349.4757363679041
 20
177.71892369574178
 30
0.0
 11
349.49392999809567
 21
177.58438868300115
 31
0.0
  0
LINE
  8
VISIBLE
 10
349.49392999809567
 20
177.58438868300115
 30
0.0
 11
349.5
 21
177.4494897427832
 31
0.0
  0
LINE
  8
VISIBLE
 10
349.5
 20
177.4494897427832
 30
0.0
 11
349.49500092585737
 21
177.32706061152535
 31
0.0
  0
LINE
  8
VISIBLE
 10
349.49500092585737
 20
177.32706061152535
 30
0.0
 11
349.4800148104259
 21
177.20490349462503
 31
0.0
  0
LINE
  8
VISIBLE
 10
349.4800148104259
 20
177.20490349462503
 30
0.0
 11
349.4550749500179
 21
177.08328980207529
 31
0.0
  0
LINE
  8
VISIBLE
 10
349.4550749500179
 20
177.08328980207529
 30
0.0
 11
349.4202367562826
 21
176.96248973648315
 31
0.0
  0
LINE
  8
VISIBLE
 10
349.4202367562826
 20
176.96248973648315
 30
0.0
 11
349.3755776330927
 21
176.84277169273057
 31
0.0
  0
LINE
  8
VISIBLE
 10
349.3755776330927
 20
176.84277169273057
 30
0.0
 11
349.32119680456736
 21
176.7244016616517
 31
0.0
  0
LINE
  8
VISIBLE
 10
349.32119680456736
 20
176.7244016616517
 30
0.0
 11
349.25721509461493
 21
176.60764263905176
 31
0.0
  0
LINE
  8
VISIBLE
 10
349.25721509461493
 20
176.60764263905176
 30
0.0
 11
349.18377465848505
 21
176.49275404137995
 31
0.0
  0
LINE
  8
VISIBLE
 10
349.18377465848505
 20
176.49275404137995
 30
0.0
 11
349.10103866692674
 21
176.37999112935537
 31
0.0
  0
LINE
  8
VISIBLE
 10
349.10103866692674
 20
176.37999112935537
 30
0.0
 11
349.0091909436538
 21
176.2696044408259
 31
0.0
  0
LINE
  8
VISIBLE
 10
349.0091909436538
 20
176.2696044408259
 30
0.0
 11
348.90843555692334
 21
176.16183923412058
 31
0.0
  0
LINE
  8
VISIBLE
 10
348.90843555692334
 20
176.16183923412058
 30
0.0
 11
348.7606283824729
 21
176.02264308331115
 31
0.0
  0
LINE
  8
VISIBLE
 10
348.7606283824729
 20
176.02264308331115
 30
0.0
 11
348.576624005865
 21
175.8728096102822
 31
0.0
  0
LINE
  8
VISIBLE
 10
348.576624005865
 20
175.8728096102822
 30
0.0
 11
348.3868206935032
 21
175.73879343327852
 31
0.0
  0
LINE
  8
VISIBLE
 10
348.3868206935032
 20
175.73879343327852
 30
0.0
 11
348.1819805153395
 21
175.6123724356958
 31
0.0
  0
LINE
  8
VISIBLE
 10
339.34314575050763
 20
190.92168332809067
 30
0.0
 11
339.17881384628265
 21
190.83673739086117
 31
0.0
  0
LINE
  8
VISIBLE
 10
339.17881384628265
 20
190.83673739086117
 30
0.0
 11
338.9992795028676
 21
190.76275579171627
 31
0.0
  0
LINE
  8
VISIBLE
 10
338.9992795028676
 20
190.76275579171627
 30
0.0
 11
338.806726414951
 21
190.70063837645728
 31
0.0
  0
LINE
  8
VISIBLE
 10
338.806726414951
 20
190.70063837645728
 30
0.0
 11
338.6034966255502
 21
190.65114068559632
 31
0.0
  0
LINE
  8
VISIBLE
 10
338.6034966255502
 20
190.65114068559632
 30
0.0
 11
338.39206203950107
 21
190.61486476463944
 31
0.0
  0
LINE
  8
VISIBLE
 10
338.39206203950107
 20
190.61486476463944
 30
0.0
 11
338.174994357425
 21
190.59225184134513
 31
0.0
  0
LINE
  8
VISIBLE
 10
338.174994357425
 20
190.59225184134513
 30
0.0
 11
337.9549337958702
 21
190.58357695902575
 31
0.0
  0
LINE
  8
VISIBLE
 10
337.9549337958702
 20
190.58357695902575
 30
0.0
 11
337.7345569740856
 21
190.58894563116735
 31
0.0
  0
LINE
  8
VISIBLE
 10
337.7345569740856
 20
190.58894563116735
 30
0.0
 11
337.51654435802584
 21
190.60829255805837
 31
0.0
  0
LINE
  8
VISIBLE
 10
337.51654435802584
 20
190.60829255805837
 30
0.0
 11
337.3035476575683
 21
190.64138242103675
 31
0.0
  0
LINE
  8
VISIBLE
 10
337.3035476575683
 20
190.64138242103675
 30
0.0
 11
337.0981575734927
 21
190.68781274469492
 31
0.0
  0
LINE
  8
VISIBLE
 10
337.0981575734927
 20
190.68781274469492
 30
0.0
 11
336.90287228652124
 21
190.7470187922297
 31
0.0
  0
LINE
  8
VISIBLE
 10
336.90287228652124
 20
190.7470187922297
 30
0.0
 11
336.72006707168947
 21
190.81828043439407
 31
0.0
  0
LINE
  8
VISIBLE
 10
336.72006707168947
 20
190.81828043439407
 30
0.0
 11
336.5519654076314
 21
190.90073090850333
 31
0.0
  0
LINE
  8
VISIBLE
 10
336.5519654076314
 20
190.90073090850333
 30
0.0
 11
336.4006119321807
 21
190.99336736095876
 31
0.0
  0
LINE
  8
VISIBLE
 10
336.4006119321807
 20
190.99336736095876
 30
0.0
 11
336.2802396103725
 21
191.08452026668851
 31
0.0
  0
LINE
  8
VISIBLE
 10
336.2802396103725
 20
191.08452026668851
 30
0.0
 11
336.1857645085218
 21
191.17209203575914
 31
0.0
  0
LINE
  8
VISIBLE
 10
336.1857645085218
 20
191.17209203575914
 30
0.0
 11
336.1126156188221
 21
191.25479113517235
 31
0.0
  0
LINE
  8
VISIBLE
 10
336.1126156188221
 20
191.25479113517235
 30
0.0
 11
336.05681269616616
 21
191.33190881406162
 31
0.0
  0
LINE
  8
VISIBLE
 10
336.05681269616616
 20
191.33190881406162
 30
0.0
 11
336.01496840862757
 21
191.4031462536267
 31
0.0
  0
LINE
  8
VISIBLE
 10
336.01496840862757
 20
191.4031462536267
 30
0.0
 11
335.9842489437265
 21
191.46848435293168
 31
0.0
  0
LINE
  8
VISIBLE
 10
335.9842489437265
 20
191.46848435293168
 30
0.0
 11
335.9602147588022
 21
191.5347495905283
 31
0.0
  0
LINE
  8
VISIBLE
 10
335.9602147588022
 20
191.5347495905283
 30
0.0
 11
335.94294847669585
 21
191.60171416496485
 31
0.0
  0
LINE
  8
VISIBLE
 10
335.94294847669585
 20
191.60171416496485
 30
0.0
 11
335.9325094540819
 21
191.6691478706642
 31
0.0
  0
LINE
  8
VISIBLE
 10
335.9325094540819
 20
191.6691478706642
 30
0.0
 11
335.92982670466137
 21
191.70364844535882
 31
0.0
  0
LINE
  8
VISIBLE
 10
335.92982670466137
 20
191.70364844535882
 30
0.0
 11
335.9289321881345
 21
191.73817990901838
 31
0.0
  0
LINE
  8
VISIBLE
 10
335.9289321881345
 20
191.73817990901838
 30
0.0
 11
335.9322117914259
 21
191.80427997802425
 31
0.0
  0
LINE
  8
VISIBLE
 10
335.9322117914259
 20
191.80427997802425
 30
0.0
 11
335.9420398455023
 21
191.87016326502624
 31
0.0
  0
LINE
  8
VISIBLE
 10
335.9420398455023
 20
191.87016326502624
 30
0.0
 11
335.95838411824514
 21
191.93561369897947
 31
0.0
  0
LINE
  8
VISIBLE
 10
335.95838411824514
 20
191.93561369897947
 30
0.0
 11
335.98119100692384
 21
192.0004166284253
 31
0.0
  0
LINE
  8
VISIBLE
 10
335.98119100692384
 20
192.0004166284253
 30
0.0
 11
336.0103857139911
 21
192.0643595254631
 31
0.0
  0
LINE
  8
VISIBLE
 10
336.0103857139911
 20
192.0643595254631
 30
0.0
 11
336.0458724923897
 21
192.12723268275715
 31
0.0
  0
LINE
  8
VISIBLE
 10
336.0458724923897
 20
192.12723268275715
 30
0.0
 11
336.0875349595643
 21
192.18882990129396
 31
0.0
  0
LINE
  8
VISIBLE
 10
336.0875349595643
 20
192.18882990129396
 30
0.0
 11
336.1352364791505
 21
192.24894916663285
 31
0.0
  0
LINE
  8
VISIBLE
 10
336.1352364791505
 20
192.24894916663285
 30
0.0
 11
336.1888206090875
 21
192.30739331143334
 31
0.0
  0
LINE
  8
VISIBLE
 10
336.1888206090875
 20
192.30739331143334
 30
0.0
 11
336.24811161468654
 21
192.3639706620858
 31
0.0
  0
LINE
  8
VISIBLE
 10
336.24811161468654
 20
192.3639706620858
 30
0.0
 11
336.31291504497045
 21
192.41849566732475
 31
0.0
  0
LINE
  8
VISIBLE
 10
336.31291504497045
 20
192.41849566732475
 30
0.0
 11
336.38301837039603
 21
192.4707895067636
 31
0.0
  0
LINE
  8
VISIBLE
 10
336.38301837039603
 20
192.4707895067636
 30
0.0
 11
336.48433396493255
 21
192.53674862314003
 31
0.0
  0
LINE
  8
VISIBLE
 10
336.48433396493255
 20
192.53674862314003
 30
0.0
 11
336.60834815135894
 21
192.6053703536562
 31
0.0
  0
LINE
  8
VISIBLE
 10
336.60834815135894
 20
192.6053703536562
 30
0.0
 11
336.74210373954645
 21
192.66759517925053
 31
0.0
  0
LINE
  8
VISIBLE
 10
336.74210373954645
 20
192.66759517925053
 30
0.0
 11
336.8846140698914
 21
192.72296409314356
 31
0.0
  0
LINE
  8
VISIBLE
 10
336.8846140698914
 20
192.72296409314356
 30
0.0
 11
337.03482790268146
 21
192.7710686617784
 31
0.0
  0
LINE
  8
VISIBLE
 10
337.03482790268146
 20
192.7710686617784
 30
0.0
 11
337.19163717265565
 21
192.81155403766599
 31
0.0
  0
LINE
  8
VISIBLE
 10
337.19163717265565
 20
192.81155403766599
 30
0.0
 11
337.408970557503
 21
192.8531746627685
 31
0.0
  0
LINE
  8
VISIBLE
 10
337.408970557503
 20
192.8531746627685
 30
0.0
 11
337.6614716260098
 21
192.88250865661206
 31
0.0
  0
LINE
  8
VISIBLE
 10
337.6614716260098
 20
192.88250865661206
 30
0.0
 11
337.9184084102022
 21
192.89286446191556
 31
0.0
  0
LINE
  8
VISIBLE
 10
337.9184084102022
 20
192.89286446191556
 30
0.0
 11
338.1755197266189
 21
192.8840703322067
 31
0.0
  0
LINE
  8
VISIBLE
 10
338.1755197266189
 20
192.8840703322067
 30
0.0
 11
338.4285414972589
 21
192.85627211425555
 31
0.0
  0
LINE
  8
VISIBLE
 10
338.4285414972589
 20
192.85627211425555
 30
0.0
 11
338.6732774674373
 21
192.80993082926986
 31
0.0
  0
LINE
  8
VISIBLE
 10
338.6732774674373
 20
192.80993082926986
 30
0.0
 11
338.9056687988227
 21
192.7458150270615
 31
0.0
  0
LINE
  8
VISIBLE
 10
338.9056687988227
 20
192.7458150270615
 30
0.0
 11
339.12186138348386
 21
192.66498803998604
 31
0.0
  0
LINE
  8
VISIBLE
 10
339.12186138348386
 20
192.66498803998604
 30
0.0
 11
339.29961487492545
 21
192.5790582141517
 31
0.0
  0
LINE
  8
VISIBLE
 10
339.29961487492545
 20
192.5790582141517
 30
0.0
 11
339.4439088067772
 21
192.49202468635787
 31
0.0
  0
LINE
  8
VISIBLE
 10
339.4439088067772
 20
192.49202468635787
 30
0.0
 11
339.55971338332057
 21
192.40664897921476
 31
0.0
  0
LINE
  8
VISIBLE
 10
339.55971338332057
 20
192.40664897921476
 30
0.0
 11
339.65166693267435
 21
192.32474760899152
 31
0.0
  0
LINE
  8
VISIBLE
 10
339.65166693267435
 20
192.32474760899152
 30
0.0
 11
339.7239182935736
 21
192.24743586342004
 31
0.0
  0
LINE
  8
VISIBLE
 10
339.7239182935736
 20
192.24743586342004
 30
0.0
 11
339.7800724468174
 21
192.17532204558395
 31
0.0
  0
LINE
  8
VISIBLE
 10
339.7800724468174
 20
192.17532204558395
 30
0.0
 11
339.8275472989102
 21
192.10115863251528
 31
0.0
  0
LINE
  8
VISIBLE
 10
339.8275472989102
 20
192.10115863251528
 30
0.0
 11
339.8626690329991
 21
192.032946378625
 31
0.0
  0
LINE
  8
VISIBLE
 10
339.8626690329991
 20
192.032946378625
 30
0.0
 11
339.88800230473316
 21
191.97059066482956
 31
0.0
  0
LINE
  8
VISIBLE
 10
339.88800230473316
 20
191.97059066482956
 30
0.0
 11
339.90730826227013
 21
191.90751991146698
 31
0.0
  0
LINE
  8
VISIBLE
 10
339.90730826227013
 20
191.90751991146698
 30
0.0
 11
339.9205275085159
 21
191.8439281632752
 31
0.0
  0
LINE
  8
VISIBLE
 10
339.9205275085159
 20
191.8439281632752
 30
0.0
 11
339.92682991334004
 21
191.79110967260073
 31
0.0
  0
LINE
  8
VISIBLE
 10
339.92682991334004
 20
191.79110967260073
 30
0.0
 11
339.9289321881345
 21
191.73817990901838
 31
0.0
  0
LINE
  8
VISIBLE
 10
339.9289321881345
 20
191.73817990901838
 30
0.0
 11
339.9261223222609
 21
191.67699285115924
 31
0.0
  0
LINE
  8
VISIBLE
 10
339.9261223222609
 20
191.67699285115924
 30
0.0
 11
339.91770061998614
 21
191.61597772072588
 31
0.0
  0
LINE
  8
VISIBLE
 10
339.91770061998614
 20
191.61597772072588
 30
0.0
 11
339.90369074516417
 21
191.5553059620511
 31
0.0
  0
LINE
  8
VISIBLE
 10
339.90369074516417
 20
191.5553059620511
 30
0.0
 11
339.8841320636641
 21
191.4951480546391
 31
0.0
  0
LINE
  8
VISIBLE
 10
339.8841320636641
 20
191.4951480546391
 30
0.0
 11
339.8590795327576
 21
191.4356730341409
 31
0.0
  0
LINE
  8
VISIBLE
 10
339.8590795327576
 20
191.4356730341409
 30
0.0
 11
339.82860354669634
 21
191.37704801738698
 31
0.0
  0
LINE
  8
VISIBLE
 10
339.82860354669634
 20
191.37704801738698
 30
0.0
 11
339.79278973891354
 21
191.31943773281122
 31
0.0
  0
LINE
  8
VISIBLE
 10
339.79278973891354
 20
191.31943773281122
 30
0.0
 11
339.7517387414054
 21
191.26300405758627
 31
0.0
  0
LINE
  8
VISIBLE
 10
339.7517387414054
 20
191.26300405758627
 30
0.0
 11
339.705565901969
 21
191.20790556277024
 31
0.0
  0
LINE
  8
VISIBLE
 10
339.705565901969
 20
191.20790556277024
 30
0.0
 11
339.65440096009013
 21
191.15429706774339
 31
0.0
  0
LINE
  8
VISIBLE
 10
339.65440096009013
 20
191.15429706774339
 30
0.0
 11
339.59838768239285
 21
191.10232920518644
 31
0.0
  0
LINE
  8
VISIBLE
 10
339.59838768239285
 20
191.10232920518644
 30
0.0
 11
339.5376834586747
 21
191.05214799782294
 31
0.0
  0
LINE
  8
VISIBLE
 10
339.5376834586747
 20
191.05214799782294
 30
0.0
 11
339.4446316530001
 21
190.9848196295137
 31
0.0
  0
LINE
  8
VISIBLE
 10
339.4446316530001
 20
190.9848196295137
 30
0.0
 11
339.34314575050763
 21
190.92168332809067
 31
0.0
  0
LINE
  8
VISIBLE
 10
371.16295090390224
 20
172.5505102572168
 30
0.0
 11
370.9986189996773
 21
172.46556431998732
 31
0.0
  0
LINE
  8
VISIBLE
 10
370.9986189996773
 20
172.46556431998732
 30
0.0
 11
370.81908465626225
 21
172.39158272084245
 31
0.0
  0
LINE
  8
VISIBLE
 10
370.81908465626225
 20
172.39158272084245
 30
0.0
 11
370.6265315683456
 21
172.32946530558345
 31
0.0
  0
LINE
  8
VISIBLE
 10
370.6265315683456
 20
172.32946530558345
 30
0.0
 11
370.42330177894485
 21
172.2799676147225
 31
0.0
  0
LINE
  8
VISIBLE
 10
370.42330177894485
 20
172.2799676147225
 30
0.0
 11
370.2118671928957
 21
172.2436916937656
 31
0.0
  0
LINE
  8
VISIBLE
 10
370.2118671928957
 20
172.2436916937656
 30
0.0
 11
369.9947995108197
 21
172.2210787704713
 31
0.0
  0
LINE
  8
VISIBLE
 10
369.9947995108197
 20
172.2210787704713
 30
0.0
 11
369.7747389492649
 21
172.2124038881519
 31
0.0
  0
LINE
  8
VISIBLE
 10
369.7747389492649
 20
172.2124038881519
 30
0.0
 11
369.5543621274802
 21
172.2177725602935
 31
0.0
  0
LINE
  8
VISIBLE
 10
369.5543621274802
 20
172.2177725602935
 30
0.0
 11
369.3363495114205
 21
172.23711948718454
 31
0.0
  0
LINE
  8
VISIBLE
 10
369.3363495114205
 20
172.23711948718454
 30
0.0
 11
369.12335281096296
 21
172.27020935016293
 31
0.0
  0
LINE
  8
VISIBLE
 10
369.12335281096296
 20
172.27020935016293
 30
0.0
 11
368.9179627268873
 21
172.3166396738211
 31
0.0
  0
LINE
  8
VISIBLE
 10
368.9179627268873
 20
172.3166396738211
 30
0.0
 11
368.7226774399159
 21
172.37584572135586
 31
0.0
  0
LINE
  8
VISIBLE
 10
368.7226774399159
 20
172.37584572135586
 30
0.0
 11
368.5398722250841
 21
172.44710736352025
 31
0.0
  0
LINE
  8
VISIBLE
 10
368.5398722250841
 20
172.44710736352025
 30
0.0
 11
368.3717705610261
 21
172.52955783762948
 31
0.0
  0
LINE
  8
VISIBLE
 10
368.3717705610261
 20
172.52955783762948
 30
0.0
 11
368.2204170855754
 21
172.6221942900849
 31
0.0
  0
LINE
  8
VISIBLE
 10
368.2204170855754
 20
172.6221942900849
 30
0.0
 11
368.1000447637672
 21
172.71334719581466
 31
0.0
  0
LINE
  8
VISIBLE
 10
368.1000447637672
 20
172.71334719581466
 30
0.0
 11
368.0055696619164
 21
172.8009189648853
 31
0.0
  0
LINE
  8
VISIBLE
 10
368.0055696619164
 20
172.8009189648853
 30
0.0
 11
367.93242077221674
 21
172.88361806429853
 31
0.0
  0
LINE
  8
VISIBLE
 10
367.93242077221674
 20
172.88361806429853
 30
0.0
 11
367.87661784956083
 21
172.96073574318777
 31
0.0
  0
LINE
  8
VISIBLE
 10
367.87661784956083
 20
172.96073574318777
 30
0.0
 11
367.8347735620222
 21
173.03197318275284
 31
0.0
  0
LINE
  8
VISIBLE
 10
367.8347735620222
 20
173.03197318275284
 30
0.0
 11
367.80405409712114
 21
173.09731128205786
 31
0.0
  0
LINE
  8
VISIBLE
 10
367.80405409712114
 20
173.09731128205786
 30
0.0
 11
367.7800199121968
 21
173.16357651965444
 31
0.0
  0
LINE
  8
VISIBLE
 10
367.7800199121968
 20
173.16357651965444
 30
0.0
 11
367.7627536300905
 21
173.230541094091
 31
0.0
  0
LINE
  8
VISIBLE
 10
367.7627536300905
 20
173.230541094091
 30
0.0
 11
367.7523146074766
 21
173.29797479979035
 31
0.0
  0
LINE
  8
VISIBLE
 10
367.7523146074766
 20
173.29797479979035
 30
0.0
 11
367.749631858056
 21
173.33247537448497
 31
0.0
  0
LINE
  8
VISIBLE
 10
367.749631858056
 20
173.33247537448497
 30
0.0
 11
367.7487373415292
 21
173.36700683814453
 31
0.0
  0
LINE
  8
VISIBLE
 10
367.7487373415292
 20
173.36700683814453
 30
0.0
 11
367.7520169448205
 21
173.4331069071504
 31
0.0
  0
LINE
  8
VISIBLE
 10
367.7520169448205
 20
173.4331069071504
 30
0.0
 11
367.7618449988969
 21
173.4989901941524
 31
0.0
  0
LINE
  8
VISIBLE
 10
367.7618449988969
 20
173.4989901941524
 30
0.0
 11
367.7781892716398
 21
173.56444062810564
 31
0.0
  0
LINE
  8
VISIBLE
 10
367.7781892716398
 20
173.56444062810564
 30
0.0
 11
367.80099616031845
 21
173.6292435575515
 31
0.0
  0
LINE
  8
VISIBLE
 10
367.80099616031845
 20
173.6292435575515
 30
0.0
 11
367.8301908673858
 21
173.69318645458924
 31
0.0
  0
LINE
  8
VISIBLE
 10
367.8301908673858
 20
173.69318645458924
 30
0.0
 11
367.8656776457844
 21
173.75605961188333
 31
0.0
  0
LINE
  8
VISIBLE
 10
367.8656776457844
 20
173.75605961188333
 30
0.0
 11
367.907340112959
 21
173.81765683042013
 31
0.0
  0
LINE
  8
VISIBLE
 10
367.907340112959
 20
173.81765683042013
 30
0.0
 11
367.9550416325451
 21
173.87777609575903
 31
0.0
  0
LINE
  8
VISIBLE
 10
367.9550416325451
 20
173.87777609575903
 30
0.0
 11
368.00862576248215
 21
173.93622024055952
 31
0.0
  0
LINE
  8
VISIBLE
 10
368.00862576248215
 20
173.93622024055952
 30
0.0
 11
368.0679167680812
 21
173.99279759121194
 31
0.0
  0
LINE
  8
VISIBLE
 10
368.0679167680812
 20
173.99279759121194
 30
0.0
 11
368.1327201983651
 21
174.0473225964509
 31
0.0
  0
LINE
  8
VISIBLE
 10
368.1327201983651
 20
174.0473225964509
 30
0.0
 11
368.2028235237907
 21
174.09961643588974
 31
0.0
  0
LINE
  8
VISIBLE
 10
368.2028235237907
 20
174.09961643588974
 30
0.0
 11
368.30413911832716
 21
174.16557555226618
 31
0.0
  0
LINE
  8
VISIBLE
 10
368.30413911832716
 20
174.16557555226618
 30
0.0
 11
368.42815330475355
 21
174.2341972827824
 31
0.0
  0
LINE
  8
VISIBLE
 10
368.42815330475355
 20
174.2341972827824
 30
0.0
 11
368.5619088929411
 21
174.29642210837667
 31
0.0
  0
LINE
  8
VISIBLE
 10
368.5619088929411
 20
174.29642210837667
 30
0.0
 11
368.70441922328604
 21
174.3517910222697
 31
0.0
  0
LINE
  8
VISIBLE
 10
368.70441922328604
 20
174.3517910222697
 30
0.0
 11
368.8546330560761
 21
174.39989559090458
 31
0.0
  0
LINE
  8
VISIBLE
 10
368.8546330560761
 20
174.39989559090458
 30
0.0
 11
369.0114423260503
 21
174.44038096679213
 31
0.0
  0
LINE
  8
VISIBLE
 10
369.0114423260503
 20
174.44038096679213
 30
0.0
 11
369.2287757108976
 21
174.4820015918947
 31
0.0
  0
LINE
  8
VISIBLE
 10
369.2287757108976
 20
174.4820015918947
 30
0.0
 11
369.4812767794045
 21
174.51133558573824
 31
0.0
  0
LINE
  8
VISIBLE
 10
369.4812767794045
 20
174.51133558573824
 30
0.0
 11
369.73821356359684
 21
174.5216913910417
 31
0.0
  0
LINE
  8
VISIBLE
 10
369.73821356359684
 20
174.5216913910417
 30
0.0
 11
369.9953248800136
 21
174.51289726133288
 31
0.0
  0
LINE
  8
VISIBLE
 10
369.9953248800136
 20
174.51289726133288
 30
0.0
 11
370.2483466506535
 21
174.48509904338172
 31
0.0
  0
LINE
  8
VISIBLE
 10
370.2483466506535
 20
174.48509904338172
 30
0.0
 11
370.49308262083196
 21
174.43875775839604
 31
0.0
  0
LINE
  8
VISIBLE
 10
370.49308262083196
 20
174.43875775839604
 30
0.0
 11
370.7254739522174
 21
174.37464195618767
 31
0.0
  0
LINE
  8
VISIBLE
 10
370.7254739522174
 20
174.37464195618767
 30
0.0
 11
370.94166653687853
 21
174.2938149691122
 31
0.0
  0
LINE
  8
VISIBLE
 10
370.94166653687853
 20
174.2938149691122
 30
0.0
 11
371.1194200283201
 21
174.20788514327785
 31
0.0
  0
LINE
  8
VISIBLE
 10
371.1194200283201
 20
174.20788514327785
 30
0.0
 11
371.26371396017186
 21
174.120851615484
 31
0.0
  0
LINE
  8
VISIBLE
 10
371.26371396017186
 20
174.120851615484
 30
0.0
 11
371.3795185367152
 21
174.03547590834094
 31
0.0
  0
LINE
  8
VISIBLE
 10
371.3795185367152
 20
174.03547590834094
 30
0.0
 11
371.471472086069
 21
173.95357453811766
 31
0.0
  0
LINE
  8
VISIBLE
 10
371.471472086069
 20
173.95357453811766
 30
0.0
 11
371.5437234469683
 21
173.87626279254619
 31
0.0
  0
LINE
  8
VISIBLE
 10
371.5437234469683
 20
173.87626279254619
 30
0.0
 11
371.5998776002121
 21
173.80414897471013
 31
0.0
  0
LINE
  8
VISIBLE
 10
371.5998776002121
 20
173.80414897471013
 30
0.0
 11
371.64735245230486
 21
173.72998556164146
 31
0.0
  0
LINE
  8
VISIBLE
 10
371.64735245230486
 20
173.72998556164146
 30
0.0
 11
371.6824741863938
 21
173.6617733077512
 31
0.0
  0
LINE
  8
VISIBLE
 10
371.6824741863938
 20
173.6617733077512
 30
0.0
 11
371.70780745812783
 21
173.5994175939557
 31
0.0
  0
LINE
  8
VISIBLE
 10
371.70780745812783
 20
173.5994175939557
 30
0.0
 11
371.72711341566475
 21
173.53634684059315
 31
0.0
  0
LINE
  8
VISIBLE
 10
371.72711341566475
 20
173.53634684059315
 30
0.0
 11
371.74033266191054
 21
173.47275509240134
 31
0.0
  0
LINE
  8
VISIBLE
 10
371.74033266191054
 20
173.47275509240134
 30
0.0
 11
371.7466350667347
 21
173.41993660172687
 31
0.0
  0
LINE
  8
VISIBLE
 10
371.7466350667347
 20
173.41993660172687
 30
0.0
 11
371.7487373415292
 21
173.36700683814453
 31
0.0
  0
LINE
  8
VISIBLE
 10
371.7487373415292
 20
173.36700683814453
 30
0.0
 11
371.74592747565555
 21
173.30581978028542
 31
0.0
  0
LINE
  8
VISIBLE
 10
371.74592747565555
 20
173.30581978028542
 30
0.0
 11
371.7375057733808
 21
173.24480464985206
 31
0.0
  0
LINE
  8
VISIBLE
 10
371.7375057733808
 20
173.24480464985206
 30
0.0
 11
371.72349589855884
 21
173.18413289117728
 31
0.0
  0
LINE
  8
VISIBLE
 10
371.72349589855884
 20
173.18413289117728
 30
0.0
 11
371.70393721705875
 21
173.12397498376527
 31
0.0
  0
LINE
  8
VISIBLE
 10
371.70393721705875
 20
173.12397498376527
 30
0.0
 11
371.6788846861523
 21
173.06449996326705
 31
0.0
  0
LINE
  8
VISIBLE
 10
371.6788846861523
 20
173.06449996326705
 30
0.0
 11
371.648408700091
 21
173.00587494651313
 31
0.0
  0
LINE
  8
VISIBLE
 10
371.648408700091
 20
173.00587494651313
 30
0.0
 11
371.61259489230815
 21
172.9482646619374
 31
0.0
  0
LINE
  8
VISIBLE
 10
371.61259489230815
 20
172.9482646619374
 30
0.0
 11
371.5715438948001
 21
172.89183098671242
 31
0.0
  0
LINE
  8
VISIBLE
 10
371.5715438948001
 20
172.89183098671242
 30
0.0
 11
371.5253710553636
 21
172.83673249189638
 31
0.0
  0
LINE
  8
VISIBLE
 10
371.5253710553636
 20
172.83673249189638
 30
0.0
 11
371.47420611348474
 21
172.78312399686956
 31
0.0
  0
LINE
  8
VISIBLE
 10
371.47420611348474
 20
172.78312399686956
 30
0.0
 11
371.4181928357875
 21
172.7311561343126
 31
0.0
  0
LINE
  8
VISIBLE
 10
371.4181928357875
 20
172.7311561343126
 30
0.0
 11
371.35748861206935
 21
172.68097492694912
 31
0.0
  0
LINE
  8
VISIBLE
 10
371.35748861206935
 20
172.68097492694912
 30
0.0
 11
371.26443680639477
 21
172.61364655863986
 31
0.0
  0
LINE
  8
VISIBLE
 10
371.26443680639477
 20
172.61364655863986
 30
0.0
 11
371.16295090390224
 21
172.5505102572168
 31
0.0
  0
LINE
  8
VISIBLE
 10
342.50901625858376
 20
175.2857738033247
 30
0.0
 11
342.502783953317
 21
175.34015028219918
 31
0.0
  0
LINE
  8
VISIBLE
 10
342.502783953317
 20
175.34015028219918
 30
0.0
 11
342.5006960852362
 21
175.3741898032875
 31
0.0
  0
LINE
  8
VISIBLE
 10
342.5006960852362
 20
175.3741898032875
 30
0.0
 11
342.5
 21
175.40824829046386
 31
0.0
  0
LINE
  8
VISIBLE
 10
342.5
 20
175.40824829046386
 30
0.0
 11
342.5040489066181
 21
175.49036231574914
 31
0.0
  0
LINE
  8
VISIBLE
 10
342.5040489066181
 20
175.49036231574914
 30
0.0
 11
342.5161825115565
 21
175.5722103634181
 31
0.0
  0
LINE
  8
VISIBLE
 10
342.5161825115565
 20
175.5722103634181
 30
0.0
 11
342.53636151254864
 21
175.6535273173892
 31
0.0
  0
LINE
  8
VISIBLE
 10
342.53636151254864
 20
175.6535273173892
 30
0.0
 11
342.56452054728186
 21
175.73404978185997
 31
0.0
  0
LINE
  8
VISIBLE
 10
342.56452054728186
 20
175.73404978185997
 30
0.0
 11
342.6005684051146
 21
175.813516934479
 31
0.0
  0
LINE
  8
VISIBLE
 10
342.6005684051146
 20
175.813516934479
 30
0.0
 11
342.64438832251864
 21
175.89167137118216
 31
0.0
  0
LINE
  8
VISIBLE
 10
342.64438832251864
 20
175.89167137118216
 30
0.0
 11
342.6958383612912
 21
175.9682599399566
 31
0.0
  0
LINE
  8
VISIBLE
 10
342.6958383612912
 20
175.9682599399566
 30
0.0
 11
342.7547518683102
 21
176.04303456083198
 31
0.0
  0
LINE
  8
VISIBLE
 10
342.7547518683102
 20
176.04303456083198
 30
0.0
 11
342.820938015345
 21
176.11575302944246
 31
0.0
  0
LINE
  8
VISIBLE
 10
342.820938015345
 20
176.11575302944246
 30
0.0
 11
342.8941824171725
 21
176.1861798015569
 31
0.0
  0
LINE
  8
VISIBLE
 10
342.8941824171725
 20
176.1861798015569
 30
0.0
 11
342.9742478259981
 21
176.25408675603643
 31
0.0
  0
LINE
  8
VISIBLE
 10
342.9742478259981
 20
176.25408675603643
 30
0.0
 11
343.0608748999308
 21
176.31925393374706
 31
0.0
  0
LINE
  8
VISIBLE
 10
343.0608748999308
 20
176.31925393374706
 30
0.0
 11
343.1860967703844
 21
176.40151815536967
 31
0.0
  0
LINE
  8
VISIBLE
 10
343.1860967703844
 20
176.40151815536967
 30
0.0
 11
343.33941582985676
 21
176.4872076987009
 31
0.0
  0
LINE
  8
VISIBLE
 10
343.33941582985676
 20
176.4872076987009
 30
0.0
 11
343.5048331955287
 21
176.56503640514563
 31
0.0
  0
LINE
  8
VISIBLE
 10
343.5048331955287
 20
176.56503640514563
 30
0.0
 11
343.6811437072062
 21
176.6344372480282
 31
0.0
  0
LINE
  8
VISIBLE
 10
343.6811437072062
 20
176.6344372480282
 30
0.0
 11
343.8670628418914
 21
176.6949046024831
 31
0.0
  0
LINE
  8
VISIBLE
 10
343.8670628418914
 20
176.6949046024831
 30
0.0
 11
344.0612360722679
 21
176.74599792922155
 31
0.0
  0
LINE
  8
VISIBLE
 10
344.0612360722679
 20
176.74599792922155
 30
0.0
 11
344.330520940149
 21
176.7989073414682
 31
0.0
  0
LINE
  8
VISIBLE
 10
344.330520940149
 20
176.7989073414682
 30
0.0
 11
344.64364798004164
 21
176.83688554765124
 31
0.0
  0
LINE
  8
VISIBLE
 10
344.64364798004164
 20
176.83688554765124
 30
0.0
 11
344.9626120988367
 21
176.85146254400198
 31
0.0
  0
LINE
  8
VISIBLE
 10
344.9626120988367
 20
176.85146254400198
 30
0.0
 11
345.2821886348958
 21
176.8423995579778
 31
0.0
  0
LINE
  8
VISIBLE
 10
345.2821886348958
 20
176.8423995579778
 30
0.0
 11
345.5971428951293
 21
176.80984504212446
 31
0.0
  0
LINE
  8
VISIBLE
 10
345.5971428951293
 20
176.80984504212446
 30
0.0
 11
345.9023158997512
 21
176.75433224240945
 31
0.0
  0
LINE
  8
VISIBLE
 10
345.9023158997512
 20
176.75433224240945
 30
0.0
 11
346.1927088868432
 21
176.6767704636041
 31
0.0
  0
LINE
  8
VISIBLE
 10
346.1927088868432
 20
176.6767704636041
 30
0.0
 11
346.46356519253516
 21
176.57843017478777
 31
0.0
  0
LINE
  8
VISIBLE
 10
346.46356519253516
 20
176.57843017478777
 30
0.0
 11
346.6869573113057
 21
176.47348301105086
 31
0.0
  0
LINE
  8
VISIBLE
 10
346.6869573113057
 20
176.47348301105086
 30
0.0
 11
346.86894686990826
 21
176.3668997039019
 31
0.0
  0
LINE
  8
VISIBLE
 10
346.86894686990826
 20
176.3668997039019
 30
0.0
 11
347.0156076589738
 21
176.2621268464436
 31
0.0
  0
LINE
  8
VISIBLE
 10
347.0156076589738
 20
176.2621268464436
 30
0.0
 11
347.1326242468584
 21
176.16144455123336
 31
0.0
  0
LINE
  8
VISIBLE
 10
347.1326242468584
 20
176.16144455123336
 30
0.0
 11
347.2345917907121
 21
176.05544726267206
 31
0.0
  0
LINE
  8
VISIBLE
 10
347.2345917907121
 20
176.05544726267206
 30
0.0
 11
347.31289866717555
 21
175.95612289758293
 31
0.0
  0
LINE
  8
VISIBLE
 10
347.31289866717555
 20
175.95612289758293
 30
0.0
 11
347.3720815751708
 21
175.8640366187974
 31
0.0
  0
LINE
  8
VISIBLE
 10
347.3720815751708
 20
175.8640366187974
 30
0.0
 11
347.4159611702596
 21
175.77934200001164
 31
0.0
  0
LINE
  8
VISIBLE
 10
347.4159611702596
 20
175.77934200001164
 30
0.0
 11
347.4477081578033
 21
175.70191747748854
 31
0.0
  0
LINE
  8
VISIBLE
 10
347.4477081578033
 20
175.70191747748854
 30
0.0
 11
347.472017425263
 21
175.62360059808725
 31
0.0
  0
LINE
  8
VISIBLE
 10
347.472017425263
 20
175.62360059808725
 30
0.0
 11
347.48881510536563
 21
175.5446293391275
 31
0.0
  0
LINE
  8
VISIBLE
 10
347.48881510536563
 20
175.5446293391275
 30
0.0
 11
347.49720221081657
 21
175.4765152133791
 31
0.0
  0
LINE
  8
VISIBLE
 10
347.49720221081657
 20
175.4765152133791
 30
0.0
 11
347.5
 21
175.40824829046386
 31
0.0
  0
LINE
  8
VISIBLE
 10
347.5
 20
175.40824829046386
 30
0.0
 11
347.49821815080134
 21
175.35376260119065
 31
0.0
  0
LINE
  8
VISIBLE
 10
347.49821815080134
 20
175.35376260119065
 30
0.0
 11
347.49529572151346
 21
175.31974355952306
 31
0.0
  0
LINE
  8
VISIBLE
 10
347.49529572151346
 20
175.31974355952306
 30
0.0
 11
347.49098374141624
 21
175.2857738033247
 31
0.0
  0
LINE
  8
VISIBLE
 10
340.8617636606883
 20
176.4288690166235
 30
0.0
 11
341.0027746263664
 21
176.60158944207413
 31
0.0
  0
LINE
  8
VISIBLE
 10
341.0027746263664
 20
176.60158944207413
 30
0.0
 11
341.16537675364526
 21
176.76786399088758
 31
0.0
  0
LINE
  8
VISIBLE
 10
341.16537675364526
 20
176.76786399088758
 30
0.0
 11
341.3486917410837
 21
176.92679452490103
 31
0.0
  0
LINE
  8
VISIBLE
 10
341.3486917410837
 20
176.92679452490103
 30
0.0
 11
341.55172940595554
 21
177.07752257492086
 31
0.0
  0
LINE
  8
VISIBLE
 10
341.55172940595554
 20
177.07752257492086
 30
0.0
 11
341.7733930327585
 21
177.21923397777604
 31
0.0
  0
LINE
  8
VISIBLE
 10
341.7733930327585
 20
177.21923397777604
 30
0.0
 11
342.01248529716383
 21
177.3511632740506
 31
0.0
  0
LINE
  8
VISIBLE
 10
342.01248529716383
 20
177.3511632740506
 30
0.0
 11
342.2677147334082
 21
177.47259784274138
 31
0.0
  0
LINE
  8
VISIBLE
 10
342.2677147334082
 20
177.47259784274138
 30
0.0
 11
342.63072846492645
 21
177.61706036886633
 31
0.0
  0
LINE
  8
VISIBLE
 10
342.63072846492645
 20
177.61706036886633
 30
0.0
 11
343.06612223084494
 21
177.75417502802182
 31
0.0
  0
LINE
  8
VISIBLE
 10
343.06612223084494
 20
177.75417502802182
 30
0.0
 11
343.52500607187295
 21
177.86279461052578
 31
0.0
  0
LINE
  8
VISIBLE
 10
343.52500607187295
 20
177.86279461052578
 30
0.0
 11
344.00180610114745
 21
177.94159975576918
 31
0.0
  0
LINE
  8
VISIBLE
 10
344.00180610114745
 20
177.94159975576918
 30
0.0
 11
344.4907308107052
 21
177.98963324773229
 31
0.0
  0
LINE
  8
VISIBLE
 10
344.4907308107052
 20
177.98963324773229
 30
0.0
 11
344.9858414187196
 21
178.00631164192242
 31
0.0
  0
LINE
  8
VISIBLE
 10
344.9858414187196
 20
178.00631164192242
 30
0.0
 11
345.4811240056165
 21
177.9914323522514
 31
0.0
  0
LINE
  8
VISIBLE
 10
345.4811240056165
 20
177.9914323522514
 30
0.0
 11
345.97056256286004
 21
177.94517611177153
 31
0.0
  0
LINE
  8
VISIBLE
 10
345.97056256286004
 20
177.94517611177153
 30
0.0
 11
346.44821206711185
 21
177.8681047773801
 31
0.0
  0
LINE
  8
VISIBLE
 10
346.44821206711185
 20
177.8681047773801
 30
0.0
 11
346.9082706921605
 21
177.76115450515817
 31
0.0
  0
LINE
  8
VISIBLE
 10
346.9082706921605
 20
177.76115450515817
 30
0.0
 11
347.34515028148974
 21
177.62562437924004
 31
0.0
  0
LINE
  8
VISIBLE
 10
347.34515028148974
 20
177.62562437924004
 30
0.0
 11
347.7535442254829
 21
177.4631606323339
 31
0.0
  0
LINE
  8
VISIBLE
 10
347.7535442254829
 20
177.4631606323339
 30
0.0
 11
348.12849191878456
 21
177.27573664956188
 31
0.0
  0
LINE
  8
VISIBLE
 10
348.12849191878456
 20
177.27573664956188
 30
0.0
 11
348.46543901487996
 21
177.0656289985037
 31
0.0
  0
LINE
  8
VISIBLE
 10
348.46543901487996
 20
177.0656289985037
 30
0.0
 11
348.7076833149542
 21
176.88055763703593
 31
0.0
  0
LINE
  8
VISIBLE
 10
348.7076833149542
 20
176.88055763703593
 30
0.0
 11
348.90566722921415
 21
176.69869569280704
 31
0.0
  0
LINE
  8
VISIBLE
 10
348.90566722921415
 20
176.69869569280704
 30
0.0
 11
349.02873441434417
 21
176.56573105040445
 31
0.0
  0
LINE
  8
VISIBLE
 10
349.02873441434417
 20
176.56573105040445
 30
0.0
 11
349.13823633931173
 21
176.42886901662354
 31
0.0
  0
LINE
  8
VISIBLE
 10
40.0
 20
229.0
 30
0.0
 11
40.0
 21
241.0
 31
0.0
  0
LINE
  8
VISIBLE
 10
160.0
 20
229.0
 30
0.0
 11
105.0
 21
229.0
 31
0.0
  0
LINE
  8
VISIBLE
 10
95.0
 20
229.0
 30
0.0
 11
105.0
 21
229.0
 31
0.0
  0
LINE
  8
VISIBLE
 10
95.0
 20
229.0
 30
0.0
 11
40.0
 21
229.0
 31
0.0
  0
LINE
  8
VISIBLE
 10
95.0
 20
236.0
 30
0.0
 11
95.0
 21
229.0
 31
0.0
  0
LINE
  8
VISIBLE
 10
91.0
 20
236.0
 30
0.0
 11
95.0
 21
236.0
 31
0.0
  0
LINE
  8
VISIBLE
 10
91.0
 20
241.0
 30
0.0
 11
91.0
 21
236.0
 31
0.0
  0
LINE
  8
VISIBLE
 10
91.0
 20
241.0
 30
0.0
 11
40.0
 21
241.0
 31
0.0
  0
LINE
  8
VISIBLE
 10
160.0
 20
241.0
 30
0.0
 11
109.0
 21
241.0
 31
0.0
  0
LINE
  8
VISIBLE
 10
91.0
 20
241.0
 30
0.0
 11
109.0
 21
241.0
 31
0.0
  0
LINE
  8
VISIBLE
 10
160.0
 20
241.0
 30
0.0
 11
160.0
 21
229.0
 31
0.0
  0
LINE
  8
VISIBLE
 10
105.0
 20
236.0
 30
0.0
 11
105.0
 21
229.0
 31
0.0
  0
LINE
  8
VISIBLE
 10
109.0
 20
241.0
 30
0.0
 11
109.0
 21
236.0
 31
0.0
  0
LINE
  8
VISIBLE
 10
105.0
 20
236.0
 30
0.0
 11
109.0
 21
236.0
 31
0.0
  0
LINE
  8
VISIBLE
 10
95.0
 20
236.0
 30
0.0
 11
105.0
 21
236.0
 31
0.0
  0
LINE
  8
HATCH
 10
158.79393923933998
 20
229.0
 30
0.0
 11
159.99999999999997
 21
230.20606076066
 31
0.0
  0
LINE
  8
HATCH
 10
154.5512985522207
 20
229.0
 30
0.0
 11
159.99999999999997
 21
234.44870144777929
 31
0.0
  0
LINE
  8
HATCH
 10
150.3086578651014
 20
229.0
 30
0.0
 11
159.99999999999997
 21
238.69134213489858
 31
0.0
  0
LINE
  8
HATCH
 10
146.06601717798213
 20
229.0
 30
0.0
 11
158.06601717798213
 21
241.0
 31
0.0
  0
LINE
  8
HATCH
 10
141.82337649086284
 20
229.0
 30
0.0
 11
153.82337649086284
 21
241.0
 31
0.0
  0
LINE
  8
HATCH
 10
137.58073580374355
 20
229.0
 30
0.0
 11
149.58073580374355
 21
241.0
 31
0.0
  0
LINE
  8
HATCH
 10
133.33809511662426
 20
229.0
 30
0.0
 11
145.33809511662426
 21
241.0
 31
0.0
  0
LINE
  8
HATCH
 10
129.09545442950497
 20
229.0
 30
0.0
 11
141.09545442950497
 21
241.0
 31
0.0
  0
LINE
  8
HATCH
 10
124.85281374238569
 20
229.0
 30
0.0
 11
136.8528137423857
 21
241.0
 31
0.0
  0
LINE
  8
HATCH
 10
120.61017305526642
 20
229.0
 30
0.0
 11
132.61017305526642
 21
241.0
 31
0.0
  0
LINE
  8
HATCH
 10
116.36753236814712
 20
229.0
 30
0.0
 11
128.36753236814712
 21
241.0
 31
0.0
  0
LINE
  8
HATCH
 10
112.12489168102785
 20
229.0
 30
0.0
 11
124.12489168102785
 21
241.0
 31
0.0
  0
LINE
  8
HATCH
 10
107.88225099390856
 20
229.0
 30
0.0
 11
119.88225099390854
 21
241.0
 31
0.0
  0
LINE
  8
HATCH
 10
104.99999999999999
 20
230.36038969321072
 30
0.0
 11
115.63961030678927
 21
241.0
 31
0.0
  0
LINE
  8
HATCH
 10
104.99999999999999
 20
234.60303038032998
 30
0.0
 11
106.39696961966999
 21
236.0
 31
0.0
  0
LINE
  8
HATCH
 10
108.99999999999999
 20
238.60303038032998
 30
0.0
 11
111.39696961966999
 21
241.0
 31
0.0
  0
LINE
  8
HATCH
 10
90.91168824543142
 20
229.0
 30
0.0
 11
94.99999999999999
 21
233.08831175456856
 31
0.0
  0
LINE
  8
HATCH
 10
86.66904755831213
 20
229.0
 30
0.0
 11
93.66904755831213
 21
236.0
 31
0.0
  0
LINE
  8
HATCH
 10
82.42640687119285
 20
229.0
 30
0.0
 11
91.0
 21
237.57359312880715
 31
0.0
  0
LINE
  8
HATCH
 10
78.18376618407356
 20
229.0
 30
0.0
 11
90.18376618407355
 21
241.0
 31
0.0
  0
LINE
  8
HATCH
 10
73.94112549695427
 20
229.0
 30
0.0
 11
85.94112549695427
 21
241.0
 31
0.0
  0
LINE
  8
HATCH
 10
69.698484809835
 20
229.0
 30
0.0
 11
81.698484809835
 21
241.0
 31
0.0
  0
LINE
  8
HATCH
 10
65.45584412271572
 20
229.0
 30
0.0
 11
77.4558441227157
 21
241.0
 31
0.0
  0
LINE
  8
HATCH
 10
61.21320343559643
 20
229.0
 30
0.0
 11
73.21320343559643
 21
241.0
 31
0.0
  0
LINE
  8
HATCH
 10
56.970562748477136
 20
229.0
 30
0.0
 11
68.97056274847714
 21
241.0
 31
0.0
  0
LINE
  8
HATCH
 10
52.72792206135786
 20
229.0
 30
0.0
 11
64.72792206135784
 21
241.0
 31
0.0
  0
LINE
  8
HATCH
 10
48.48528137423857
 20
229.0
 30
0.0
 11
60.48528137423857
 21
241.0
 31
0.0
  0
LINE
  8
HATCH
 10
44.242640687119284
 20
229.0
 30
0.0
 11
56.24264068711928
 21
241.0
 31
0.0
  0
LINE
  8
HATCH
 10
40.0
 20
229.0
 30
0.0
 11
52.0
 21
241.0
 31
0.0
  0
LINE
  8
HATCH
 10
40.0
 20
233.2426406871193
 30
0.0
 11
47.75735931288071
 21
241.0
 31
0.0
  0
LINE
  8
HATCH
 10
40.0
 20
237.48528137423858
 30
0.0
 11
43.514718625761425
 21
241.0
 31
0.0
  0
LINE
  8
CENTER
 10
100.0
 20
238.0
 30
0.0
 11
100.0
 21
227.0
 31
0.0
  0
LINE
  8
CENTER
 10
100.0
 20
243.0
 30
0.0
 11
100.0
 21
234.0
 31
0.0
  0
LINE
  8
VISIBLE
 10
231.28220211291864
 20
147.0
 30
0.0
 11
248.71779788708133
 21
147.0
 31
0.0
  0
LINE
  8
VISIBLE
 10
220.9212159716611
 20
171.0
 30
0.0
 11
259.0787840283389
 21
171.0
 31
0.0
  0
LINE
  8
HIDDEN
 10
250.0
 20
161.0
 30
0.0
 11
250.0
 21
147.67949192431124
 31
0.0
  0
LINE
  8
HIDDEN
 10
250.0
 20
161.0
 30
0.0
 11
230.0
 21
161.0
 31
0.0
  0
LINE
  8
HIDDEN
 10
230.0
 20
161.0
 30
0.0
 11
250.0
 21
161.0
 31
0.0
  0
LINE
  8
HIDDEN
 10
258.0
 20
161.0
 30
0.0
 11
222.0
 21
161.0
 31
0.0
  0
LINE
  8
HIDDEN
 10
222.0
 20
161.0
 30
0.0
 11
258.0
 21
161.0
 31
0.0
  0
LINE
  8
HIDDEN
 10
258.0
 20
171.0
 30
0.0
 11
258.0
 21
161.0
 31
0.0
  0
LINE
  8
HIDDEN
 10
230.0
 20
161.0
 30
0.0
 11
230.0
 21
147.67949192431124
 31
0.0
  0
LINE
  8
HIDDEN
 10
222.0
 20
171.0
 30
0.0
 11
222.0
 21
161.0
 31
0.0
  0
LINE
  8
THIN
 10
260.0
 20
165.0
 30
0.0
 11
259.9238939618349
 21
166.74311485495318
 31
0.0
  0
LINE
  8
THIN
 10
259.9238939618349
 20
166.74311485495318
 30
0.0
 11
259.69615506024417
 21
168.47296355333862
 31
0.0
  0
LINE
  8
THIN
 10
259.69615506024417
 20
168.47296355333862
 30
0.0
 11
259.3185165257814
 21
170.17638090205043
 31
0.0
  0
LINE
  8
THIN
 10
259.3185165257814
 20
170.17638090205043
 30
0.0
 11
258.79385241571816
 21
171.8404028665134
 31
0.0
  0
LINE
  8
THIN
 10
258.79385241571816
 20
171.8404028665134
 30
0.0
 11
258.126155740733
 21
173.45236523481398
 31
0.0
  0
LINE
  8
THIN
 10
258.126155740733
 20
173.45236523481398
 30
0.0
 11
257.3205080756888
 21
175.0
 31
0.0
  0
LINE
  8
THIN
 10
257.3205080756888
 20
175.0
 30
0.0
 11
256.38304088577985
 21
176.4715287270209
 31
0.0
  0
LINE
  8
THIN
 10
256.38304088577985
 20
176.4715287270209
 30
0.0
 11
255.32088886237955
 21
177.85575219373078
 31
0.0
  0
LINE
  8
THIN
 10
255.32088886237955
 20
177.85575219373078
 30
0.0
 11
254.14213562373095
 21
179.14213562373095
 31
0.0
  0
LINE
  8
THIN
 10
254.14213562373095
 20
179.14213562373095
 30
0.0
 11
252.85575219373078
 21
180.32088886237955
 31
0.0
  0
LINE
  8
THIN
 10
252.85575219373078
 20
180.32088886237955
 30
0.0
 11
251.4715287270209
 21
181.38304088577985
 31
0.0
  0
LINE
  8
THIN
 10
251.4715287270209
 20
181.38304088577985
 30
0.0
 11
250.0
 21
182.32050807568876
 31
0.0
  0
LINE
  8
THIN
 10
250.0
 20
182.32050807568876
 30
0.0
 11
248.45236523481398
 21
183.126155740733
 31
0.0
  0
LINE
  8
THIN
 10
248.45236523481398
 20
183.126155740733
 30
0.0
 11
246.8404028665134
 21
183.79385241571816
 31
0.0
  0
LINE
  8
THIN
 10
246.8404028665134
 20
183.79385241571816
 30
0.0
 11
245.17638090205043
 21
184.31851652578138
 31
0.0
  0
LINE
  8
THIN
 10
245.17638090205043
 20
184.31851652578138
 30
0.0
 11
243.47296355333862
 21
184.69615506024417
 31
0.0
  0
LINE
  8
THIN
 10
243.47296355333862
 20
184.69615506024417
 30
0.0
 11
241.74311485495318
 21
184.92389396183492
 31
0.0
  0
LINE
  8
THIN
 10
241.74311485495318
 20
184.92389396183492
 30
0.0
 11
240.0
 21
185.0
 31
0.0
  0
LINE
  8
THIN
 10
240.0
 20
185.0
 30
0.0
 11
238.25688514504682
 21
184.92389396183492
 31
0.0
  0
LINE
  8
THIN
 10
238.25688514504682
 20
184.92389396183492
 30
0.0
 11
236.52703644666138
 21
184.69615506024417
 31
0.0
  0
LINE
  8
THIN
 10
236.52703644666138
 20
184.69615506024417
 30
0.0
 11
234.82361909794957
 21
184.31851652578138
 31
0.0
  0
LINE
  8
THIN
 10
234.82361909794957
 20
184.31851652578138
 30
0.0
 11
233.1595971334866
 21
183.79385241571816
 31
0.0
  0
LINE
  8
THIN
 10
233.1595971334866
 20
183.79385241571816
 30
0.0
 11
231.54763476518602
 21
183.126155740733
 31
0.0
  0
LINE
  8
THIN
 10
231.54763476518602
 20
183.126155740733
 30
0.0
 11
230.0
 21
182.32050807568876
 31
0.0
  0
LINE
  8
THIN
 10
230.0
 20
182.32050807568876
 30
0.0
 11
228.5284712729791
 21
181.38304088577985
 31
0.0
  0
LINE
  8
THIN
 10
228.5284712729791
 20
181.38304088577985
 30
0.0
 11
227.14424780626922
 21
180.32088886237955
 31
0.0
  0
LINE
  8
THIN
 10
227.14424780626922
 20
180.32088886237955
 30
0.0
 11
225.85786437626905
 21
179.14213562373095
 31
0.0
  0
LINE
  8
THIN
 10
225.85786437626905
 20
179.14213562373095
 30
0.0
 11
224.67911113762045
 21
177.85575219373078
 31
0.0
  0
LINE
  8
THIN
 10
224.67911113762045
 20
177.85575219373078
 30
0.0
 11
223.61695911422015
 21
176.4715287270209
 31
0.0
  0
LINE
  8
THIN
 10
223.61695911422015
 20
176.4715287270209
 30
0.0
 11
222.67949192431124
 21
175.0
 31
0.0
  0
LINE
  8
THIN
 10
222.67949192431124
 20
175.0
 30
0.0
 11
221.873844259267
 21
173.45236523481398
 31
0.0
  0
LINE
  8
THIN
 10
221.873844259267
 20
173.45236523481398
 30
0.0
 11
221.20614758428184
 21
171.8404028665134
 31
0.0
  0
LINE
  8
THIN
 10
221.20614758428184
 20
171.8404028665134
 30
0.0
 11
220.68148347421862
 21
170.17638090205043
 31
0.0
  0
LINE
  8
THIN
 10
220.68148347421862
 20
170.17638090205043
 30
0.0
 11
220.30384493975583
 21
168.47296355333862
 31
0.0
  0
LINE
  8
THIN
 10
220.30384493975583
 20
168.47296355333862
 30
0.0
 11
220.07610603816508
 21
166.74311485495318
 31
0.0
  0
LINE
  8
THIN
 10
220.07610603816508
 20
166.74311485495318
 30
0.0
 11
220.0
 21
165.0
 31
0.0
  0
LINE
  8
THIN
 10
220.0
 20
165.0
 30
0.0
 11
220.07610603816508
 21
163.25688514504685
 31
0.0
  0
LINE
  8
THIN
 10
220.07610603816508
 20
163.25688514504685
 30
0.0
 11
220.30384493975583
 21
161.52703644666138
 31
0.0
  0
LINE
  8
THIN
 10
220.30384493975583
 20
161.52703644666138
 30
0.0
 11
220.68148347421862
 21
159.8236190979496
 31
0.0
  0
LINE
  8
THIN
 10
220.68148347421862
 20
159.8236190979496
 30
0.0
 11
221.20614758428184
 21
158.1595971334866
 31
0.0
  0
LINE
  8
THIN
 10
221.20614758428184
 20
158.1595971334866
 30
0.0
 11
221.873844259267
 21
156.54763476518602
 31
0.0
  0
LINE
  8
THIN
 10
221.873844259267
 20
156.54763476518602
 30
0.0
 11
222.67949192431124
 21
155.0
 31
0.0
  0
LINE
  8
THIN
 10
222.67949192431124
 20
155.0
 30
0.0
 11
223.61695911422015
 21
153.5284712729791
 31
0.0
  0
LINE
  8
THIN
 10
223.61695911422015
 20
153.5284712729791
 30
0.0
 11
224.67911113762045
 21
152.14424780626922
 31
0.0
  0
LINE
  8
THIN
 10
224.67911113762045
 20
152.14424780626922
 30
0.0
 11
225.85786437626905
 21
150.85786437626905
 31
0.0
  0
LINE
  8
THIN
 10
225.85786437626905
 20
150.85786437626905
 30
0.0
 11
227.14424780626922
 21
149.67911113762045
 31
0.0
  0
LINE
  8
THIN
 10
227.14424780626922
 20
149.67911113762045
 30
0.0
 11
228.52847127297906
 21
148.61695911422018
 31
0.0
  0
LINE
  8
THIN
 10
228.52847127297906
 20
148.61695911422018
 30
0.0
 11
230.0
 21
147.67949192431124
 31
0.0
  0
LINE
  8
THIN
 10
230.0
 20
147.67949192431124
 30
0.0
 11
231.54763476518602
 21
146.873844259267
 31
0.0
  0
LINE
  8
THIN
 10
231.54763476518602
 20
146.873844259267
 30
0.0
 11
233.1595971334866
 21
146.20614758428184
 31
0.0
  0
LINE
  8
THIN
 10
233.1595971334866
 20
146.20614758428184
 30
0.0
 11
234.82361909794957
 21
145.68148347421862
 31
0.0
  0
LINE
  8
THIN
 10
234.82361909794957
 20
145.68148347421862
 30
0.0
 11
236.52703644666138
 21
145.30384493975583
 31
0.0
  0
LINE
  8
THIN
 10
236.52703644666138
 20
145.30384493975583
 30
0.0
 11
238.25688514504682
 21
145.07610603816508
 31
0.0
  0
LINE
  8
THIN
 10
238.25688514504682
 20
145.07610603816508
 30
0.0
 11
240.0
 21
145.0
 31
0.0
  0
LINE
  8
THIN
 10
240.0
 20
145.0
 30
0.0
 11
241.74311485495315
 21
145.07610603816508
 31
0.0
  0
LINE
  8
THIN
 10
241.74311485495315
 20
145.07610603816508
 30
0.0
 11
243.4729635533386
 21
145.30384493975583
 31
0.0
  0
LINE
  8
THIN
 10
243.4729635533386
 20
145.30384493975583
 30
0.0
 11
245.1763809020504
 21
145.68148347421862
 31
0.0
  0
LINE
  8
THIN
 10
245.1763809020504
 20
145.68148347421862
 30
0.0
 11
246.8404028665134
 21
146.20614758428184
 31
0.0
  0
LINE
  8
THIN
 10
246.8404028665134
 20
146.20614758428184
 30
0.0
 11
248.45236523481398
 21
146.873844259267
 31
0.0
  0
LINE
  8
THIN
 10
248.45236523481398
 20
146.873844259267
 30
0.0
 11
250.0
 21
147.67949192431124
 31
0.0
  0
LINE
  8
THIN
 10
250.0
 20
147.67949192431124
 30
0.0
 11
251.4715287270209
 21
148.61695911422015
 31
0.0
  0
LINE
  8
THIN
 10
251.4715287270209
 20
148.61695911422015
 30
0.0
 11
252.85575219373078
 21
149.67911113762045
 31
0.0
  0
LINE
  8
THIN
 10
252.85575219373078
 20
149.67911113762045
 30
0.0
 11
254.14213562373095
 21
150.85786437626905
 31
0.0
  0
LINE
  8
THIN
 10
254.14213562373095
 20
150.85786437626905
 30
0.0
 11
255.32088886237955
 21
152.14424780626922
 31
0.0
  0
LINE
  8
THIN
 10
255.32088886237955
 20
152.14424780626922
 30
0.0
 11
256.38304088577985
 21
153.52847127297906
 31
0.0
  0
LINE
  8
THIN
 10
256.38304088577985
 20
153.52847127297906
 30
0.0
 11
257.3205080756888
 21
155.0
 31
0.0
  0
LINE
  8
THIN
 10
257.3205080756888
 20
155.0
 30
0.0
 11
258.126155740733
 21
156.54763476518602
 31
0.0
  0
LINE
  8
THIN
 10
258.126155740733
 20
156.54763476518602
 30
0.0
 11
258.79385241571816
 21
158.1595971334866
 31
0.0
  0
LINE
  8
THIN
 10
258.79385241571816
 20
158.1595971334866
 30
0.0
 11
259.3185165257814
 21
159.82361909794957
 31
0.0
  0
LINE
  8
THIN
 10
259.3185165257814
 20
159.82361909794957
 30
0.0
 11
259.69615506024417
 21
161.52703644666138
 31
0.0
  0
LINE
  8
THIN
 10
259.69615506024417
 20
161.52703644666138
 30
0.0
 11
259.9238939618349
 21
163.25688514504682
 31
0.0
  0
LINE
  8
THIN
 10
259.9238939618349
 20
163.25688514504682
 30
0.0
 11
260.0
 21
165.0
 31
0.0
  0
LINE
  8
THIN
 10
160.0
 20
177.5
 30
0.0
 11
160.0
 21
190.0
 31
0.0
  0
LINE
  8
THIN
 10
40.0
 20
177.5
 30
0.0
 11
40.0
 21
190.0
 31
0.0
  0
LINE
  8
THIN
 10
160.0
 20
188.0
 30
0.0
 11
105.43333333333334
 21
188.0
 31
0.0
  0
LINE
  8
THIN
 10
94.56666666666666
 20
188.0
 30
0.0
 11
40.0
 21
188.0
 31
0.0
  0
LINE
  8
THIN
 10
161.5
 20
176.0
 30
0.0
 11
184.0
 21
176.0
 31
0.0
  0
LINE
  8
THIN
 10
161.5
 20
96.0
 30
0.0
 11
184.0
 21
96.0
 31
0.0
  0
LINE
  8
THIN
 10
182.0
 20
176.0
 30
0.0
 11
182.0
 21
139.8
 31
0.0
  0
LINE
  8
THIN
 10
182.0
 20
132.2
 30
0.0
 11
182.0
 21
96.0
 31
0.0
  0
LINE
  8
THIN
 10
96.19403081201989
 20
144.1556482599574
 30
0.0
 11
90.0
 21
166.0
 31
0.0
  0
LINE
  8
THIN
 10
90.0
 20
166.0
 30
0.0
 11
86.0
 21
166.0
 31
0.0
  0
LINE
  8
THIN
 10
38.5
 20
76.0
 30
0.0
 11
26.0
 21
76.0
 31
0.0
  0
LINE
  8
THIN
 10
38.5
 20
64.0
 30
0.0
 11
26.0
 21
64.0
 31
0.0
  0
LINE
  8
THIN
 10
28.0
 20
76.0
 30
0.0
 11
28.0
 21
73.8
 31
0.0
  0
LINE
  8
THIN
 10
28.0
 20
66.2
 30
0.0
 11
28.0
 21
64.0
 31
0.0
  0
LINE
  8
THIN
 10
281.0
 20
262.0
 30
0.0
 11
411.0
 21
262.0
 31
0.0
  0
LINE
  8
THIN
 10
281.0
 20
256.0
 30
0.0
 11
411.0
 21
256.0
 31
0.0
  0
LINE
  8
THIN
 10
281.0
 20
250.0
 30
0.0
 11
411.0
 21
250.0
 31
0.0
  0
LINE
  8
THIN
 10
281.0
 20
244.0
 30
0.0
 11
411.0
 21
244.0
 31
0.0
  0
LINE
  8
THIN
 10
281.0
 20
238.0
 30
0.0
 11
411.0
 21
238.0
 31
0.0
  0
LINE
  8
THIN
 10
281.0
 20
232.0
 30
0.0
 11
411.0
 21
232.0
 31
0.0
  0
LINE
  8
THIN
 10
281.0
 20
226.0
 30
0.0
 11
411.0
 21
226.0
 31
0.0
  0
LINE
  8
THIN
 10
281.0
 20
262.0
 30
0.0
 11
281.0
 21
226.0
 31
0.0
  0
LINE
  8
THIN
 10
297.0
 20
262.0
 30
0.0
 11
297.0
 21
226.0
 31
0.0
  0
LINE
  8
THIN
 10
319.0
 20
262.0
 30
0.0
 11
319.0
 21
226.0
 31
0.0
  0
LINE
  8
THIN
 10
341.0
 20
262.0
 30
0.0
 11
341.0
 21
226.0
 31
0.0
  0
LINE
  8
THIN
 10
411.0
 20
262.0
 30
0.0
 11
411.0
 21
226.0
 31
0.0
  0
SOLID
  8
THIN
 10
29.0
 20
144.0
 30
0.0
 11
28.5
 21
141.0
 31
0.0
 12
29.5
 22
141.0
 32
0.0
 13
29.5
 23
141.0
 33
0.0
  0
SOLID
  8
THIN
 10
171.0
 20
144.0
 30
0.0
 11
170.5
 21
141.0
 31
0.0
 12
171.5
 22
141.0
 32
0.0
 13
171.5
 23
141.0
 33
0.0
  0
SOLID
  8
THIN
 10
160.0
 20
188.0
 30
0.0
 11
157.0
 21
188.5
 31
0.0
 12
157.0
 22
187.5
 32
0.0
 13
157.0
 23
187.5
 33
0.0
  0
SOLID
  8
THIN
 10
40.0
 20
188.0
 30
0.0
 11
43.0
 21
187.5
 31
0.0
 12
43.0
 22
188.5
 32
0.0
 13
43.0
 23
188.5
 33
0.0
  0
SOLID
  8
THIN
 10
182.0
 20
176.0
 30
0.0
 11
181.5
 21
173.0
 31
0.0
 12
182.5
 22
173.0
 32
0.0
 13
182.5
 23
173.0
 33
0.0
  0
SOLID
  8
THIN
 10
182.0
 20
96.0
 30
0.0
 11
182.5
 21
99.0
 31
0.0
 12
181.5
 22
99.0
 32
0.0
 13
181.5
 23
99.0
 33
0.0
  0
SOLID
  8
THIN
 10
96.19403081201989
 20
144.1556482599574
 30
0.0
 11
95.37846598602415
 21
147.08564041260877
 31
0.0
 12
94.47228284602888
 22
146.66275494727762
 32
0.0
 13
94.47228284602888
 23
146.66275494727762
 33
0.0
  0
SOLID
  8
THIN
 10
28.0
 20
76.0
 30
0.0
 11
27.5
 21
73.0
 31
0.0
 12
28.5
 22
73.0
 32
0.0
 13
28.5
 23
73.0
 33
0.0
  0
SOLID
  8
THIN
 10
28.0
 20
64.0
 30
0.0
 11
28.5
 21
67.0
 31
0.0
 12
27.5
 22
67.0
 32
0.0
 13
27.5
 23
67.0
 33
0.0
  0
TEXT
  8
TEXT
 10
253.8
 20
45.3
 30
0.0
 40
1.8
  1
COMPANY
  0
TEXT
  8
TEXT
 10
333.8
 20
46.8
 30
0.0
 40
1.8
  1
TITLE
  0
TEXT
  8
TEXT
 10
333.8
 20
40.0
 30
0.0
 40
5.0
  1
MOUNTING PLATE
  0
TEXT
  8
TEXT
 10
253.8
 20
32.8
 30
0.0
 40
1.8
  1
DRAWN
  0
TEXT
  8
TEXT
 10
253.8
 20
28.0
 30
0.0
 40
3.0
  1
TENON
  0
TEXT
  8
TEXT
 10
293.8
 20
32.8
 30
0.0
 40
1.8
  1
DATE
  0
TEXT
  8
TEXT
 10
293.8
 20
28.0
 30
0.0
 40
3.0
  1
2026-10-08
  0
TEXT
  8
TEXT
 10
333.8
 20
33.3
 30
0.0
 40
1.8
  1
DWG NO
  0
TEXT
  8
TEXT
 10
333.8
 20
28.0
 30
0.0
 40
3.5
  1
TN-0004
  0
TEXT
  8
TEXT
 10
398.8
 20
33.3
 30
0.0
 40
1.8
  1
REV
  0
TEXT
  8
TEXT
 10
398.8
 20
28.0
 30
0.0
 40
3.5
  1
A
  0
TEXT
  8
TEXT
 10
253.8
 20
17.3
 30
0.0
 40
1.8
  1
SIZE
  0
TEXT
  8
TEXT
 10
253.8
 20
12.0
 30
0.0
 40
3.5
  1
B
  0
TEXT
  8
TEXT
 10
273.8
 20
17.3
 30
0.0
 40
1.8
  1
SCALE
  0
TEXT
  8
TEXT
 10
273.8
 20
12.0
 30
0.0
 40
3.5
  1
1:1
  0
TEXT
  8
TEXT
 10
313.8
 20
17.3
 30
0.0
 40
1.8
  1
SHEET
  0
TEXT
  8
TEXT
 10
313.8
 20
12.0
 30
0.0
 40
3.5
  1
1 OF 1
  0
TEXT
  8
TEXT
 10
353.8
 20
17.3
 30
0.0
 40
1.8
  1
UNITS
  0
TEXT
  8
TEXT
 10
353.8
 20
12.0
 30
0.0
 40
3.5
  1
mm
  0
TEXT
  8
TEXT
 10
108.5
 20
81.5
 30
0.0
 40
5.0
  1
B
  0
TEXT
  8
TEXT
 10
29.0
 20
146.25
 30
0.0
 40
5.0
  1
A
 72
1
 11
29.0
 21
146.25
 31
0.0
  0
TEXT
  8
TEXT
 10
171.0
 20
146.25
 30
0.0
 40
5.0
  1
A
 72
1
 11
171.0
 21
146.25
 31
0.0
  0
TEXT
  8
TEXT
 10
100.0
 20
219.0
 30
0.0
 40
4.0
  1
SECTION A-A
 72
1
 11
100.0
 21
219.0
 31
0.0
  0
TEXT
  8
TEXT
 10
100.0
 20
213.5
 30
0.0
 40
3.0
  1
SCALE 1:1
 72
1
 11
100.0
 21
213.5
 31
0.0
  0
TEXT
  8
TEXT
 10
240.0
 20
137.0
 30
0.0
 40
4.0
  1
DETAIL B
 72
1
 11
240.0
 21
137.0
 31
0.0
  0
TEXT
  8
TEXT
 10
240.0
 20
131.5
 30
0.0
 40
3.0
  1
SCALE 2:1
 72
1
 11
240.0
 21
131.5
 31
0.0
  0
TEXT
  8
TEXT
 10
100.0
 20
186.25
 30
0.0
 40
3.5
  1
120
 72
1
 11
100.0
 21
186.25
 31
0.0
  0
TEXT
  8
TEXT
 10
182.0
 20
134.25
 30
0.0
 40
3.5
  1
80
 72
1
 11
182.0
 21
134.25
 31
0.0
  0
TEXT
  8
TEXT
 10
85.0
 20
166.8
 30
0.0
 40
3.5
  1
%%c18
 72
2
 11
85.0
 21
166.8
 31
0.0
  0
TEXT
  8
TEXT
 10
28.0
 20
68.25
 30
0.0
 40
3.5
  1
12
 72
1
 11
28.0
 21
68.25
 31
0.0
  0
TEXT
  8
TEXT
 10
59.32842712474619
 20
115.32842712474618
 30
0.0
 40
2.5
  1
A1
  0
TEXT
  8
TEXT
 10
149.32842712474618
 20
115.32842712474618
 30
0.0
 40
2.5
  1
A2
  0
TEXT
  8
TEXT
 10
149.32842712474618
 20
165.32842712474618
 30
0.0
 40
2.5
  1
A3
  0
TEXT
  8
TEXT
 10
59.32842712474619
 20
165.32842712474618
 30
0.0
 40
2.5
  1
A4
  0
TEXT
  8
TEXT
 10
107.86396103067892
 20
143.86396103067892
 30
0.0
 40
2.5
  1
B1
  0
TEXT
  8
TEXT
 10
289.0
 20
257.6
 30
0.0
 40
2.5
  1
HOLE
 72
1
 11
289.0
 21
257.6
 31
0.0
  0
TEXT
  8
TEXT
 10
308.0
 20
257.6
 30
0.0
 40
2.5
  1
XDIM
 72
1
 11
308.0
 21
257.6
 31
0.0
  0
TEXT
  8
TEXT
 10
330.0
 20
257.6
 30
0.0
 40
2.5
  1
YDIM
 72
1
 11
330.0
 21
257.6
 31
0.0
  0
TEXT
  8
TEXT
 10
376.0
 20
257.6
 30
0.0
 40
2.5
  1
DESCRIPTION
 72
1
 11
376.0
 21
257.6
 31
0.0
  0
TEXT
  8
TEXT
 10
289.0
 20
251.6
 30
0.0
 40
2.5
  1
A1
 72
1
 11
289.0
 21
251.6
 31
0.0
  0
TEXT
  8
TEXT
 10
308.0
 20
251.6
 30
0.0
 40
2.5
  1
15
 72
1
 11
308.0
 21
251.6
 31
0.0
  0
TEXT
  8
TEXT
 10
330.0
 20
251.6
 30
0.0
 40
2.5
  1
15
 72
1
 11
330.0
 21
251.6
 31
0.0
  0
TEXT
  8
TEXT
 10
376.0
 20
251.6
 30
0.0
 40
2.5
  1
%%c8 THRU
 72
1
 11
376.0
 21
251.6
 31
0.0
  0
TEXT
  8
TEXT
 10
289.0
 20
245.6
 30
0.0
 40
2.5
  1
A2
 72
1
 11
289.0
 21
245.6
 31
0.0
  0
TEXT
  8
TEXT
 10
308.0
 20
245.6
 30
0.0
 40
2.5
  1
105
 72
1
 11
308.0
 21
245.6
 31
0.0
  0
TEXT
  8
TEXT
 10
330.0
 20
245.6
 30
0.0
 40
2.5
  1
15
 72
1
 11
330.0
 21
245.6
 31
0.0
  0
TEXT
  8
TEXT
 10
376.0
 20
245.6
 30
0.0
 40
2.5
  1
%%c8 THRU
 72
1
 11
376.0
 21
245.6
 31
0.0
  0
TEXT
  8
TEXT
 10
289.0
 20
239.6
 30
0.0
 40
2.5
  1
A3
 72
1
 11
289.0
 21
239.6
 31
0.0
  0
TEXT
  8
TEXT
 10
308.0
 20
239.6
 30
0.0
 40
2.5
  1
105
 72
1
 11
308.0
 21
239.6
 31
0.0
  0
TEXT
  8
TEXT
 10
330.0
 20
239.6
 30
0.0
 40
2.5
  1
65
 72
1
 11
330.0
 21
239.6
 31
0.0
  0
TEXT
  8
TEXT
 10
376.0
 20
239.6
 30
0.0
 40
2.5
  1
%%c8 THRU
 72
1
 11
376.0
 21
239.6
 31
0.0
  0
TEXT
  8
TEXT
 10
289.0
 20
233.6
 30
0.0
 40
2.5
  1
A4
 72
1
 11
289.0
 21
233.6
 31
0.0
  0
TEXT
  8
TEXT
 10
308.0
 20
233.6
 30
0.0
 40
2.5
  1
15
 72
1
 11
308.0
 21
233.6
 31
0.0
  0
TEXT
  8
TEXT
 10
330.0
 20
233.6
 30
0.0
 40
2.5
  1
65
 72
1
 11
330.0
 21
233.6
 31
0.0
  0
TEXT
  8
TEXT
 10
376.0
 20
233.6
 30
0.0
 40
2.5
  1
%%c8 THRU
 72
1
 11
376.0
 21
233.6
 31
0.0
  0
TEXT
  8
TEXT
 10
289.0
 20
227.6
 30
0.0
 40
2.5
  1
B1
 72
1
 11
289.0
 21
227.6
 31
0.0
  0
TEXT
  8
TEXT
 10
308.0
 20
227.6
 30
0.0
 40
2.5
  1
60
 72
1
 11
308.0
 21
227.6
 31
0.0
  0
TEXT
  8
TEXT
 10
330.0
 20
227.6
 30
0.0
 40
2.5
  1
40
 72
1
 11
330.0
 21
227.6
 31
0.0
  0
TEXT
  8
TEXT
 10
376.0
 20
227.6
 30
0.0
 40
2.5
  1
%%c10 THRU, CBORE %%c18 DEEP 5
 72
1
 11
376.0
 21
227.6
 31
0.0
  0
TEXT
  8
TEXT
 10
20.0
 20
24.0
 30
0.0
 40
3.0
  1
NOTES: BREAK ALL SHARP EDGES. DIMENSIONS IN MM.
  0
ENDSEC
  0
EOF
