  0
SECTION
  2
HEADER
  9
$ACADVER
  1
AC1009
  9
$INSUNITS
 70
4
  9
$MEASUREMENT
 70
1
  9
$EXTMIN
 10
0.0
 20
0.0
 30
0.0
  9
$EXTMAX
 10
431.8
 20
279.4
 30
0.0
  9
$LIMMIN
 10
0.0
 20
0.0
  9
$LIMMAX
 10
431.8
 20
279.4
  0
ENDSEC
  0
SECTION
  2
TABLES
  0
TABLE
  2
LTYPE
 70
3
  0
LTYPE
  2
CONTINUOUS
 70
0
  3
Solid line
 72
65
 73
0
 40
-0.0
  0
LTYPE
  2
HIDDEN
 70
0
  3
Hidden __ __
 72
65
 73
2
 40
4.5
 49
3.0
 49
-1.5
  0
LTYPE
  2
CENTER
 70
0
  3
Center ____ _ ____
 72
65
 73
4
 40
17.0
 49
12.0
 49
-1.5
 49
2.0
 49
-1.5
  0
ENDTAB
  0
TABLE
  2
LAYER
 70
8
  0
LAYER
  2
VISIBLE
 70
0
 62
7
  6
CONTINUOUS
  0
LAYER
  2
HIDDEN
 70
0
 62
7
  6
HIDDEN
  0
LAYER
  2
THIN
 70
0
 62
7
  6
CONTINUOUS
  0
LAYER
  2
CENTER
 70
0
 62
7
  6
CENTER
  0
LAYER
  2
CUTTING
 70
0
 62
7
  6
CENTER
  0
LAYER
  2
BORDER
 70
0
 62
7
  6
CONTINUOUS
  0
LAYER
  2
HATCH
 70
0
 62
7
  6
CONTINUOUS
  0
LAYER
  2
TEXT
 70
0
 62
7
  6
CONTINUOUS
  0
ENDTAB
  0
ENDSEC
  0
SECTION
  2
ENTITIES
  0
POLYLINE
  8
BORDER
 66
1
 10
0.0
 20
0.0
 30
0.0
 70
129
  0
VERTEX
  8
BORDER
 10
10.0
 20
10.0
 30
0.0
  0
VERTEX
  8
BORDER
 10
421.8
 20
10.0
 30
0.0
  0
VERTEX
  8
BORDER
 10
421.8
 20
269.4
 30
0.0
  0
VERTEX
  8
BORDER
 10
10.0
 20
269.4
 30
0.0
  0
SEQEND
  8
BORDER
  0
LINE
  8
THIN
 10
251.8
 20
10.0
 30
0.0
 11
421.8
 21
10.0
 31
0.0
  0
LINE
  8
THIN
 10
421.8
 20
10.0
 30
0.0
 11
421.8
 21
50.0
 31
0.0
  0
LINE
  8
THIN
 10
421.8
 20
50.0
 30
0.0
 11
251.8
 21
50.0
 31
0.0
  0
LINE
  8
THIN
 10
251.8
 20
50.0
 30
0.0
 11
251.8
 21
10.0
 31
0.0
  0
LINE
  8
THIN
 10
251.8
 20
26.0
 30
0.0
 11
421.8
 21
26.0
 31
0.0
  0
LINE
  8
THIN
 10
251.8
 20
38.0
 30
0.0
 11
421.8
 21
38.0
 31
0.0
  0
LINE
  8
THIN
 10
331.8
 20
38.0
 30
0.0
 11
331.8
 21
50.0
 31
0.0
  0
LINE
  8
THIN
 10
291.8
 20
26.0
 30
0.0
 11
291.8
 21
38.0
 31
0.0
  0
LINE
  8
THIN
 10
331.8
 20
26.0
 30
0.0
 11
331.8
 21
38.0
 31
0.0
  0
LINE
  8
THIN
 10
396.8
 20
26.0
 30
0.0
 11
396.8
 21
38.0
 31
0.0
  0
LINE
  8
THIN
 10
271.8
 20
10.0
 30
0.0
 11
271.8
 21
26.0
 31
0.0
  0
LINE
  8
THIN
 10
311.8
 20
10.0
 30
0.0
 11
311.8
 21
26.0
 31
0.0
  0
LINE
  8
THIN
 10
351.8
 20
10.0
 30
0.0
 11
351.8
 21
26.0
 31
0.0
  0
LINE
  8
THIN
 10
376.8
 20
10.0
 30
0.0
 11
376.8
 21
26.0
 31
0.0
  0
LINE
  8
THIN
 10
388.3
 20
14.0
 30
0.0
 11
388.3
 21
22.0
 31
0.0
  0
LINE
  8
THIN
 10
388.3
 20
22.0
 30
0.0
 11
397.3
 21
20.4
 31
0.0
  0
LINE
  8
THIN
 10
397.3
 20
20.4
 30
0.0
 11
397.3
 21
15.6
 31
0.0
  0
LINE
  8
THIN
 10
397.3
 20
15.6
 30
0.0
 11
388.3
 21
14.0
 31
0.0
  0
CIRCLE
  8
THIN
 10
405.8
 20
18.00000000000232
 30
0.0
 40
4.0
  0
CIRCLE
  8
THIN
 10
405.8000000000047
 20
17.999999999998078
 30
0.0
 40
2.399999999995316
  0
LINE
  8
VISIBLE
 10
40.0
 20
64.0
 30
0.0
 11
40.0
 21
76.0
 31
0.0
  0
LINE
  8
VISIBLE
 10
160.0
 20
64.0
 30
0.0
 11
160.0
 21
76.0
 31
0.0
  0
LINE
  8
VISIBLE
 10
40.0
 20
64.0
 30
0.0
 11
160.0
 21
64.0
 31
0.0
  0
LINE
  8
VISIBLE
 10
40.0
 20
76.0
 30
0.0
 11
160.0
 21
76.0
 31
0.0
  0
LINE
  8
HIDDEN
 10
59.0
 20
76.0
 30
0.0
 11
59.0
 21
64.0
 31
0.0
  0
LINE
  8
HIDDEN
 10
149.0
 20
76.0
 30
0.0
 11
149.0
 21
64.0
 31
0.0
  0
LINE
  8
HIDDEN
 10
105.0
 20
71.0
 30
0.0
 11
105.0
 21
64.0
 31
0.0
  0
LINE
  8
HIDDEN
 10
105.0
 20
71.0
 30
0.0
 11
95.0
 21
71.0
 31
0.0
  0
LINE
  8
HIDDEN
 10
109.0
 20
71.0
 30
0.0
 11
91.0
 21
71.0
 31
0.0
  0
LINE
  8
HIDDEN
 10
109.0
 20
76.0
 30
0.0
 11
109.0
 21
71.0
 31
0.0
  0
LINE
  8
HIDDEN
 10
51.0
 20
76.0
 30
0.0
 11
51.0
 21
64.0
 31
0.0
  0
LINE
  8
HIDDEN
 10
141.0
 20
76.0
 30
0.0
 11
141.0
 21
64.0
 31
0.0
  0
LINE
  8
HIDDEN
 10
95.0
 20
71.0
 30
0.0
 11
95.0
 21
64.0
 31
0.0
  0
LINE
  8
HIDDEN
 10
91.0
 20
76.0
 30
0.0
 11
91.0
 21
71.0
 31
0.0
  0
LINE
  8
CENTER
 10
55.0
 20
78.0
 30
0.0
 11
55.0
 21
62.0
 31
0.0
  0
LINE
  8
CENTER
 10
145.0
 20
78.0
 30
0.0
 11
145.0
 21
62.0
 31
0.0
  0
LINE
  8
CENTER
 10
100.0
 20
73.0
 30
0.0
 11
100.0
 21
62.0
 31
0.0
  0
LINE
  8
CENTER
 10
100.0
 20
78.0
 30
0.0
 11
100.0
 21
69.0
 31
0.0
  0
CIRCLE
  8
THIN
 10
99.99999999999996
 20
72.99999999999996
 30
0.0
 40
10.000000000000043
  0
LINE
  8
VISIBLE
 10
40.0
 20
96.0
 30
0.0
 11
160.0
 21
96.0
 31
0.0
  0
LINE
  8
VISIBLE
 10
40.0
 20
176.0
 30
0.0
 11
40.0
 21
96.0
 31
0.0
  0
LINE
  8
VISIBLE
 10
160.0
 20
96.0
 30
0.0
 11
160.0
 21
176.0
 31
0.0
  0
LINE
  8
VISIBLE
 10
160.0
 20
176.0
 30
0.0
 11
40.0
 21
176.0
 31
0.0
  0
CIRCLE
  8
VISIBLE
 10
55.000000000000114
 20
110.99999999999999
 30
0.0
 40
3.9999999999998863
  0
CIRCLE
  8
VISIBLE
 10
145.00000000000034
 20
111.00000000000037
 30
0.0
 40
3.999999999999659
  0
CIRCLE
  8
VISIBLE
 10
100.0000000000001
 20
136.00000000000006
 30
0.0
 40
8.9999999999999
  0
CIRCLE
  8
VISIBLE
 10
54.99999999999993
 20
161.00000000000006
 30
0.0
 40
4.000000000000071
  0
CIRCLE
  8
VISIBLE
 10
145.00000000000034
 20
161.0000000000007
 30
0.0
 40
3.999999999999659
  0
CIRCLE
  8
VISIBLE
 10
99.99999999999993
 20
135.99999999999991
 30
0.0
 40
5.000000000000071
  0
LINE
  8
CENTER
 10
49.0
 20
111.0
 30
0.0
 11
61.0
 21
111.0
 31
0.0
  0
LINE
  8
CENTER
 10
55.0
 20
105.0
 30
0.0
 11
55.0
 21
117.0
 31
0.0
  0
LINE
  8
CENTER
 10
139.0
 20
111.0
 30
0.0
 11
151.0
 21
111.0
 31
0.0
  0
LINE
  8
CENTER
 10
145.0
 20
105.0
 30
0.0
 11
145.0
 21
117.0
 31
0.0
  0
LINE
  8
CENTER
 10
89.0
 20
136.0
 30
0.0
 11
111.0
 21
136.0
 31
0.0
  0
LINE
  8
CENTER
 10
100.0
 20
125.0
 30
0.0
 11
100.0
 21
147.0
 31
0.0
  0
LINE
  8
CENTER
 10
49.0
 20
161.0
 30
0.0
 11
61.0
 21
161.0
 31
0.0
  0
LINE
  8
CENTER
 10
55.0
 20
155.0
 30
0.0
 11
55.0
 21
167.0
 31
0.0
  0
LINE
  8
CENTER
 10
139.0
 20
161.0
 30
0.0
 11
151.0
 21
161.0
 31
0.0
  0
LINE
  8
CENTER
 10
145.0
 20
155.0
 30
0.0
 11
145.0
 21
167.0
 31
0.0
  0
LINE
  8
CUTTING
 10
29.0
 20
136.0
 30
0.0
 11
171.0
 21
136.0
 31
0.0
  0
LINE
  8
THIN
 10
29.0
 20
136.0
 30
0.0
 11
29.0
 21
144.0
 31
0.0
  0
LINE
  8
THIN
 10
171.0
 20
136.0
 30
0.0
 11
171.0
 21
144.0
 31
0.0
  0
LINE
  8
VISIBLE
 10
180.0
 20
64.0
 30
0.0
 11
180.0
 21
76.0
 31
0.0
  0
LINE
  8
VISIBLE
 10
260.0
 20
64.0
 30
0.0
 11
260.0
 21
76.0
 31
0.0
  0
LINE
  8
VISIBLE
 10
180.0
 20
64.0
 30
0.0
 11
260.0
 21
64.0
 31
0.0
  0
LINE
  8
VISIBLE
 10
180.0
 20
76.0
 30
0.0
 11
260.0
 21
76.0
 31
0.0
  0
LINE
  8
HIDDEN
 10
220.0
 20
71.0
 30
0.0
 11
215.0
 21
71.0
 31
0.0
  0
LINE
  8
HIDDEN
 10
215.0
 20
71.0
 30
0.0
 11
225.0
 21
71.0
 31
0.0
  0
LINE
  8
HIDDEN
 10
225.0
 20
71.0
 30
0.0
 11
220.0
 21
71.0
 31
0.0
  0
LINE
  8
HIDDEN
 10
220.0
 20
71.0
 30
0.0
 11
211.0
 21
71.0
 31
0.0
  0
LINE
  8
HIDDEN
 10
211.0
 20
71.0
 30
0.0
 11
229.0
 21
71.0
 31
0.0
  0
LINE
  8
HIDDEN
 10
229.0
 20
71.0
 30
0.0
 11
220.0
 21
71.0
 31
0.0
  0
LINE
  8
HIDDEN
 10
191.0
 20
76.0
 30
0.0
 11
191.0
 21
64.0
 31
0.0
  0
LINE
  8
HIDDEN
 10
199.0
 20
76.0
 30
0.0
 11
199.0
 21
64.0
 31
0.0
  0
LINE
  8
HIDDEN
 10
215.0
 20
71.0
 30
0.0
 11
215.0
 21
64.0
 31
0.0
  0
LINE
  8
HIDDEN
 10
225.0
 20
71.0
 30
0.0
 11
225.0
 21
64.0
 31
0.0
  0
LINE
  8
HIDDEN
 10
241.0
 20
76.0
 30
0.0
 11
241.0
 21
64.0
 31
0.0
  0
LINE
  8
HIDDEN
 10
249.0
 20
76.0
 30
0.0
 11
249.0
 21
64.0
 31
0.0
  0
LINE
  8
HIDDEN
 10
211.0
 20
76.0
 30
0.0
 11
211.0
 21
71.0
 31
0.0
  0
LINE
  8
HIDDEN
 10
229.0
 20
76.0
 30
0.0
 11
229.0
 21
71.0
 31
0.0
  0
LINE
  8
CENTER
 10
195.0
 20
78.0
 30
0.0
 11
195.0
 21
62.0
 31
0.0
  0
LINE
  8
CENTER
 10
220.0
 20
73.0
 30
0.0
 11
220.0
 21
62.0
 31
0.0
  0
LINE
  8
CENTER
 10
245.0
 20
78.0
 30
0.0
 11
245.0
 21
62.0
 31
0.0
  0
LINE
  8
CENTER
 10
220.0
 20
78.0
 30
0.0
 11
220.0
 21
69.0
 31
0.0
  0
LINE
  8
VISIBLE
 10
309.6446609406726
 20
176.63299316185544
 30
0.0
 11
309.6446609406726
 21
181.5319726474218
 31
0.0
  0
LINE
  8
VISIBLE
 10
352.0710678118655
 20
152.13809573402366
 30
0.0
 11
352.0710678118655
 21
157.03707521959004
 31
0.0
  0
LINE
  8
VISIBLE
 10
309.6446609406726
 20
176.63299316185544
 30
0.0
 11
352.0710678118655
 21
152.13809573402366
 31
0.0
  0
LINE
  8
VISIBLE
 10
309.6446609406726
 20
181.5319726474218
 30
0.0
 11
352.0710678118655
 21
157.03707521959
 31
0.0
  0
LINE
  8
VISIBLE
 10
337.9289321881345
 20
197.86190426597634
 30
0.0
 11
309.6446609406726
 21
181.5319726474218
 31
0.0
  0
LINE
  8
VISIBLE
 10
380.3553390593274
 20
168.4680273525782
 30
0.0
 11
380.3553390593274
 21
173.36700683814453
 31
0.0
  0
LINE
  8
VISIBLE
 10
352.0710678118655
 20
152.13809573402366
 30
0.0
 11
380.3553390593274
 21
168.4680273525782
 31
0.0
  0
LINE
  8
VISIBLE
 10
352.0710678118655
 20
157.03707521959004
 30
0.0
 11
380.3553390593274
 21
173.36700683814456
 31
0.0
  0
LINE
  8
VISIBLE
 10
380.3553390593274
 20
173.36700683814453
 30
0.0
 11
337.9289321881345
 21
197.86190426597634
 31
0.0
  0
POLYLINE
  8
VISIBLE
 66
1
 10
0.0
 20
0.0
 30
0.0
 70
128
  0
VERTEX
  8
VISIBLE
 10
321.6654762208439
 20
180.7154760664941
 30
0.0
  0
VERTEX
  8
VISIBLE
 10
321.501144316619
 20
180.6305301292646
 30
0.0
  0
VERTEX
  8
VISIBLE
 10
321.32160997320386
 20
180.5565485301197
 30
0.0
  0
VERTEX
  8
VISIBLE
 10
321.1290568852873
 20
180.4944311148607
 30
0.0
  0
VERTEX
  8
VISIBLE
 10
320.9258270958865
 20
180.44493342399974
 30
0.0
  0
VERTEX
  8
VISIBLE
 10
320.71439250983735
 20
180.40865750304286
 30
0.0
  0
VERTEX
  8
VISIBLE
 10
320.49732482776136
 20
180.38604457974856
 30
0.0
  0
VERTEX
  8
VISIBLE
 10
320.27726426620654
 20
180.37736969742917
 30
0.0
  0
VERTEX
  8
VISIBLE
 10
320.0568874444219
 20
180.38273836957077
 30
0.0
  0
VERTEX
  8
VISIBLE
 10
319.8388748283622
 20
180.4020852964618
 30
0.0
  0
VERTEX
  8
VISIBLE
 10
319.6258781279046
 20
180.43517515944018
 30
0.0
  0
VERTEX
  8
VISIBLE
 10
319.420488043829
 20
180.48160548309835
 30
0.0
  0
VERTEX
  8
VISIBLE
 10
319.2252027568576
 20
180.54081153063314
 30
0.0
  0
VERTEX
  8
VISIBLE
 10
319.04239754202575
 20
180.6120731727975
 30
0.0
  0
VERTEX
  8
VISIBLE
 10
318.87429587796777
 20
180.69452364690676
 30
0.0
  0
VERTEX
  8
VISIBLE
 10
318.72294240251705
 20
180.78716009936218
 30
0.0
  0
VERTEX
  8
VISIBLE
 10
318.60257008070886
 20
180.8783130050919
 30
0.0
  0
VERTEX
  8
VISIBLE
 10
318.5080949788581
 20
180.96588477416256
 30
0.0
  0
VERTEX
  8
VISIBLE
 10
318.4349460891584
 20
181.04858387357578
 30
0.0
  0
VERTEX
  8
VISIBLE
 10
318.3791431665025
 20
181.12570155246505
 30
0.0
  0
VERTEX
  8
VISIBLE
 10
318.33729887896385
 20
181.1969389920301
 30
0.0
  0
VERTEX
  8
VISIBLE
 10
318.3065794140628
 20
181.2622770913351
 30
0.0
  0
VERTEX
  8
VISIBLE
 10
318.28254522913846
 20
181.32854232893172
 30
0.0
  0
VERTEX
  8
VISIBLE
 10
318.2652789470322
 20
181.39550690336827
 30
0.0
  0
VERTEX
  8
VISIBLE
 10
318.25483992441826
 20
181.46294060906763
 30
0.0
  0
VERTEX
  8
VISIBLE
 10
318.25215717499765
 20
181.49744118376225
 30
0.0
  0
VERTEX
  8
VISIBLE
 10
318.25126265847086
 20
181.5319726474218
 30
0.0
  0
SEQEND
  8
VISIBLE
  0
POLYLINE
  8
VISIBLE
 66
1
 10
0.0
 20
0.0
 30
0.0
 70
128
  0
VERTEX
  8
VISIBLE
 10
318.25126265847086
 20
181.5319726474218
 30
0.0
  0
VERTEX
  8
VISIBLE
 10
318.2545422617622
 20
181.59807271642768
 30
0.0
  0
VERTEX
  8
VISIBLE
 10
318.26437031583856
 20
181.66395600342966
 30
0.0
  0
VERTEX
  8
VISIBLE
 10
318.2807145885815
 20
181.7294064373829
 30
0.0
  0
VERTEX
  8
VISIBLE
 10
318.3035214772601
 20
181.79420936682874
 30
0.0
  0
VERTEX
  8
VISIBLE
 10
318.33271618432747
 20
181.8581522638665
 30
0.0
  0
VERTEX
  8
VISIBLE
 10
318.36820296272606
 20
181.92102542116058
 30
0.0
  0
VERTEX
  8
VISIBLE
 10
318.40986542990066
 20
181.9826226396974
 30
0.0
  0
VERTEX
  8
VISIBLE
 10
318.45756694948676
 20
182.04274190503628
 30
0.0
  0
VERTEX
  8
VISIBLE
 10
318.5111510794238
 20
182.10118604983677
 30
0.0
  0
VERTEX
  8
VISIBLE
 10
318.5704420850229
 20
182.15776340048922
 30
0.0
  0
VERTEX
  8
VISIBLE
 10
318.6352455153068
 20
182.21228840572817
 30
0.0
  0
VERTEX
  8
VISIBLE
 10
318.70534884073237
 20
182.26458224516702
 30
0.0
  0
VERTEX
  8
VISIBLE
 10
318.80666443526883
 20
182.33054136154345
 30
0.0
  0
VERTEX
  8
VISIBLE
 10
318.9306786216952
 20
182.39916309205964
 30
0.0
  0
VERTEX
  8
VISIBLE
 10
319.06443420988273
 20
182.46138791765395
 30
0.0
  0
VERTEX
  8
VISIBLE
 10
319.2069445402277
 20
182.51675683154696
 30
0.0
  0
VERTEX
  8
VISIBLE
 10
319.3571583730178
 20
182.56486140018183
 30
0.0
  0
VERTEX
  8
VISIBLE
 10
319.51396764299193
 20
182.6053467760694
 30
0.0
  0
VERTEX
  8
VISIBLE
 10
319.73130102783927
 20
182.64696740117193
 30
0.0
  0
VERTEX
  8
VISIBLE
 10
319.98380209634615
 20
182.67630139501549
 30
0.0
  0
VERTEX
  8
VISIBLE
 10
320.2407388805385
 20
182.686657200319
 30
0.0
  0
VERTEX
  8
VISIBLE
 10
320.49785019695526
 20
182.67786307061013
 30
0.0
  0
VERTEX
  8
VISIBLE
 10
320.7508719675952
 20
182.65006485265897
 30
0.0
  0
VERTEX
  8
VISIBLE
 10
320.9956079377736
 20
182.60372356767328
 30
0.0
  0
VERTEX
  8
VISIBLE
 10
321.22799926915906
 20
182.53960776546492
 30
0.0
  0
VERTEX
  8
VISIBLE
 10
321.44419185382014
 20
182.45878077838944
 30
0.0
  0
VERTEX
  8
VISIBLE
 10
321.6219453452618
 20
182.37285095255513
 30
0.0
  0
VERTEX
  8
VISIBLE
 10
321.7662392771135
 20
182.2858174247613
 30
0.0
  0
VERTEX
  8
VISIBLE
 10
321.88204385365685
 20
182.2004417176182
 30
0.0
  0
VERTEX
  8
VISIBLE
 10
321.9739974030107
 20
182.11854034739494
 30
0.0
  0
VERTEX
  8
VISIBLE
 10
322.04624876390994
 20
182.04122860182346
 30
0.0
  0
VERTEX
  8
VISIBLE
 10
322.10240291715377
 20
181.96911478398738
 30
0.0
  0
VERTEX
  8
VISIBLE
 10
322.14987776924653
 20
181.8949513709187
 30
0.0
  0
VERTEX
  8
VISIBLE
 10
322.18499950333546
 20
181.82673911702844
 30
0.0
  0
VERTEX
  8
VISIBLE
 10
322.2103327750695
 20
181.76438340323298
 30
0.0
  0
VERTEX
  8
VISIBLE
 10
322.2296387326064
 20
181.70131264987043
 30
0.0
  0
VERTEX
  8
VISIBLE
 10
322.2428579788522
 20
181.63772090167862
 30
0.0
  0
VERTEX
  8
VISIBLE
 10
322.2491603836763
 20
181.58490241100412
 30
0.0
  0
VERTEX
  8
VISIBLE
 10
322.25126265847086
 20
181.5319726474218
 30
0.0
  0
SEQEND
  8
VISIBLE
  0
POLYLINE
  8
VISIBLE
 66
1
 10
0.0
 20
0.0
 30
0.0
 70
128
  0
VERTEX
  8
VISIBLE
 10
322.25126265847086
 20
181.5319726474218
 30
0.0
  0
VERTEX
  8
VISIBLE
 10
322.24845279259716
 20
181.47078558956267
 30
0.0
  0
VERTEX
  8
VISIBLE
 10
322.2400310903225
 20
181.40977045912933
 30
0.0
  0
VERTEX
  8
VISIBLE
 10
322.2260212155005
 20
181.34909870045453
 30
0.0
  0
VERTEX
  8
VISIBLE
 10
322.2064625340004
 20
181.2889407930425
 30
0.0
  0
VERTEX
  8
VISIBLE
 10
322.18141000309396
 20
181.22946577254433
 30
0.0
  0
VERTEX
  8
VISIBLE
 10
322.1509340170327
 20
181.1708407557904
 30
0.0
  0
VERTEX
  8
VISIBLE
 10
322.1151202092498
 20
181.11323047121465
 30
0.0
  0
VERTEX
  8
VISIBLE
 10
322.07406921174174
 20
181.0567967959897
 30
0.0
  0
VERTEX
  8
VISIBLE
 10
322.02789637230535
 20
181.00169830117366
 30
0.0
  0
VERTEX
  8
VISIBLE
 10
321.9767314304264
 20
180.9480898061468
 30
0.0
  0
VERTEX
  8
VISIBLE
 10
321.92071815272914
 20
180.89612194358986
 30
0.0
  0
VERTEX
  8
VISIBLE
 10
321.860013929011
 20
180.84594073622637
 30
0.0
  0
VERTEX
  8
VISIBLE
 10
321.76696212333644
 20
180.7786123679171
 30
0.0
  0
VERTEX
  8
VISIBLE
 10
321.6654762208439
 20
180.7154760664941
 30
0.0
  0
SEQEND
  8
VISIBLE
  0
POLYLINE
  8
VISIBLE
 66
1
 10
0.0
 20
0.0
 30
0.0
 70
128
  0
VERTEX
  8
VISIBLE
 10
353.4852813742386
 20
162.34430299562024
 30
0.0
  0
VERTEX
  8
VISIBLE
 10
353.3209494700136
 20
162.25935705839075
 30
0.0
  0
VERTEX
  8
VISIBLE
 10
353.14141512659853
 20
162.18537545924588
 30
0.0
  0
VERTEX
  8
VISIBLE
 10
352.94886203868197
 20
162.12325804398688
 30
0.0
  0
VERTEX
  8
VISIBLE
 10
352.74563224928113
 20
162.07376035312592
 30
0.0
  0
VERTEX
  8
VISIBLE
 10
352.534197663232
 20
162.03748443216904
 30
0.0
  0
VERTEX
  8
VISIBLE
 10
352.317129981156
 20
162.0148715088747
 30
0.0
  0
VERTEX
  8
VISIBLE
 10
352.09706941960116
 20
162.00619662655532
 30
0.0
  0
VERTEX
  8
VISIBLE
 10
351.87669259781654
 20
162.01156529869692
 30
0.0
  0
VERTEX
  8
VISIBLE
 10
351.6586799817568
 20
162.03091222558797
 30
0.0
  0
VERTEX
  8
VISIBLE
 10
351.44568328129924
 20
162.06400208856633
 30
0.0
  0
VERTEX
  8
VISIBLE
 10
351.24029319722365
 20
162.1104324122245
 30
0.0
  0
VERTEX
  8
VISIBLE
 10
351.0450079102522
 20
162.16963845975928
 30
0.0
  0
VERTEX
  8
VISIBLE
 10
350.8622026954204
 20
162.24090010192367
 30
0.0
  0
VERTEX
  8
VISIBLE
 10
350.6941010313624
 20
162.3233505760329
 30
0.0
  0
VERTEX
  8
VISIBLE
 10
350.54274755591166
 20
162.41598702848833
 30
0.0
  0
VERTEX
  8
VISIBLE
 10
350.42237523410347
 20
162.5071399342181
 30
0.0
  0
VERTEX
  8
VISIBLE
 10
350.32790013225275
 20
162.59471170328874
 30
0.0
  0
VERTEX
  8
VISIBLE
 10
350.254751242553
 20
162.67741080270193
 30
0.0
  0
VERTEX
  8
VISIBLE
 10
350.1989483198971
 20
162.7545284815912
 30
0.0
  0
VERTEX
  8
VISIBLE
 10
350.1571040323585
 20
162.82576592115626
 30
0.0
  0
VERTEX
  8
VISIBLE
 10
350.1263845674575
 20
162.89110402046128
 30
0.0
  0
VERTEX
  8
VISIBLE
 10
350.10235038253313
 20
162.95736925805787
 30
0.0
  0
VERTEX
  8
VISIBLE
 10
350.0850841004268
 20
163.02433383249442
 30
0.0
  0
VERTEX
  8
VISIBLE
 10
350.0746450778129
 20
163.09176753819378
 30
0.0
  0
VERTEX
  8
VISIBLE
 10
350.07196232839226
 20
163.1262681128884
 30
0.0
  0
VERTEX
  8
VISIBLE
 10
350.0710678118655
 20
163.16079957654796
 30
0.0
  0
SEQEND
  8
VISIBLE
  0
POLYLINE
  8
VISIBLE
 66
1
 10
0.0
 20
0.0
 30
0.0
 70
128
  0
VERTEX
  8
VISIBLE
 10
350.0710678118655
 20
163.16079957654796
 30
0.0
  0
VERTEX
  8
VISIBLE
 10
350.07434741515686
 20
163.22689964555383
 30
0.0
  0
VERTEX
  8
VISIBLE
 10
350.08417546923323
 20
163.29278293255584
 30
0.0
  0
VERTEX
  8
VISIBLE
 10
350.1005197419761
 20
163.35823336650907
 30
0.0
  0
VERTEX
  8
VISIBLE
 10
350.1233266306548
 20
163.4230362959549
 30
0.0
  0
VERTEX
  8
VISIBLE
 10
350.1525213377221
 20
163.48697919299266
 30
0.0
  0
VERTEX
  8
VISIBLE
 10
350.18800811612067
 20
163.54985235028676
 30
0.0
  0
VERTEX
  8
VISIBLE
 10
350.2296705832953
 20
163.61144956882356
 30
0.0
  0
VERTEX
  8
VISIBLE
 10
350.27737210288143
 20
163.67156883416246
 30
0.0
  0
VERTEX
  8
VISIBLE
 10
350.33095623281844
 20
163.73001297896295
 30
0.0
  0
VERTEX
  8
VISIBLE
 10
350.3902472384175
 20
163.78659032961536
 30
0.0
  0
VERTEX
  8
VISIBLE
 10
350.4550506687014
 20
163.84111533485432
 30
0.0
  0
VERTEX
  8
VISIBLE
 10
350.525153994127
 20
163.89340917429317
 30
0.0
  0
VERTEX
  8
VISIBLE
 10
350.6264695886635
 20
163.9593682906696
 30
0.0
  0
VERTEX
  8
VISIBLE
 10
350.7504837750899
 20
164.0279900211858
 30
0.0
  0
VERTEX
  8
VISIBLE
 10
350.8842393632774
 20
164.0902148467801
 30
0.0
  0
VERTEX
  8
VISIBLE
 10
351.0267496936224
 20
164.14558376067313
 30
0.0
  0
VERTEX
  8
VISIBLE
 10
351.1769635264124
 20
164.193688329308
 30
0.0
  0
VERTEX
  8
VISIBLE
 10
351.3337727963866
 20
164.23417370519556
 30
0.0
  0
VERTEX
  8
VISIBLE
 10
351.5511061812339
 20
164.2757943302981
 30
0.0
  0
VERTEX
  8
VISIBLE
 10
351.80360724974076
 20
164.30512832414163
 30
0.0
  0
VERTEX
  8
VISIBLE
 10
352.0605440339331
 20
164.31548412944514
 30
0.0
  0
VERTEX
  8
VISIBLE
 10
352.31765535034987
 20
164.3066899997363
 30
0.0
  0
VERTEX
  8
VISIBLE
 10
352.57067712098984
 20
164.27889178178512
 30
0.0
  0
VERTEX
  8
VISIBLE
 10
352.81541309116824
 20
164.23255049679943
 30
0.0
  0
VERTEX
  8
VISIBLE
 10
353.04780442255367
 20
164.1684346945911
 30
0.0
  0
VERTEX
  8
VISIBLE
 10
353.2639970072148
 20
164.08760770751562
 30
0.0
  0
VERTEX
  8
VISIBLE
 10
353.4417504986564
 20
164.00167788168127
 30
0.0
  0
VERTEX
  8
VISIBLE
 10
353.5860444305082
 20
163.91464435388744
 30
0.0
  0
VERTEX
  8
VISIBLE
 10
353.70184900705146
 20
163.82926864674437
 30
0.0
  0
VERTEX
  8
VISIBLE
 10
353.7938025564053
 20
163.7473672765211
 30
0.0
  0
VERTEX
  8
VISIBLE
 10
353.8660539173046
 20
163.6700555309496
 30
0.0
  0
VERTEX
  8
VISIBLE
 10
353.9222080705484
 20
163.59794171311353
 30
0.0
  0
VERTEX
  8
VISIBLE
 10
353.96968292264114
 20
163.52377830004485
 30
0.0
  0
VERTEX
  8
VISIBLE
 10
354.0048046567301
 20
163.4555660461546
 30
0.0
  0
VERTEX
  8
VISIBLE
 10
354.0301379284641
 20
163.39321033235913
 30
0.0
  0
VERTEX
  8
VISIBLE
 10
354.0494438860011
 20
163.33013957899658
 30
0.0
  0
VERTEX
  8
VISIBLE
 10
354.0626631322468
 20
163.26654783080477
 30
0.0
  0
VERTEX
  8
VISIBLE
 10
354.068965537071
 20
163.2137293401303
 30
0.0
  0
VERTEX
  8
VISIBLE
 10
354.0710678118655
 20
163.16079957654796
 30
0.0
  0
SEQEND
  8
VISIBLE
  0
POLYLINE
  8
VISIBLE
 66
1
 10
0.0
 20
0.0
 30
0.0
 70
128
  0
VERTEX
  8
VISIBLE
 10
354.0710678118655
 20
163.16079957654796
 30
0.0
  0
VERTEX
  8
VISIBLE
 10
354.06825794599183
 20
163.09961251868884
 30
0.0
  0
VERTEX
  8
VISIBLE
 10
354.0598362437171
 20
163.03859738825548
 30
0.0
  0
VERTEX
  8
VISIBLE
 10
354.0458263688951
 20
162.9779256295807
 30
0.0
  0
VERTEX
  8
VISIBLE
 10
354.02626768739503
 20
162.9177677221687
 30
0.0
  0
VERTEX
  8
VISIBLE
 10
354.00121515648857
 20
162.85829270167048
 30
0.0
  0
VERTEX
  8
VISIBLE
 10
353.9707391704273
 20
162.79966768491656
 30
0.0
  0
VERTEX
  8
VISIBLE
 10
353.9349253626445
 20
162.74205740034083
 30
0.0
  0
VERTEX
  8
VISIBLE
 10
353.89387436513636
 20
162.68562372511585
 30
0.0
  0
VERTEX
  8
VISIBLE
 10
353.84770152569996
 20
162.6305252302998
 30
0.0
  0
VERTEX
  8
VISIBLE
 10
353.7965365838211
 20
162.57691673527296
 30
0.0
  0
VERTEX
  8
VISIBLE
 10
353.7405233061238
 20
162.52494887271604
 30
0.0
  0
VERTEX
  8
VISIBLE
 10
353.67981908240563
 20
162.47476766535254
 30
0.0
  0
VERTEX
  8
VISIBLE
 10
353.58676727673105
 20
162.40743929704328
 30
0.0
  0
VERTEX
  8
VISIBLE
 10
353.4852813742386
 20
162.34430299562024
 30
0.0
  0
SEQEND
  8
VISIBLE
  0
POLYLINE
  8
VISIBLE
 66
1
 10
0.0
 20
0.0
 30
0.0
 70
128
  0
VERTEX
  8
VISIBLE
 10
348.1819805153395
 20
175.6123724356958
 30
0.0
  0
VERTEX
  8
VISIBLE
 10
347.80598631718414
 20
175.41836191258838
 30
0.0
  0
VERTEX
  8
VISIBLE
 10
347.3947555978702
 20
175.24985752909612
 30
0.0
  0
VERTEX
  8
VISIBLE
 10
346.9534524381537
 20
175.1089752999116
 30
0.0
  0
VERTEX
  8
VISIBLE
 10
346.48761855719044
 20
174.9974843710991
 30
0.0
  0
VERTEX
  8
VISIBLE
 10
346.00310372171026
 20
174.9167848038236
 30
0.0
  0
VERTEX
  8
VISIBLE
 10
345.5059922868462
 20
174.86788999290894
 30
0.0
  0
VERTEX
  8
VISIBLE
 10
345.00252679109013
 20
174.85141394100688
 30
0.0
  0
VERTEX
  8
VISIBLE
 10
344.49902956484163
 20
174.86756354818237
 30
0.0
  0
VERTEX
  8
VISIBLE
 10
344.0018233369597
 20
174.9161360137406
 30
0.0
  0
VERTEX
  8
VISIBLE
 10
343.5171518363115
 20
174.99652138292163
 30
0.0
  0
VERTEX
  8
VISIBLE
 10
343.05110138537214
 20
175.1077102064831
 30
0.0
  0
VERTEX
  8
VISIBLE
 10
342.6095244704759
 20
175.2483062169842
 30
0.0
  0
VERTEX
  8
VISIBLE
 10
342.1979662484932
 20
175.41654386258728
 30
0.0
  0
VERTEX
  8
VISIBLE
 10
341.8215949128354
 20
175.61031047819384
 30
0.0
  0
VERTEX
  8
VISIBLE
 10
341.5168619146062
 20
175.80452276458584
 30
0.0
  0
VERTEX
  8
VISIBLE
 10
341.27281930053937
 20
175.99368251727012
 30
0.0
  0
VERTEX
  8
VISIBLE
 10
341.079393975987
 20
176.1742318075046
 30
0.0
  0
VERTEX
  8
VISIBLE
 10
340.92765975463396
 20
176.34404188090818
 30
0.0
  0
VERTEX
  8
VISIBLE
 10
340.797952300211
 20
176.51983118024566
 30
0.0
  0
VERTEX
  8
VISIBLE
 10
340.7006308502333
 20
176.68236851941302
 30
0.0
  0
VERTEX
  8
VISIBLE
 10
340.62913753861926
 20
176.8315465566965
 30
0.0
  0
VERTEX
  8
VISIBLE
 10
340.5731577785741
 20
176.98291786671933
 30
0.0
  0
VERTEX
  8
VISIBLE
 10
340.5328902596934
 20
177.13594518557883
 30
0.0
  0
VERTEX
  8
VISIBLE
 10
340.51020274495966
 20
177.2746368440064
 30
0.0
  0
VERTEX
  8
VISIBLE
 10
340.50255140953885
 20
177.3620136962349
 30
0.0
  0
VERTEX
  8
VISIBLE
 10
340.5
 20
177.4494897427832
 30
0.0
  0
SEQEND
  8
VISIBLE
  0
POLYLINE
  8
VISIBLE
 66
1
 10
0.0
 20
0.0
 30
0.0
 70
128
  0
VERTEX
  8
VISIBLE
 10
340.5
 20
177.4494897427832
 30
0.0
  0
VERTEX
  8
VISIBLE
 10
340.5049990741427
 20
177.57191887404102
 30
0.0
  0
VERTEX
  8
VISIBLE
 10
340.5199851895741
 20
177.69407599094134
 30
0.0
  0
VERTEX
  8
VISIBLE
 10
340.54492504998217
 20
177.8156896834911
 30
0.0
  0
VERTEX
  8
VISIBLE
 10
340.5797632437175
 20
177.93648974908322
 30
0.0
  0
VERTEX
  8
VISIBLE
 10
340.6244223669073
 20
178.0562077928358
 30
0.0
  0
VERTEX
  8
VISIBLE
 10
340.67880319543264
 20
178.17457782391466
 30
0.0
  0
VERTEX
  8
VISIBLE
 10
340.7427849053851
 20
178.2913368465146
 30
0.0
  0
VERTEX
  8
VISIBLE
 10
340.816225341515
 20
178.4062254441864
 30
0.0
  0
VERTEX
  8
VISIBLE
 10
340.8989613330733
 20
178.51898835621097
 30
0.0
  0
VERTEX
  8
VISIBLE
 10
340.9908090563462
 20
178.62937504474044
 30
0.0
  0
VERTEX
  8
VISIBLE
 10
341.09156444307666
 20
178.7371402514458
 30
0.0
  0
VERTEX
  8
VISIBLE
 10
341.2393716175271
 20
178.8763364022552
 30
0.0
  0
VERTEX
  8
VISIBLE
 10
341.423375994135
 20
179.02616987528415
 30
0.0
  0
VERTEX
  8
VISIBLE
 10
341.6252560407139
 20
179.1681232318535
 30
0.0
  0
VERTEX
  8
VISIBLE
 10
341.8440027775444
 20
179.30148700086724
 30
0.0
  0
VERTEX
  8
VISIBLE
 10
342.0785229265887
 20
179.42559464127515
 30
0.0
  0
VERTEX
  8
VISIBLE
 10
342.32764437560377
 20
179.53982587338976
 30
0.0
  0
VERTEX
  8
VISIBLE
 10
342.6803576974896
 20
179.6757915782946
 30
0.0
  0
VERTEX
  8
VISIBLE
 10
343.1016247812638
 20
179.80506267584272
 30
0.0
  0
VERTEX
  8
VISIBLE
 10
343.5442285718293
 20
179.9078584125126
 30
0.0
  0
VERTEX
  8
VISIBLE
 10
344.003194442879
 20
179.98302342003404
 30
0.0
  0
VERTEX
  8
VISIBLE
 10
344.4733638672044
 20
180.02971288453108
 30
0.0
  0
VERTEX
  8
VISIBLE
 10
344.9494523957407
 20
180.04740204177145
 30
0.0
  0
VERTEX
  8
VISIBLE
 10
345.42610905190554
 20
180.03589207523163
 30
0.0
  0
VERTEX
  8
VISIBLE
 10
345.8979764736704
 20
179.99531235068648
 30
0.0
  0
VERTEX
  8
VISIBLE
 10
346.35975112740124
 20
179.9261189622083
 30
0.0
  0
VERTEX
  8
VISIBLE
 10
346.8062429166971
 20
179.82908960591715
 30
0.0
  0
VERTEX
  8
VISIBLE
 10
347.23243351625604
 20
179.7053148390984
 30
0.0
  0
VERTEX
  8
VISIBLE
 10
347.63353277512664
 20
179.55618582293124
 30
0.0
  0
VERTEX
  8
VISIBLE
 10
348.00503255540434
 20
179.38337868659218
 30
0.0
  0
VERTEX
  8
VISIBLE
 10
348.3427574012537
 20
179.1888356884731
 30
0.0
  0
VERTEX
  8
VISIBLE
 10
348.61468638364016
 20
178.99696535895364
 30
0.0
  0
VERTEX
  8
VISIBLE
 10
348.8313456180711
 20
178.81218202339133
 30
0.0
  0
VERTEX
  8
VISIBLE
 10
349.00221599509706
 20
178.6372421199771
 30
0.0
  0
VERTEX
  8
VISIBLE
 10
349.13557717804645
 20
178.4736969816467
 30
0.0
  0
VERTEX
  8
VISIBLE
 10
349.2489188504287
 20
178.3051938587936
 30
0.0
  0
VERTEX
  8
VISIBLE
 10
349.33335415611134
 20
178.14997570688536
 30
0.0
  0
VERTEX
  8
VISIBLE
 10
349.39482532298183
 20
178.0079132321643
 30
0.0
  0
VERTEX
  8
VISIBLE
 10
349.44233636638137
 20
177.864076930206
 30
0.0
  0
VERTEX
  8
VISIBLE
 10
349.4757363679041
 20
177.71892369574178
 30
0.0
  0
VERTEX
  8
VISIBLE
 10
349.49392999809567
 20
177.58438868300115
 30
0.0
  0
VERTEX
  8
VISIBLE
 10
349.5
 20
177.4494897427832
 30
0.0
  0
SEQEND
  8
VISIBLE
  0
POLYLINE
  8
VISIBLE
 66
1
 10
0.0
 20
0.0
 30
0.0
 70
128
  0
VERTEX
  8
VISIBLE
 10
349.5
 20
177.4494897427832
 30
0.0
  0
VERTEX
  8
VISIBLE
 10
349.49500092585737
 20
177.32706061152535
 30
0.0
  0
VERTEX
  8
VISIBLE
 10
349.4800148104259
 20
177.20490349462503
 30
0.0
  0
VERTEX
  8
VISIBLE
 10
349.4550749500179
 20
177.08328980207529
 30
0.0
  0
VERTEX
  8
VISIBLE
 10
349.4202367562826
 20
176.96248973648315
 30
0.0
  0
VERTEX
  8
VISIBLE
 10
349.3755776330927
 20
176.84277169273057
 30
0.0
  0
VERTEX
  8
VISIBLE
 10
349.32119680456736
 20
176.7244016616517
 30
0.0
  0
VERTEX
  8
VISIBLE
 10
349.25721509461493
 20
176.60764263905176
 30
0.0
  0
VERTEX
  8
VISIBLE
 10
349.18377465848505
 20
176.49275404137995
 30
0.0
  0
VERTEX
  8
VISIBLE
 10
349.10103866692674
 20
176.37999112935537
 30
0.0
  0
VERTEX
  8
VISIBLE
 10
349.0091909436538
 20
176.2696044408259
 30
0.0
  0
VERTEX
  8
VISIBLE
 10
348.90843555692334
 20
176.16183923412058
 30
0.0
  0
VERTEX
  8
VISIBLE
 10
348.7606283824729
 20
176.02264308331115
 30
0.0
  0
VERTEX
  8
VISIBLE
 10
348.576624005865
 20
175.8728096102822
 30
0.0
  0
VERTEX
  8
VISIBLE
 10
348.3868206935032
 20
175.73879343327852
 30
0.0
  0
VERTEX
  8
VISIBLE
 10
348.1819805153395
 20
175.6123724356958
 30
0.0
  0
SEQEND
  8
VISIBLE
  0
POLYLINE
  8
VISIBLE
 66
1
 10
0.0
 20
0.0
 30
0.0
 70
128
  0
VERTEX
  8
VISIBLE
 10
339.34314575050763
 20
190.92168332809067
 30
0.0
  0
VERTEX
  8
VISIBLE
 10
339.17881384628265
 20
190.83673739086117
 30
0.0
  0
VERTEX
  8
VISIBLE
 10
338.9992795028676
 20
190.76275579171627
 30
0.0
  0
VERTEX
  8
VISIBLE
 10
338.806726414951
 20
190.70063837645728
 30
0.0
  0
VERTEX
  8
VISIBLE
 10
338.6034966255502
 20
190.65114068559632
 30
0.0
  0
VERTEX
  8
VISIBLE
 10
338.39206203950107
 20
190.61486476463944
 30
0.0
  0
VERTEX
  8
VISIBLE
 10
338.174994357425
 20
190.59225184134513
 30
0.0
  0
VERTEX
  8
VISIBLE
 10
337.9549337958702
 20
190.58357695902575
 30
0.0
  0
VERTEX
  8
VISIBLE
 10
337.7345569740856
 20
190.58894563116735
 30
0.0
  0
VERTEX
  8
VISIBLE
 10
337.51654435802584
 20
190.60829255805837
 30
0.0
  0
VERTEX
  8
VISIBLE
 10
337.3035476575683
 20
190.64138242103675
 30
0.0
  0
VERTEX
  8
VISIBLE
 10
337.0981575734927
 20
190.68781274469492
 30
0.0
  0
VERTEX
  8
VISIBLE
 10
336.90287228652124
 20
190.7470187922297
 30
0.0
  0
VERTEX
  8
VISIBLE
 10
336.72006707168947
 20
190.81828043439407
 30
0.0
  0
VERTEX
  8
VISIBLE
 10
336.5519654076314
 20
190.90073090850333
 30
0.0
  0
VERTEX
  8
VISIBLE
 10
336.4006119321807
 20
190.99336736095876
 30
0.0
  0
VERTEX
  8
VISIBLE
 10
336.2802396103725
 20
191.08452026668851
 30
0.0
  0
VERTEX
  8
VISIBLE
 10
336.1857645085218
 20
191.17209203575914
 30
0.0
  0
VERTEX
  8
VISIBLE
 10
336.1126156188221
 20
191.25479113517235
 30
0.0
  0
VERTEX
  8
VISIBLE
 10
336.05681269616616
 20
191.33190881406162
 30
0.0
  0
VERTEX
  8
VISIBLE
 10
336.01496840862757
 20
191.4031462536267
 30
0.0
  0
VERTEX
  8
VISIBLE
 10
335.9842489437265
 20
191.46848435293168
 30
0.0
  0
VERTEX
  8
VISIBLE
 10
335.9602147588022
 20
191.5347495905283
 30
0.0
  0
VERTEX
  8
VISIBLE
 10
335.94294847669585
 20
191.60171416496485
 30
0.0
  0
VERTEX
  8
VISIBLE
 10
335.9325094540819
 20
191.6691478706642
 30
0.0
  0
VERTEX
  8
VISIBLE
 10
335.92982670466137
 20
191.70364844535882
 30
0.0
  0
VERTEX
  8
VISIBLE
 10
335.9289321881345
 20
191.73817990901838
 30
0.0
  0
SEQEND
  8
VISIBLE
  0
POLYLINE
  8
VISIBLE
 66
1
 10
0.0
 20
0.0
 30
0.0
 70
128
  0
VERTEX
  8
VISIBLE
 10
335.9289321881345
 20
191.73817990901838
 30
0.0
  0
VERTEX
  8
VISIBLE
 10
335.9322117914259
 20
191.80427997802425
 30
0.0
  0
VERTEX
  8
VISIBLE
 10
335.9420398455023
 20
191.87016326502624
 30
0.0
  0
VERTEX
  8
VISIBLE
 10
335.95838411824514
 20
191.93561369897947
 30
0.0
  0
VERTEX
  8
VISIBLE
 10
335.98119100692384
 20
192.0004166284253
 30
0.0
  0
VERTEX
  8
VISIBLE
 10
336.0103857139911
 20
192.0643595254631
 30
0.0
  0
VERTEX
  8
VISIBLE
 10
336.0458724923897
 20
192.12723268275715
 30
0.0
  0
VERTEX
  8
VISIBLE
 10
336.0875349595643
 20
192.18882990129396
 30
0.0
  0
VERTEX
  8
VISIBLE
 10
336.1352364791505
 20
192.24894916663285
 30
0.0
  0
VERTEX
  8
VISIBLE
 10
336.1888206090875
 20
192.30739331143334
 30
0.0
  0
VERTEX
  8
VISIBLE
 10
336.24811161468654
 20
192.3639706620858
 30
0.0
  0
VERTEX
  8
VISIBLE
 10
336.31291504497045
 20
192.41849566732475
 30
0.0
  0
VERTEX
  8
VISIBLE
 10
336.38301837039603
 20
192.4707895067636
 30
0.0
  0
VERTEX
  8
VISIBLE
 10
336.48433396493255
 20
192.53674862314003
 30
0.0
  0
VERTEX
  8
VISIBLE
 10
336.60834815135894
 20
192.6053703536562
 30
0.0
  0
VERTEX
  8
VISIBLE
 10
336.74210373954645
 20
192.66759517925053
 30
0.0
  0
VERTEX
  8
VISIBLE
 10
336.8846140698914
 20
192.72296409314356
 30
0.0
  0
VERTEX
  8
VISIBLE
 10
337.03482790268146
 20
192.7710686617784
 30
0.0
  0
VERTEX
  8
VISIBLE
 10
337.19163717265565
 20
192.81155403766599
 30
0.0
  0
VERTEX
  8
VISIBLE
 10
337.408970557503
 20
192.8531746627685
 30
0.0
  0
VERTEX
  8
VISIBLE
 10
337.6614716260098
 20
192.88250865661206
 30
0.0
  0
VERTEX
  8
VISIBLE
 10
337.9184084102022
 20
192.89286446191556
 30
0.0
  0
VERTEX
  8
VISIBLE
 10
338.1755197266189
 20
192.8840703322067
 30
0.0
  0
VERTEX
  8
VISIBLE
 10
338.4285414972589
 20
192.85627211425555
 30
0.0
  0
VERTEX
  8
VISIBLE
 10
338.6732774674373
 20
192.80993082926986
 30
0.0
  0
VERTEX
  8
VISIBLE
 10
338.9056687988227
 20
192.7458150270615
 30
0.0
  0
VERTEX
  8
VISIBLE
 10
339.12186138348386
 20
192.66498803998604
 30
0.0
  0
VERTEX
  8
VISIBLE
 10
339.29961487492545
 20
192.5790582141517
 30
0.0
  0
VERTEX
  8
VISIBLE
 10
339.4439088067772
 20
192.49202468635787
 30
0.0
  0
VERTEX
  8
VISIBLE
 10
339.55971338332057
 20
192.40664897921476
 30
0.0
  0
VERTEX
  8
VISIBLE
 10
339.65166693267435
 20
192.32474760899152
 30
0.0
  0
VERTEX
  8
VISIBLE
 10
339.7239182935736
 20
192.24743586342004
 30
0.0
  0
VERTEX
  8
VISIBLE
 10
339.7800724468174
 20
192.17532204558395
 30
0.0
  0
VERTEX
  8
VISIBLE
 10
339.8275472989102
 20
192.10115863251528
 30
0.0
  0
VERTEX
  8
VISIBLE
 10
339.8626690329991
 20
192.032946378625
 30
0.0
  0
VERTEX
  8
VISIBLE
 10
339.88800230473316
 20
191.97059066482956
 30
0.0
  0
VERTEX
  8
VISIBLE
 10
339.90730826227013
 20
191.90751991146698
 30
0.0
  0
VERTEX
  8
VISIBLE
 10
339.9205275085159
 20
191.8439281632752
 30
0.0
  0
VERTEX
  8
VISIBLE
 10
339.92682991334004
 20
191.79110967260073
 30
0.0
  0
VERTEX
  8
VISIBLE
 10
339.9289321881345
 20
191.73817990901838
 30
0.0
  0
SEQEND
  8
VISIBLE
  0
POLYLINE
  8
VISIBLE
 66
1
 10
0.0
 20
0.0
 30
0.0
 70
128
  0
VERTEX
  8
VISIBLE
 10
339.9289321881345
 20
191.73817990901838
 30
0.0
  0
VERTEX
  8
VISIBLE
 10
339.9261223222609
 20
191.67699285115924
 30
0.0
  0
VERTEX
  8
VISIBLE
 10
339.91770061998614
 20
191.61597772072588
 30
0.0
  0
VERTEX
  8
VISIBLE
 10
339.90369074516417
 20
191.5553059620511
 30
0.0
  0
VERTEX
  8
VISIBLE
 10
339.8841320636641
 20
191.4951480546391
 30
0.0
  0
VERTEX
  8
VISIBLE
 10
339.8590795327576
 20
191.4356730341409
 30
0.0
  0
VERTEX
  8
VISIBLE
 10
339.82860354669634
 20
191.37704801738698
 30
0.0
  0
VERTEX
  8
VISIBLE
 10
339.79278973891354
 20
191.31943773281122
 30
0.0
  0
VERTEX
  8
VISIBLE
 10
339.7517387414054
 20
191.26300405758627
 30
0.0
  0
VERTEX
  8
VISIBLE
 10
339.705565901969
 20
191.20790556277024
 30
0.0
  0
VERTEX
  8
VISIBLE
 10
339.65440096009013
 20
191.15429706774339
 30
0.0
  0
VERTEX
  8
VISIBLE
 10
339.59838768239285
 20
191.10232920518644
 30
0.0
  0
VERTEX
  8
VISIBLE
 10
339.5376834586747
 20
191.05214799782294
 30
0.0
  0
VERTEX
  8
VISIBLE
 10
339.4446316530001
 20
190.9848196295137
 30
0.0
  0
VERTEX
  8
VISIBLE
 10
339.34314575050763
 20
190.92168332809067
 30
0.0
  0
SEQEND
  8
VISIBLE
  0
POLYLINE
  8
VISIBLE
 66
1
 10
0.0
 20
0.0
 30
0.0
 70
128
  0
VERTEX
  8
VISIBLE
 10
371.16295090390224
 20
172.5505102572168
 30
0.0
  0
VERTEX
  8
VISIBLE
 10
370.9986189996773
 20
172.46556431998732
 30
0.0
  0
VERTEX
  8
VISIBLE
 10
370.81908465626225
 20
172.39158272084245
 30
0.0
  0
VERTEX
  8
VISIBLE
 10
370.6265315683456
 20
172.32946530558345
 30
0.0
  0
VERTEX
  8
VISIBLE
 10
370.42330177894485
 20
172.2799676147225
 30
0.0
  0
VERTEX
  8
VISIBLE
 10
370.2118671928957
 20
172.2436916937656
 30
0.0
  0
VERTEX
  8
VISIBLE
 10
369.9947995108197
 20
172.2210787704713
 30
0.0
  0
VERTEX
  8
VISIBLE
 10
369.7747389492649
 20
172.2124038881519
 30
0.0
  0
VERTEX
  8
VISIBLE
 10
369.5543621274802
 20
172.2177725602935
 30
0.0
  0
VERTEX
  8
VISIBLE
 10
369.3363495114205
 20
172.23711948718454
 30
0.0
  0
VERTEX
  8
VISIBLE
 10
369.12335281096296
 20
172.27020935016293
 30
0.0
  0
VERTEX
  8
VISIBLE
 10
368.9179627268873
 20
172.3166396738211
 30
0.0
  0
VERTEX
  8
VISIBLE
 10
368.7226774399159
 20
172.37584572135586
 30
0.0
  0
VERTEX
  8
VISIBLE
 10
368.5398722250841
 20
172.44710736352025
 30
0.0
  0
VERTEX
  8
VISIBLE
 10
368.3717705610261
 20
172.52955783762948
 30
0.0
  0
VERTEX
  8
VISIBLE
 10
368.2204170855754
 20
172.6221942900849
 30
0.0
  0
VERTEX
  8
VISIBLE
 10
368.1000447637672
 20
172.71334719581466
 30
0.0
  0
VERTEX
  8
VISIBLE
 10
368.0055696619164
 20
172.8009189648853
 30
0.0
  0
VERTEX
  8
VISIBLE
 10
367.93242077221674
 20
172.88361806429853
 30
0.0
  0
VERTEX
  8
VISIBLE
 10
367.87661784956083
 20
172.96073574318777
 30
0.0
  0
VERTEX
  8
VISIBLE
 10
367.8347735620222
 20
173.03197318275284
 30
0.0
  0
VERTEX
  8
VISIBLE
 10
367.80405409712114
 20
173.09731128205786
 30
0.0
  0
VERTEX
  8
VISIBLE
 10
367.7800199121968
 20
173.16357651965444
 30
0.0
  0
VERTEX
  8
VISIBLE
 10
367.7627536300905
 20
173.230541094091
 30
0.0
  0
VERTEX
  8
VISIBLE
 10
367.7523146074766
 20
173.29797479979035
 30
0.0
  0
VERTEX
  8
VISIBLE
 10
367.749631858056
 20
173.33247537448497
 30
0.0
  0
VERTEX
  8
VISIBLE
 10
367.7487373415292
 20
173.36700683814453
 30
0.0
  0
SEQEND
  8
VISIBLE
  0
POLYLINE
  8
VISIBLE
 66
1
 10
0.0
 20
0.0
 30
0.0
 70
128
  0
VERTEX
  8
VISIBLE
 10
367.7487373415292
 20
173.36700683814453
 30
0.0
  0
VERTEX
  8
VISIBLE
 10
367.7520169448205
 20
173.4331069071504
 30
0.0
  0
VERTEX
  8
VISIBLE
 10
367.7618449988969
 20
173.4989901941524
 30
0.0
  0
VERTEX
  8
VISIBLE
 10
367.7781892716398
 20
173.56444062810564
 30
0.0
  0
VERTEX
  8
VISIBLE
 10
367.80099616031845
 20
173.6292435575515
 30
0.0
  0
VERTEX
  8
VISIBLE
 10
367.8301908673858
 20
173.69318645458924
 30
0.0
  0
VERTEX
  8
VISIBLE
 10
367.8656776457844
 20
173.75605961188333
 30
0.0
  0
VERTEX
  8
VISIBLE
 10
367.907340112959
 20
173.81765683042013
 30
0.0
  0
VERTEX
  8
VISIBLE
 10
367.9550416325451
 20
173.87777609575903
 30
0.0
  0
VERTEX
  8
VISIBLE
 10
368.00862576248215
 20
173.93622024055952
 30
0.0
  0
VERTEX
  8
VISIBLE
 10
368.0679167680812
 20
173.99279759121194
 30
0.0
  0
VERTEX
  8
VISIBLE
 10
368.1327201983651
 20
174.0473225964509
 30
0.0
  0
VERTEX
  8
VISIBLE
 10
368.2028235237907
 20
174.09961643588974
 30
0.0
  0
VERTEX
  8
VISIBLE
 10
368.30413911832716
 20
174.16557555226618
 30
0.0
  0
VERTEX
  8
VISIBLE
 10
368.42815330475355
 20
174.2341972827824
 30
0.0
  0
VERTEX
  8
VISIBLE
 10
368.5619088929411
 20
174.29642210837667
 30
0.0
  0
VERTEX
  8
VISIBLE
 10
368.70441922328604
 20
174.3517910222697
 30
0.0
  0
VERTEX
  8
VISIBLE
 10
368.8546330560761
 20
174.39989559090458
 30
0.0
  0
VERTEX
  8
VISIBLE
 10
369.0114423260503
 20
174.44038096679213
 30
0.0
  0
VERTEX
  8
VISIBLE
 10
369.2287757108976
 20
174.4820015918947
 30
0.0
  0
VERTEX
  8
VISIBLE
 10
369.4812767794045
 20
174.51133558573824
 30
0.0
  0
VERTEX
  8
VISIBLE
 10
369.73821356359684
 20
174.5216913910417
 30
0.0
  0
VERTEX
  8
VISIBLE
 10
369.9953248800136
 20
174.51289726133288
 30
0.0
  0
VERTEX
  8
VISIBLE
 10
370.2483466506535
 20
174.48509904338172
 30
0.0
  0
VERTEX
  8
VISIBLE
 10
370.49308262083196
 20
174.43875775839604
 30
0.0
  0
VERTEX
  8
VISIBLE
 10
370.7254739522174
 20
174.37464195618767
 30
0.0
  0
VERTEX
  8
VISIBLE
 10
370.94166653687853
 20
174.2938149691122
 30
0.0
  0
VERTEX
  8
VISIBLE
 10
371.1194200283201
 20
174.20788514327785
 30
0.0
  0
VERTEX
  8
VISIBLE
 10
371.26371396017186
 20
174.120851615484
 30
0.0
  0
VERTEX
  8
VISIBLE
 10
371.3795185367152
 20
174.03547590834094
 30
0.0
  0
VERTEX
  8
VISIBLE
 10
371.471472086069
 20
173.95357453811766
 30
0.0
  0
VERTEX
  8
VISIBLE
 10
371.5437234469683
 20
173.87626279254619
 30
0.0
  0
VERTEX
  8
VISIBLE
 10
371.5998776002121
 20
173.80414897471013
 30
0.0
  0
VERTEX
  8
VISIBLE
 10
371.64735245230486
 20
173.72998556164146
 30
0.0
  0
VERTEX
  8
VISIBLE
 10
371.6824741863938
 20
173.6617733077512
 30
0.0
  0
VERTEX
  8
VISIBLE
 10
371.70780745812783
 20
173.5994175939557
 30
0.0
  0
VERTEX
  8
VISIBLE
 10
371.72711341566475
 20
173.53634684059315
 30
0.0
  0
VERTEX
  8
VISIBLE
 10
371.74033266191054
 20
173.47275509240134
 30
0.0
  0
VERTEX
  8
VISIBLE
 10
371.7466350667347
 20
173.41993660172687
 30
0.0
  0
VERTEX
  8
VISIBLE
 10
371.7487373415292
 20
173.36700683814453
 30
0.0
  0
SEQEND
  8
VISIBLE
  0
POLYLINE
  8
VISIBLE
 66
1
 10
0.0
 20
0.0
 30
0.0
 70
128
  0
VERTEX
  8
VISIBLE
 10
371.7487373415292
 20
173.36700683814453
 30
0.0
  0
VERTEX
  8
VISIBLE
 10
371.74592747565555
 20
173.30581978028542
 30
0.0
  0
VERTEX
  8
VISIBLE
 10
371.7375057733808
 20
173.24480464985206
 30
0.0
  0
VERTEX
  8
VISIBLE
 10
371.72349589855884
 20
173.18413289117728
 30
0.0
  0
VERTEX
  8
VISIBLE
 10
371.70393721705875
 20
173.12397498376527
 30
0.0
  0
VERTEX
  8
VISIBLE
 10
371.6788846861523
 20
173.06449996326705
 30
0.0
  0
VERTEX
  8
VISIBLE
 10
371.648408700091
 20
173.00587494651313
 30
0.0
  0
VERTEX
  8
VISIBLE
 10
371.61259489230815
 20
172.9482646619374
 30
0.0
  0
VERTEX
  8
VISIBLE
 10
371.5715438948001
 20
172.89183098671242
 30
0.0
  0
VERTEX
  8
VISIBLE
 10
371.5253710553636
 20
172.83673249189638
 30
0.0
  0
VERTEX
  8
VISIBLE
 10
371.47420611348474
 20
172.78312399686956
 30
0.0
  0
VERTEX
  8
VISIBLE
 10
371.4181928357875
 20
172.7311561343126
 30
0.0
  0
VERTEX
  8
VISIBLE
 10
371.35748861206935
 20
172.68097492694912
 30
0.0
  0
VERTEX
  8
VISIBLE
 10
371.26443680639477
 20
172.61364655863986
 30
0.0
  0
VERTEX
  8
VISIBLE
 10
371.16295090390224
 20
172.5505102572168
 30
0.0
  0
SEQEND
  8
VISIBLE
  0
POLYLINE
  8
VISIBLE
 66
1
 10
0.0
 20
0.0
 30
0.0
 70
128
  0
VERTEX
  8
VISIBLE
 10
342.50901625858376
 20
175.2857738033247
 30
0.0
  0
VERTEX
  8
VISIBLE
 10
342.502783953317
 20
175.34015028219918
 30
0.0
  0
VERTEX
  8
VISIBLE
 10
342.5006960852362
 20
175.3741898032875
 30
0.0
  0
VERTEX
  8
VISIBLE
 10
342.5
 20
175.40824829046386
 30
0.0
  0
SEQEND
  8
VISIBLE
  0
POLYLINE
  8
VISIBLE
 66
1
 10
0.0
 20
0.0
 30
0.0
 70
128
  0
VERTEX
  8
VISIBLE
 10
342.5
 20
175.40824829046386
 30
0.0
  0
VERTEX
  8
VISIBLE
 10
342.5040489066181
 20
175.49036231574914
 30
0.0
  0
VERTEX
  8
VISIBLE
 10
342.5161825115565
 20
175.5722103634181
 30
0.0
  0
VERTEX
  8
VISIBLE
 10
342.53636151254864
 20
175.6535273173892
 30
0.0
  0
VERTEX
  8
VISIBLE
 10
342.56452054728186
 20
175.73404978185997
 30
0.0
  0
VERTEX
  8
VISIBLE
 10
342.6005684051146
 20
175.813516934479
 30
0.0
  0
VERTEX
  8
VISIBLE
 10
342.64438832251864
 20
175.89167137118216
 30
0.0
  0
VERTEX
  8
VISIBLE
 10
342.6958383612912
 20
175.9682599399566
 30
0.0
  0
VERTEX
  8
VISIBLE
 10
342.7547518683102
 20
176.04303456083198
 30
0.0
  0
VERTEX
  8
VISIBLE
 10
342.820938015345
 20
176.11575302944246
 30
0.0
  0
VERTEX
  8
VISIBLE
 10
342.8941824171725
 20
176.1861798015569
 30
0.0
  0
VERTEX
  8
VISIBLE
 10
342.9742478259981
 20
176.25408675603643
 30
0.0
  0
VERTEX
  8
VISIBLE
 10
343.0608748999308
 20
176.31925393374706
 30
0.0
  0
VERTEX
  8
VISIBLE
 10
343.1860967703844
 20
176.40151815536967
 30
0.0
  0
VERTEX
  8
VISIBLE
 10
343.33941582985676
 20
176.4872076987009
 30
0.0
  0
VERTEX
  8
VISIBLE
 10
343.5048331955287
 20
176.56503640514563
 30
0.0
  0
VERTEX
  8
VISIBLE
 10
343.6811437072062
 20
176.6344372480282
 30
0.0
  0
VERTEX
  8
VISIBLE
 10
343.8670628418914
 20
176.6949046024831
 30
0.0
  0
VERTEX
  8
VISIBLE
 10
344.0612360722679
 20
176.74599792922155
 30
0.0
  0
VERTEX
  8
VISIBLE
 10
344.330520940149
 20
176.7989073414682
 30
0.0
  0
VERTEX
  8
VISIBLE
 10
344.64364798004164
 20
176.83688554765124
 30
0.0
  0
VERTEX
  8
VISIBLE
 10
344.9626120988367
 20
176.85146254400198
 30
0.0
  0
VERTEX
  8
VISIBLE
 10
345.2821886348958
 20
176.8423995579778
 30
0.0
  0
VERTEX
  8
VISIBLE
 10
345.5971428951293
 20
176.80984504212446
 30
0.0
  0
VERTEX
  8
VISIBLE
 10
345.9023158997512
 20
176.75433224240945
 30
0.0
  0
VERTEX
  8
VISIBLE
 10
346.1927088868432
 20
176.6767704636041
 30
0.0
  0
VERTEX
  8
VISIBLE
 10
346.46356519253516
 20
176.57843017478777
 30
0.0
  0
VERTEX
  8
VISIBLE
 10
346.6869573113057
 20
176.47348301105086
 30
0.0
  0
VERTEX
  8
VISIBLE
 10
346.86894686990826
 20
176.3668997039019
 30
0.0
  0
VERTEX
  8
VISIBLE
 10
347.0156076589738
 20
176.2621268464436
 30
0.0
  0
VERTEX
  8
VISIBLE
 10
347.1326242468584
 20
176.16144455123336
 30
0.0
  0
VERTEX
  8
VISIBLE
 10
347.2345917907121
 20
176.05544726267206
 30
0.0
  0
VERTEX
  8
VISIBLE
 10
347.31289866717555
 20
175.95612289758293
 30
0.0
  0
VERTEX
  8
VISIBLE
 10
347.3720815751708
 20
175.8640366187974
 30
0.0
  0
VERTEX
  8
VISIBLE
 10
347.4159611702596
 20
175.77934200001164
 30
0.0
  0
VERTEX
  8
VISIBLE
 10
347.4477081578033
 20
175.70191747748854
 30
0.0
  0
VERTEX
  8
VISIBLE
 10
347.472017425263
 20
175.62360059808725
 30
0.0
  0
VERTEX
  8
VISIBLE
 10
347.48881510536563
 20
175.5446293391275
 30
0.0
  0
VERTEX
  8
VISIBLE
 10
347.49720221081657
 20
175.4765152133791
 30
0.0
  0
VERTEX
  8
VISIBLE
 10
347.5
 20
175.40824829046386
 30
0.0
  0
SEQEND
  8
VISIBLE
  0
POLYLINE
  8
VISIBLE
 66
1
 10
0.0
 20
0.0
 30
0.0
 70
128
  0
VERTEX
  8
VISIBLE
 10
347.5
 20
175.40824829046386
 30
0.0
  0
VERTEX
  8
VISIBLE
 10
347.49821815080134
 20
175.35376260119065
 30
0.0
  0
VERTEX
  8
VISIBLE
 10
347.49529572151346
 20
175.31974355952306
 30
0.0
  0
VERTEX
  8
VISIBLE
 10
347.49098374141624
 20
175.2857738033247
 30
0.0
  0
SEQEND
  8
VISIBLE
  0
POLYLINE
  8
VISIBLE
 66
1
 10
0.0
 20
0.0
 30
0.0
 70
128
  0
VERTEX
  8
VISIBLE
 10
340.8617636606883
 20
176.4288690166235
 30
0.0
  0
VERTEX
  8
VISIBLE
 10
341.0027746263664
 20
176.60158944207413
 30
0.0
  0
VERTEX
  8
VISIBLE
 10
341.16537675364526
 20
176.76786399088758
 30
0.0
  0
VERTEX
  8
VISIBLE
 10
341.3486917410837
 20
176.92679452490103
 30
0.0
  0
VERTEX
  8
VISIBLE
 10
341.55172940595554
 20
177.07752257492086
 30
0.0
  0
VERTEX
  8
VISIBLE
 10
341.7733930327585
 20
177.21923397777604
 30
0.0
  0
VERTEX
  8
VISIBLE
 10
342.01248529716383
 20
177.3511632740506
 30
0.0
  0
VERTEX
  8
VISIBLE
 10
342.2677147334082
 20
177.47259784274138
 30
0.0
  0
VERTEX
  8
VISIBLE
 10
342.63072846492645
 20
177.61706036886633
 30
0.0
  0
VERTEX
  8
VISIBLE
 10
343.06612223084494
 20
177.75417502802182
 30
0.0
  0
VERTEX
  8
VISIBLE
 10
343.52500607187295
 20
177.86279461052578
 30
0.0
  0
VERTEX
  8
VISIBLE
 10
344.00180610114745
 20
177.94159975576918
 30
0.0
  0
VERTEX
  8
VISIBLE
 10
344.4907308107052
 20
177.98963324773229
 30
0.0
  0
VERTEX
  8
VISIBLE
 10
344.9858414187196
 20
178.00631164192242
 30
0.0
  0
VERTEX
  8
VISIBLE
 10
345.4811240056165
 20
177.9914323522514
 30
0.0
  0
VERTEX
  8
VISIBLE
 10
345.97056256286004
 20
177.94517611177153
 30
0.0
  0
VERTEX
  8
VISIBLE
 10
346.44821206711185
 20
177.8681047773801
 30
0.0
  0
VERTEX
  8
VISIBLE
 10
346.9082706921605
 20
177.76115450515817
 30
0.0
  0
VERTEX
  8
VISIBLE
 10
347.34515028148974
 20
177.62562437924004
 30
0.0
  0
VERTEX
  8
VISIBLE
 10
347.7535442254829
 20
177.4631606323339
 30
0.0
  0
VERTEX
  8
VISIBLE
 10
348.12849191878456
 20
177.27573664956188
 30
0.0
  0
VERTEX
  8
VISIBLE
 10
348.46543901487996
 20
177.0656289985037
 30
0.0
  0
VERTEX
  8
VISIBLE
 10
348.7076833149542
 20
176.88055763703593
 30
0.0
  0
VERTEX
  8
VISIBLE
 10
348.90566722921415
 20
176.69869569280704
 30
0.0
  0
VERTEX
  8
VISIBLE
 10
349.02873441434417
 20
176.56573105040445
 30
0.0
  0
VERTEX
  8
VISIBLE
 10
349.13823633931173
 20
176.42886901662354
 30
0.0
  0
SEQEND
  8
VISIBLE
  0
LINE
  8
VISIBLE
 10
40.0
 20
229.0
 30
0.0
 11
40.0
 21
241.0
 31
0.0
  0
LINE
  8
VISIBLE
 10
160.0
 20
229.0
 30
0.0
 11
105.0
 21
229.0
 31
0.0
  0
LINE
  8
VISIBLE
 10
95.0
 20
229.0
 30
0.0
 11
105.0
 21
229.0
 31
0.0
  0
LINE
  8
VISIBLE
 10
95.0
 20
229.0
 30
0.0
 11
40.0
 21
229.0
 31
0.0
  0
LINE
  8
VISIBLE
 10
95.0
 20
236.0
 30
0.0
 11
95.0
 21
229.0
 31
0.0
  0
LINE
  8
VISIBLE
 10
91.0
 20
236.0
 30
0.0
 11
95.0
 21
236.0
 31
0.0
  0
LINE
  8
VISIBLE
 10
91.0
 20
241.0
 30
0.0
 11
91.0
 21
236.0
 31
0.0
  0
LINE
  8
VISIBLE
 10
91.0
 20
241.0
 30
0.0
 11
40.0
 21
241.0
 31
0.0
  0
LINE
  8
VISIBLE
 10
160.0
 20
241.0
 30
0.0
 11
109.0
 21
241.0
 31
0.0
  0
LINE
  8
VISIBLE
 10
91.0
 20
241.0
 30
0.0
 11
109.0
 21
241.0
 31
0.0
  0
LINE
  8
VISIBLE
 10
160.0
 20
241.0
 30
0.0
 11
160.0
 21
229.0
 31
0.0
  0
LINE
  8
VISIBLE
 10
105.0
 20
236.0
 30
0.0
 11
105.0
 21
229.0
 31
0.0
  0
LINE
  8
VISIBLE
 10
109.0
 20
241.0
 30
0.0
 11
109.0
 21
236.0
 31
0.0
  0
LINE
  8
VISIBLE
 10
105.0
 20
236.0
 30
0.0
 11
109.0
 21
236.0
 31
0.0
  0
LINE
  8
VISIBLE
 10
95.0
 20
236.0
 30
0.0
 11
105.0
 21
236.0
 31
0.0
  0
LINE
  8
HATCH
 10
158.79393923933998
 20
229.0
 30
0.0
 11
160.0
 21
230.20606076066002
 31
0.0
  0
LINE
  8
HATCH
 10
154.55129855222071
 20
229.0
 30
0.0
 11
160.0
 21
234.4487014477793
 31
0.0
  0
LINE
  8
HATCH
 10
150.30865786510142
 20
229.0
 30
0.0
 11
160.0
 21
238.6913421348986
 31
0.0
  0
LINE
  8
HATCH
 10
146.06601717798213
 20
229.0
 30
0.0
 11
158.06601717798213
 21
241.0
 31
0.0
  0
LINE
  8
HATCH
 10
141.82337649086287
 20
229.0
 30
0.0
 11
153.82337649086284
 21
241.0
 31
0.0
  0
LINE
  8
HATCH
 10
137.58073580374355
 20
229.0
 30
0.0
 11
149.58073580374355
 21
241.0
 31
0.0
  0
LINE
  8
HATCH
 10
133.3380951166243
 20
229.0
 30
0.0
 11
145.3380951166243
 21
241.0
 31
0.0
  0
LINE
  8
HATCH
 10
129.095454429505
 20
229.0
 30
0.0
 11
141.095454429505
 21
241.0
 31
0.0
  0
LINE
  8
HATCH
 10
124.8528137423857
 20
229.0
 30
0.0
 11
136.8528137423857
 21
241.0
 31
0.0
  0
LINE
  8
HATCH
 10
120.61017305526643
 20
229.0
 30
0.0
 11
132.61017305526642
 21
241.0
 31
0.0
  0
LINE
  8
HATCH
 10
116.36753236814714
 20
229.0
 30
0.0
 11
128.36753236814712
 21
241.0
 31
0.0
  0
LINE
  8
HATCH
 10
112.12489168102785
 20
229.0
 30
0.0
 11
124.12489168102786
 21
241.0
 31
0.0
  0
LINE
  8
HATCH
 10
107.88225099390857
 20
229.0
 30
0.0
 11
119.88225099390857
 21
241.0
 31
0.0
  0
LINE
  8
HATCH
 10
105.0
 20
230.36038969321072
 30
0.0
 11
115.63961030678928
 21
241.0
 31
0.0
  0
LINE
  8
HATCH
 10
105.0
 20
234.60303038033
 30
0.0
 11
106.39696961966999
 21
236.0
 31
0.0
  0
LINE
  8
HATCH
 10
109.00000000000001
 20
238.60303038033
 30
0.0
 11
111.39696961966999
 21
241.0
 31
0.0
  0
LINE
  8
HATCH
 10
90.91168824543144
 20
229.0
 30
0.0
 11
95.0
 21
233.08831175456856
 31
0.0
  0
LINE
  8
HATCH
 10
86.66904755831214
 20
229.0
 30
0.0
 11
93.66904755831213
 21
236.0
 31
0.0
  0
LINE
  8
HATCH
 10
82.42640687119285
 20
229.0
 30
0.0
 11
91.0
 21
237.57359312880715
 31
0.0
  0
LINE
  8
HATCH
 10
78.18376618407358
 20
229.0
 30
0.0
 11
90.18376618407358
 21
241.0
 31
0.0
  0
LINE
  8
HATCH
 10
73.94112549695429
 20
229.0
 30
0.0
 11
85.9411254969543
 21
241.0
 31
0.0
  0
LINE
  8
HATCH
 10
69.69848480983501
 20
229.0
 30
0.0
 11
81.69848480983501
 21
241.0
 31
0.0
  0
LINE
  8
HATCH
 10
65.45584412271572
 20
229.0
 30
0.0
 11
77.45584412271572
 21
241.0
 31
0.0
  0
LINE
  8
HATCH
 10
61.21320343559643
 20
229.0
 30
0.0
 11
73.21320343559643
 21
241.0
 31
0.0
  0
LINE
  8
HATCH
 10
56.97056274847714
 20
229.0
 30
0.0
 11
68.97056274847715
 21
241.0
 31
0.0
  0
LINE
  8
HATCH
 10
52.72792206135786
 20
229.0
 30
0.0
 11
64.72792206135786
 21
241.0
 31
0.0
  0
LINE
  8
HATCH
 10
48.48528137423857
 20
229.0
 30
0.0
 11
60.485281374238575
 21
241.0
 31
0.0
  0
LINE
  8
HATCH
 10
44.242640687119284
 20
229.0
 30
0.0
 11
56.24264068711929
 21
241.0
 31
0.0
  0
LINE
  8
HATCH
 10
40.0
 20
229.0
 30
0.0
 11
52.0
 21
241.0
 31
0.0
  0
LINE
  8
HATCH
 10
40.0
 20
233.2426406871193
 30
0.0
 11
47.757359312880716
 21
241.0
 31
0.0
  0
LINE
  8
HATCH
 10
40.0
 20
237.48528137423858
 30
0.0
 11
43.51471862576143
 21
241.0
 31
0.0
  0
LINE
  8
CENTER
 10
100.0
 20
238.0
 30
0.0
 11
100.0
 21
227.0
 31
0.0
  0
LINE
  8
CENTER
 10
100.0
 20
243.0
 30
0.0
 11
100.0
 21
234.0
 31
0.0
  0
LINE
  8
VISIBLE
 10
231.28220211291864
 20
147.0
 30
0.0
 11
248.71779788708133
 21
147.0
 31
0.0
  0
LINE
  8
VISIBLE
 10
220.9212159716611
 20
171.0
 30
0.0
 11
259.0787840283389
 21
171.0
 31
0.0
  0
LINE
  8
HIDDEN
 10
250.0
 20
161.0
 30
0.0
 11
250.0
 21
147.67949192431124
 31
0.0
  0
LINE
  8
HIDDEN
 10
250.0
 20
161.0
 30
0.0
 11
230.0
 21
161.0
 31
0.0
  0
LINE
  8
HIDDEN
 10
258.0
 20
161.0
 30
0.0
 11
222.0
 21
161.0
 31
0.0
  0
LINE
  8
HIDDEN
 10
258.0
 20
171.0
 30
0.0
 11
258.0
 21
161.0
 31
0.0
  0
LINE
  8
HIDDEN
 10
230.0
 20
161.0
 30
0.0
 11
230.0
 21
147.67949192431124
 31
0.0
  0
LINE
  8
HIDDEN
 10
222.0
 20
171.0
 30
0.0
 11
222.0
 21
161.0
 31
0.0
  0
CIRCLE
  8
THIN
 10
240.00000000000009
 20
164.99999999999977
 30
0.0
 40
19.999999999999915
  0
LINE
  8
THIN
 10
160.0
 20
177.5
 30
0.0
 11
160.0
 21
190.0
 31
0.0
  0
LINE
  8
THIN
 10
40.0
 20
177.5
 30
0.0
 11
40.0
 21
190.0
 31
0.0
  0
LINE
  8
THIN
 10
160.0
 20
188.0
 30
0.0
 11
105.43333333333334
 21
188.0
 31
0.0
  0
LINE
  8
THIN
 10
94.56666666666666
 20
188.0
 30
0.0
 11
40.0
 21
188.0
 31
0.0
  0
LINE
  8
THIN
 10
161.5
 20
176.0
 30
0.0
 11
184.0
 21
176.0
 31
0.0
  0
LINE
  8
THIN
 10
161.5
 20
96.0
 30
0.0
 11
184.0
 21
96.0
 31
0.0
  0
LINE
  8
THIN
 10
182.0
 20
176.0
 30
0.0
 11
182.0
 21
139.8
 31
0.0
  0
LINE
  8
THIN
 10
182.0
 20
132.2
 30
0.0
 11
182.0
 21
96.0
 31
0.0
  0
POLYLINE
  8
THIN
 66
1
 10
0.0
 20
0.0
 30
0.0
 70
128
  0
VERTEX
  8
THIN
 10
96.19403081201989
 20
144.1556482599574
 30
0.0
  0
VERTEX
  8
THIN
 10
90.0
 20
166.0
 30
0.0
  0
VERTEX
  8
THIN
 10
86.0
 20
166.0
 30
0.0
  0
SEQEND
  8
THIN
  0
LINE
  8
THIN
 10
38.5
 20
76.0
 30
0.0
 11
26.0
 21
76.0
 31
0.0
  0
LINE
  8
THIN
 10
38.5
 20
64.0
 30
0.0
 11
26.0
 21
64.0
 31
0.0
  0
LINE
  8
THIN
 10
28.0
 20
76.0
 30
0.0
 11
28.0
 21
73.8
 31
0.0
  0
LINE
  8
THIN
 10
28.0
 20
66.2
 30
0.0
 11
28.0
 21
64.0
 31
0.0
  0
LINE
  8
THIN
 10
281.0
 20
262.0
 30
0.0
 11
411.0
 21
262.0
 31
0.0
  0
LINE
  8
THIN
 10
281.0
 20
256.0
 30
0.0
 11
411.0
 21
256.0
 31
0.0
  0
LINE
  8
THIN
 10
281.0
 20
250.0
 30
0.0
 11
411.0
 21
250.0
 31
0.0
  0
LINE
  8
THIN
 10
281.0
 20
244.0
 30
0.0
 11
411.0
 21
244.0
 31
0.0
  0
LINE
  8
THIN
 10
281.0
 20
238.0
 30
0.0
 11
411.0
 21
238.0
 31
0.0
  0
LINE
  8
THIN
 10
281.0
 20
232.0
 30
0.0
 11
411.0
 21
232.0
 31
0.0
  0
LINE
  8
THIN
 10
281.0
 20
226.0
 30
0.0
 11
411.0
 21
226.0
 31
0.0
  0
LINE
  8
THIN
 10
281.0
 20
262.0
 30
0.0
 11
281.0
 21
226.0
 31
0.0
  0
LINE
  8
THIN
 10
297.0
 20
262.0
 30
0.0
 11
297.0
 21
226.0
 31
0.0
  0
LINE
  8
THIN
 10
319.0
 20
262.0
 30
0.0
 11
319.0
 21
226.0
 31
0.0
  0
LINE
  8
THIN
 10
341.0
 20
262.0
 30
0.0
 11
341.0
 21
226.0
 31
0.0
  0
LINE
  8
THIN
 10
411.0
 20
262.0
 30
0.0
 11
411.0
 21
226.0
 31
0.0
  0
SOLID
  8
THIN
 10
29.0
 20
144.0
 30
0.0
 11
28.5
 21
141.0
 31
0.0
 12
29.5
 22
141.0
 32
0.0
 13
29.5
 23
141.0
 33
0.0
  0
SOLID
  8
THIN
 10
171.0
 20
144.0
 30
0.0
 11
170.5
 21
141.0
 31
0.0
 12
171.5
 22
141.0
 32
0.0
 13
171.5
 23
141.0
 33
0.0
  0
SOLID
  8
THIN
 10
160.0
 20
188.0
 30
0.0
 11
157.0
 21
188.5
 31
0.0
 12
157.0
 22
187.5
 32
0.0
 13
157.0
 23
187.5
 33
0.0
  0
SOLID
  8
THIN
 10
40.0
 20
188.0
 30
0.0
 11
43.0
 21
187.5
 31
0.0
 12
43.0
 22
188.5
 32
0.0
 13
43.0
 23
188.5
 33
0.0
  0
SOLID
  8
THIN
 10
182.0
 20
176.0
 30
0.0
 11
181.5
 21
173.0
 31
0.0
 12
182.5
 22
173.0
 32
0.0
 13
182.5
 23
173.0
 33
0.0
  0
SOLID
  8
THIN
 10
182.0
 20
96.0
 30
0.0
 11
182.5
 21
99.0
 31
0.0
 12
181.5
 22
99.0
 32
0.0
 13
181.5
 23
99.0
 33
0.0
  0
SOLID
  8
THIN
 10
96.19403081201989
 20
144.1556482599574
 30
0.0
 11
95.37846598602415
 21
147.08564041260877
 31
0.0
 12
94.47228284602888
 22
146.66275494727762
 32
0.0
 13
94.47228284602888
 23
146.66275494727762
 33
0.0
  0
SOLID
  8
THIN
 10
28.0
 20
76.0
 30
0.0
 11
27.5
 21
73.0
 31
0.0
 12
28.5
 22
73.0
 32
0.0
 13
28.5
 23
73.0
 33
0.0
  0
SOLID
  8
THIN
 10
28.0
 20
64.0
 30
0.0
 11
28.5
 21
67.0
 31
0.0
 12
27.5
 22
67.0
 32
0.0
 13
27.5
 23
67.0
 33
0.0
  0
TEXT
  8
TEXT
 10
253.8
 20
45.3
 30
0.0
 40
1.8
  1
COMPANY
  0
TEXT
  8
TEXT
 10
333.8
 20
46.8
 30
0.0
 40
1.8
  1
TITLE
  0
TEXT
  8
TEXT
 10
333.8
 20
40.0
 30
0.0
 40
5.0
  1
MOUNTING PLATE
  0
TEXT
  8
TEXT
 10
253.8
 20
32.8
 30
0.0
 40
1.8
  1
DRAWN
  0
TEXT
  8
TEXT
 10
253.8
 20
28.0
 30
0.0
 40
3.0
  1
TENON
  0
TEXT
  8
TEXT
 10
293.8
 20
32.8
 30
0.0
 40
1.8
  1
DATE
  0
TEXT
  8
TEXT
 10
293.8
 20
28.0
 30
0.0
 40
3.0
  1
2026-10-08
  0
TEXT
  8
TEXT
 10
333.8
 20
33.3
 30
0.0
 40
1.8
  1
DWG NO
  0
TEXT
  8
TEXT
 10
333.8
 20
28.0
 30
0.0
 40
3.5
  1
TN-0004
  0
TEXT
  8
TEXT
 10
398.8
 20
33.3
 30
0.0
 40
1.8
  1
REV
  0
TEXT
  8
TEXT
 10
398.8
 20
28.0
 30
0.0
 40
3.5
  1
A
  0
TEXT
  8
TEXT
 10
253.8
 20
17.3
 30
0.0
 40
1.8
  1
SIZE
  0
TEXT
  8
TEXT
 10
253.8
 20
12.0
 30
0.0
 40
3.5
  1
B
  0
TEXT
  8
TEXT
 10
273.8
 20
17.3
 30
0.0
 40
1.8
  1
SCALE
  0
TEXT
  8
TEXT
 10
273.8
 20
12.0
 30
0.0
 40
3.5
  1
1:1
  0
TEXT
  8
TEXT
 10
313.8
 20
17.3
 30
0.0
 40
1.8
  1
SHEET
  0
TEXT
  8
TEXT
 10
313.8
 20
12.0
 30
0.0
 40
3.5
  1
1 OF 1
  0
TEXT
  8
TEXT
 10
353.8
 20
17.3
 30
0.0
 40
1.8
  1
UNITS
  0
TEXT
  8
TEXT
 10
353.8
 20
12.0
 30
0.0
 40
3.5
  1
mm
  0
TEXT
  8
TEXT
 10
108.5
 20
81.5
 30
0.0
 40
5.0
  1
B
  0
TEXT
  8
TEXT
 10
29.0
 20
146.25
 30
0.0
 40
5.0
  1
A
 72
1
 11
29.0
 21
146.25
 31
0.0
  0
TEXT
  8
TEXT
 10
171.0
 20
146.25
 30
0.0
 40
5.0
  1
A
 72
1
 11
171.0
 21
146.25
 31
0.0
  0
TEXT
  8
TEXT
 10
100.0
 20
219.0
 30
0.0
 40
4.0
  1
SECTION A-A
 72
1
 11
100.0
 21
219.0
 31
0.0
  0
TEXT
  8
TEXT
 10
100.0
 20
213.5
 30
0.0
 40
3.0
  1
SCALE 1:1
 72
1
 11
100.0
 21
213.5
 31
0.0
  0
TEXT
  8
TEXT
 10
240.0
 20
137.0
 30
0.0
 40
4.0
  1
DETAIL B
 72
1
 11
240.0
 21
137.0
 31
0.0
  0
TEXT
  8
TEXT
 10
240.0
 20
131.5
 30
0.0
 40
3.0
  1
SCALE 2:1
 72
1
 11
240.0
 21
131.5
 31
0.0
  0
TEXT
  8
TEXT
 10
100.0
 20
186.25
 30
0.0
 40
3.5
  1
120
 72
1
 11
100.0
 21
186.25
 31
0.0
  0
TEXT
  8
TEXT
 10
182.0
 20
134.25
 30
0.0
 40
3.5
  1
80
 72
1
 11
182.0
 21
134.25
 31
0.0
  0
TEXT
  8
TEXT
 10
85.0
 20
166.8
 30
0.0
 40
3.5
  1
%%c18
 72
2
 11
85.0
 21
166.8
 31
0.0
  0
TEXT
  8
TEXT
 10
28.0
 20
68.25
 30
0.0
 40
3.5
  1
12
 72
1
 11
28.0
 21
68.25
 31
0.0
  0
TEXT
  8
TEXT
 10
59.32842712474619
 20
115.32842712474618
 30
0.0
 40
2.5
  1
A1
  0
TEXT
  8
TEXT
 10
149.32842712474618
 20
115.32842712474618
 30
0.0
 40
2.5
  1
A2
  0
TEXT
  8
TEXT
 10
149.32842712474618
 20
165.32842712474618
 30
0.0
 40
2.5
  1
A3
  0
TEXT
  8
TEXT
 10
59.32842712474619
 20
165.32842712474618
 30
0.0
 40
2.5
  1
A4
  0
TEXT
  8
TEXT
 10
107.86396103067892
 20
143.86396103067892
 30
0.0
 40
2.5
  1
B1
  0
TEXT
  8
TEXT
 10
289.0
 20
257.6
 30
0.0
 40
2.5
  1
HOLE
 72
1
 11
289.0
 21
257.6
 31
0.0
  0
TEXT
  8
TEXT
 10
308.0
 20
257.6
 30
0.0
 40
2.5
  1
XDIM
 72
1
 11
308.0
 21
257.6
 31
0.0
  0
TEXT
  8
TEXT
 10
330.0
 20
257.6
 30
0.0
 40
2.5
  1
YDIM
 72
1
 11
330.0
 21
257.6
 31
0.0
  0
TEXT
  8
TEXT
 10
376.0
 20
257.6
 30
0.0
 40
2.5
  1
DESCRIPTION
 72
1
 11
376.0
 21
257.6
 31
0.0
  0
TEXT
  8
TEXT
 10
289.0
 20
251.6
 30
0.0
 40
2.5
  1
A1
 72
1
 11
289.0
 21
251.6
 31
0.0
  0
TEXT
  8
TEXT
 10
308.0
 20
251.6
 30
0.0
 40
2.5
  1
15
 72
1
 11
308.0
 21
251.6
 31
0.0
  0
TEXT
  8
TEXT
 10
330.0
 20
251.6
 30
0.0
 40
2.5
  1
15
 72
1
 11
330.0
 21
251.6
 31
0.0
  0
TEXT
  8
TEXT
 10
376.0
 20
251.6
 30
0.0
 40
2.5
  1
%%c8 THRU
 72
1
 11
376.0
 21
251.6
 31
0.0
  0
TEXT
  8
TEXT
 10
289.0
 20
245.6
 30
0.0
 40
2.5
  1
A2
 72
1
 11
289.0
 21
245.6
 31
0.0
  0
TEXT
  8
TEXT
 10
308.0
 20
245.6
 30
0.0
 40
2.5
  1
105
 72
1
 11
308.0
 21
245.6
 31
0.0
  0
TEXT
  8
TEXT
 10
330.0
 20
245.6
 30
0.0
 40
2.5
  1
15
 72
1
 11
330.0
 21
245.6
 31
0.0
  0
TEXT
  8
TEXT
 10
376.0
 20
245.6
 30
0.0
 40
2.5
  1
%%c8 THRU
 72
1
 11
376.0
 21
245.6
 31
0.0
  0
TEXT
  8
TEXT
 10
289.0
 20
239.6
 30
0.0
 40
2.5
  1
A3
 72
1
 11
289.0
 21
239.6
 31
0.0
  0
TEXT
  8
TEXT
 10
308.0
 20
239.6
 30
0.0
 40
2.5
  1
105
 72
1
 11
308.0
 21
239.6
 31
0.0
  0
TEXT
  8
TEXT
 10
330.0
 20
239.6
 30
0.0
 40
2.5
  1
65
 72
1
 11
330.0
 21
239.6
 31
0.0
  0
TEXT
  8
TEXT
 10
376.0
 20
239.6
 30
0.0
 40
2.5
  1
%%c8 THRU
 72
1
 11
376.0
 21
239.6
 31
0.0
  0
TEXT
  8
TEXT
 10
289.0
 20
233.6
 30
0.0
 40
2.5
  1
A4
 72
1
 11
289.0
 21
233.6
 31
0.0
  0
TEXT
  8
TEXT
 10
308.0
 20
233.6
 30
0.0
 40
2.5
  1
15
 72
1
 11
308.0
 21
233.6
 31
0.0
  0
TEXT
  8
TEXT
 10
330.0
 20
233.6
 30
0.0
 40
2.5
  1
65
 72
1
 11
330.0
 21
233.6
 31
0.0
  0
TEXT
  8
TEXT
 10
376.0
 20
233.6
 30
0.0
 40
2.5
  1
%%c8 THRU
 72
1
 11
376.0
 21
233.6
 31
0.0
  0
TEXT
  8
TEXT
 10
289.0
 20
227.6
 30
0.0
 40
2.5
  1
B1
 72
1
 11
289.0
 21
227.6
 31
0.0
  0
TEXT
  8
TEXT
 10
308.0
 20
227.6
 30
0.0
 40
2.5
  1
60
 72
1
 11
308.0
 21
227.6
 31
0.0
  0
TEXT
  8
TEXT
 10
330.0
 20
227.6
 30
0.0
 40
2.5
  1
40
 72
1
 11
330.0
 21
227.6
 31
0.0
  0
TEXT
  8
TEXT
 10
376.0
 20
227.6
 30
0.0
 40
2.5
  1
%%c10 THRU, CBORE %%c18 DEEP 5
 72
1
 11
376.0
 21
227.6
 31
0.0
  0
TEXT
  8
TEXT
 10
20.0
 20
24.0
 30
0.0
 40
3.0
  1
NOTES: BREAK ALL SHARP EDGES. DIMENSIONS IN MM.
  0
ENDSEC
  0
EOF
